<svg width="40" height="27" viewBox="0 0 40 27" fill="none" xmlns="http://www.w3.org/2000/svg">
<path d="M37.1489 0.484373L14.1193 23.2275C13.9644 23.381 13.7804 23.5028 13.5778 23.586C13.3752 23.6691 13.1579 23.7119 12.9385 23.7119C12.7191 23.7119 12.5019 23.6691 12.2993 23.586C12.0966 23.5028 11.9126 23.381 11.7578 23.2275L2.8519 14.4236C2.69707 14.27 2.51306 14.1482 2.31044 14.0651C2.10782 13.982 1.89057 13.9392 1.67117 13.9392C1.45177 13.9392 1.23452 13.982 1.0319 14.0651C0.829282 14.1482 0.645275 14.27 0.49044 14.4236C0.334992 14.5765 0.211648 14.7582 0.127486 14.9583C0.043324 15.1584 0 15.373 0 15.5897C0 15.8064 0.043324 16.0209 0.127486 16.221C0.211648 16.4212 0.334992 16.6029 0.49044 16.7558L9.39967 25.5532C10.3395 26.4797 11.6131 27 12.941 27C14.2689 27 15.5426 26.4797 16.4824 25.5532L39.5104 2.81498C39.6656 2.66209 39.7887 2.48046 39.8727 2.2805C39.9568 2.08053 40 1.86617 40 1.64967C40 1.43318 39.9568 1.21881 39.8727 1.01885C39.7887 0.81889 39.6656 0.637264 39.5104 0.484373C39.3556 0.330848 39.1716 0.20903 38.9689 0.125909C38.7663 0.0427884 38.5491 0 38.3297 0C38.1103 0 37.893 0.0427884 37.6904 0.125909C37.4878 0.20903 37.3038 0.330848 37.1489 0.484373Z" fill="#242528"/>
</svg>
