<svg aria-hidden="true" xmlns="http://www.w3.org/2000/svg" xmlns:xlink="http://www.w3.org/1999/xlink"><symbol viewBox="0 0 40 27" fill="none" id="check" xmlns="http://www.w3.org/2000/svg">
<path d="M37.1489 0.484373L14.1193 23.2275C13.9644 23.381 13.7804 23.5028 13.5778 23.586C13.3752 23.6691 13.1579 23.7119 12.9385 23.7119C12.7191 23.7119 12.5019 23.6691 12.2993 23.586C12.0966 23.5028 11.9126 23.381 11.7578 23.2275L2.8519 14.4236C2.69707 14.27 2.51306 14.1482 2.31044 14.0651C2.10782 13.982 1.89057 13.9392 1.67117 13.9392C1.45177 13.9392 1.23452 13.982 1.0319 14.0651C0.829282 14.1482 0.645275 14.27 0.49044 14.4236C0.334992 14.5765 0.211648 14.7582 0.127486 14.9583C0.043324 15.1584 0 15.373 0 15.5897C0 15.8064 0.043324 16.0209 0.127486 16.221C0.211648 16.4212 0.334992 16.6029 0.49044 16.7558L9.39967 25.5532C10.3395 26.4797 11.6131 27 12.941 27C14.2689 27 15.5426 26.4797 16.4824 25.5532L39.5104 2.81498C39.6656 2.66209 39.7887 2.48046 39.8727 2.2805C39.9568 2.08053 40 1.86617 40 1.64967C40 1.43318 39.9568 1.21881 39.8727 1.01885C39.7887 0.81889 39.6656 0.637264 39.5104 0.484373C39.3556 0.330848 39.1716 0.20903 38.9689 0.125909C38.7663 0.0427884 38.5491 0 38.3297 0C38.1103 0 37.893 0.0427884 37.6904 0.125909C37.4878 0.20903 37.3038 0.330848 37.1489 0.484373Z" fill="currentColor"/>
</symbol><symbol viewBox="0 0 12 12" fill="none" id="close" xmlns="http://www.w3.org/2000/svg">
<path fill-rule="evenodd" clip-rule="evenodd" d="M11.4797 0.520451C11.7726 0.813344 11.7726 1.28822 11.4797 1.58111L7.06021 6.00057L11.4796 10.42C11.7725 10.7129 11.7725 11.1878 11.4796 11.4806C11.1867 11.7735 10.7119 11.7735 10.419 11.4806L5.99955 7.06123L1.58018 11.4806C1.28728 11.7735 0.812408 11.7735 0.519515 11.4806C0.226622 11.1877 0.226622 10.7128 0.519515 10.4199L4.93889 6.00057L0.519475 1.58115C0.226581 1.28826 0.226581 0.813384 0.519475 0.520491C0.812368 0.227598 1.28724 0.227598 1.58013 0.520491L5.99955 4.93991L10.419 0.520451C10.7119 0.227558 11.1868 0.227558 11.4797 0.520451Z" fill="currentColor"/>
</symbol><symbol viewBox="0 0 20 21" fill="none" id="cup" xmlns="http://www.w3.org/2000/svg">
<path d="M16.6856 9.31936H16.5897C16.7054 8.93834 16.7316 8.53573 16.6662 8.14292C16.6008 7.75011 16.4456 7.37771 16.2127 7.05473C15.9797 6.73175 15.6753 6.46693 15.3232 6.28091C14.9711 6.09488 14.5808 5.99267 14.1828 5.98224H2.50284C-2.04482 6.2926 0.83428 13.1996 2.01145 15.0859C2.53935 15.8856 3.25913 16.5403 4.1051 16.9903C4.95107 17.4404 5.89627 17.6713 6.85445 17.6622H9.83032C10.773 17.6708 11.7033 17.4469 12.5388 17.0104C13.3744 16.5738 14.0894 15.9381 14.6208 15.1593H16.6856C20.7018 15.0817 21.4902 9.17086 16.6856 9.31936ZM9.83032 15.9936H6.85445C6.17382 16.0028 5.50176 15.8412 4.89969 15.5236C4.29763 15.2061 3.78478 14.7426 3.40803 14.1757C2.95419 13.741 0.412134 7.6508 2.50284 7.6508H14.1828C14.2975 7.65043 14.4111 7.6744 14.5159 7.72114C14.6208 7.76788 14.7145 7.83632 14.791 7.92195C14.8723 8.01154 14.9337 8.11733 14.9712 8.23236C15.0088 8.34739 15.0215 8.46906 15.0087 8.58937C14.539 12.1426 13.6555 15.8359 9.83032 15.9936ZM16.6856 13.4908H15.5076C15.8506 12.6832 16.117 11.8453 16.3035 10.9879C17.3121 10.9203 18.4276 11.1681 18.3542 11.9415C18.3271 12.3642 18.139 12.7604 17.8286 13.0486C17.5182 13.3368 17.1091 13.495 16.6856 13.4908ZM7.52938 3.4794V1.81084C7.52938 1.58958 7.61728 1.37738 7.77373 1.22092C7.93019 1.06446 8.14239 0.976563 8.36366 0.976562C8.58492 0.976563 8.79713 1.06446 8.95358 1.22092C9.11004 1.37738 9.19794 1.58958 9.19794 1.81084V3.4794C9.19794 3.70067 9.11004 3.91287 8.95358 4.06933C8.79713 4.22579 8.58492 4.31368 8.36366 4.31368C8.14239 4.31368 7.93019 4.22579 7.77373 4.06933C7.61728 3.91287 7.52938 3.70067 7.52938 3.4794ZM10.8665 3.4794V1.81084C10.8665 1.58958 10.9544 1.37738 11.1109 1.22092C11.2673 1.06446 11.4795 0.976563 11.7008 0.976562C11.922 0.976563 12.1342 1.06446 12.2907 1.22092C12.4472 1.37738 12.5351 1.58958 12.5351 1.81084V3.4794C12.5351 3.70067 12.4472 3.91287 12.2907 4.06933C12.1342 4.22579 11.922 4.31368 11.7008 4.31368C11.4795 4.31368 11.2673 4.22579 11.1109 4.06933C10.9544 3.91287 10.8665 3.70067 10.8665 3.4794ZM4.19226 3.4794V1.81084C4.19226 1.58958 4.28015 1.37738 4.43661 1.22092C4.59307 1.06446 4.80527 0.976563 5.02654 0.976562C5.2478 0.976563 5.46001 1.06446 5.61646 1.22092C5.77292 1.37738 5.86082 1.58958 5.86082 1.81084V3.4794C5.86082 3.70067 5.77292 3.91287 5.61646 4.06933C5.46001 4.22579 5.2478 4.31368 5.02654 4.31368C4.80527 4.31368 4.59307 4.22579 4.43661 4.06933C4.28015 3.91287 4.19226 3.70067 4.19226 3.4794ZM16.6856 20.165C16.6856 20.3863 16.5977 20.5985 16.4412 20.7549C16.2848 20.9114 16.0726 20.9993 15.8513 20.9993H0.83428C0.613015 20.9993 0.400813 20.9114 0.244355 20.7549C0.0878971 20.5985 0 20.3863 0 20.165C0 19.9437 0.0878971 19.7315 0.244355 19.5751C0.400813 19.4186 0.613015 19.3307 0.83428 19.3307H15.8513C16.0726 19.3307 16.2848 19.4186 16.4412 19.5751C16.5977 19.7315 16.6856 19.9437 16.6856 20.165Z" fill="currentColor"/>
</symbol><symbol viewBox="0 0 7 5" fill="none" id="dropdown" xmlns="http://www.w3.org/2000/svg">
<path d="M2.83336 3.69078L6.0667 0.457444L6.84363 1.23438L3.61029 4.46771L2.83336 3.69078Z" fill="currentColor"/>
<path d="M3.61029 4.46771L0.376953 1.23438L1.15226 0.459072L4.3856 3.69241L3.61029 4.46771Z" fill="currentColor"/>
</symbol><symbol viewBox="0 0 19 19" fill="none" id="free" xmlns="http://www.w3.org/2000/svg">
<path d="M9.5 0C4.26154 0 0 4.26154 0 9.5C0 14.7385 4.26154 19 9.5 19C14.7385 19 19 14.7385 19 9.5C19 4.26154 14.7385 0 9.5 0ZM9.5 17.4167C5.13475 17.4167 1.58333 13.8653 1.58333 9.5C1.58333 5.13475 5.13475 1.58333 9.5 1.58333C13.8653 1.58333 17.4167 5.13475 17.4167 9.5C17.4167 13.8653 13.8653 17.4167 9.5 17.4167ZM12.6667 11.0833C12.6667 12.3928 11.6011 13.4583 10.2917 13.4583V14.25C10.2917 14.6878 9.93779 15.0417 9.5 15.0417C9.06221 15.0417 8.70833 14.6878 8.70833 14.25V13.4583H8.49617C7.65146 13.4583 6.86296 13.0039 6.43942 12.2716C6.22013 11.8924 6.34996 11.4087 6.72758 11.1902C7.10679 10.9693 7.59129 11.1007 7.809 11.4784C7.95071 11.7238 8.21354 11.875 8.49538 11.875H10.2909C10.7279 11.875 11.0825 11.5203 11.0825 11.0833C11.0825 10.7841 10.868 10.5308 10.5727 10.4817L8.16525 10.0803C7.10283 9.90375 6.33254 8.99333 6.33254 7.91667C6.33254 6.60725 7.39812 5.54167 8.70754 5.54167V4.75C8.70754 4.313 9.06142 3.95833 9.49921 3.95833C9.937 3.95833 10.2909 4.313 10.2909 4.75V5.54167H10.503C11.3478 5.54167 12.1363 5.99688 12.5598 6.72917C12.7791 7.10758 12.6493 7.59129 12.2716 7.81058C11.8916 8.02988 11.4079 7.90004 11.1902 7.52163C11.0485 7.277 10.7857 7.12579 10.5038 7.12579H8.70833C8.27133 7.12579 7.91667 7.48125 7.91667 7.91746C7.91667 8.21671 8.13121 8.47004 8.4265 8.51912L10.834 8.9205C11.8964 9.09704 12.6667 10.0075 12.6667 11.0841V11.0833Z" fill="currentColor"/>
<path d="M17.5 1.5L1.5 17.5" stroke="currentColor" stroke-width="1.5" stroke-linecap="round"/>
</symbol><symbol viewBox="0 0 22 22" fill="none" id="layout" xmlns="http://www.w3.org/2000/svg">
<g clip-path="url(#fclip0_2019_3656)">
<path d="M9.24891 7.49859H7.49807V8.37859H0.503906V21.4961H21.4956V8.37859H12.7506V10.1203H19.7539V19.7453H2.25474V10.1203H9.24891V7.49859Z" fill="currentColor"/>
<path d="M5.74724 0.504425H0.503906V21.4961H13.6214V15.3728H10.9997V17.1236H11.8797V19.7453H2.25474V2.24609H5.74724V0.504425Z" fill="currentColor"/>
<path d="M13.6213 0.503619H8.37793V2.24529H11.8796V12.7503H13.6213V0.503619ZM17.1229 16.252H20.6246V14.5011H17.1229V16.252Z" fill="currentColor"/>
</g>
<defs>
<clipPath id="fclip0_2019_3656">
<rect width="22" height="22" fill="currentColor" transform="matrix(1 0 0 -1 0 22)"/>
</clipPath>
</defs>
</symbol><symbol viewBox="0 0 368.16 368.16" xml:space="preserve" class="" id="location" xmlns="http://www.w3.org/2000/svg"><g><path d="M184.08 0c-74.992 0-136 61.008-136 136 0 24.688 11.072 51.24 11.536 52.36 3.576 8.488 10.632 21.672 15.72 29.4l93.248 141.288c3.816 5.792 9.464 9.112 15.496 9.112s11.68-3.32 15.496-9.104l93.256-141.296c5.096-7.728 12.144-20.912 15.72-29.4.464-1.112 11.528-27.664 11.528-52.36 0-74.992-61.008-136-136-136zM293.8 182.152c-3.192 7.608-9.76 19.872-14.328 26.8l-93.256 141.296c-1.84 2.792-2.424 2.792-4.264 0L88.696 208.952c-4.568-6.928-11.136-19.2-14.328-26.808-.136-.328-10.288-24.768-10.288-46.144 0-66.168 53.832-120 120-120s120 53.832 120 120c0 21.408-10.176 45.912-10.28 46.152z" fill="currentColor" opacity="1" data-original="#000000" class=""/><path d="M184.08 64.008c-39.704 0-72 32.304-72 72s32.296 72 72 72 72-32.304 72-72-32.296-72-72-72zm0 128c-30.872 0-56-25.12-56-56s25.128-56 56-56 56 25.12 56 56-25.128 56-56 56z" fill="currentColor" opacity="1" data-original="#000000" class=""/></g></symbol><symbol viewBox="0 0 20 15" fill="none" id="mail" xmlns="http://www.w3.org/2000/svg">
<path fill-rule="evenodd" clip-rule="evenodd" d="M1.10626 0.288371C0.0533333 0.742026 0 1.09041 0 7.51989C0 14.0476 0.0537373 14.3625 1.23616 14.7702C2.12505 15.0766 17.8749 15.0766 18.7638 14.7702C19.9469 14.3623 20 14.0494 20 7.50051C20 0.951574 19.9469 0.63875 18.7638 0.23084C17.7745 -0.110151 1.91131 -0.0586126 1.10626 0.288371ZM18.1818 1.47654C18.1818 1.60039 10.1428 8.39943 9.99657 8.39943C9.87879 8.39943 7.71455 6.57902 2.34687 1.96536L1.71717 1.42401L9.94949 1.41602C14.4772 1.41142 18.1818 1.43879 18.1818 1.47654ZM5.60566 6.40183C7.90848 8.37945 9.88626 9.99751 10.0008 9.99751C10.1152 9.99751 12.0947 8.37945 14.3998 6.40183C16.7048 4.4242 18.6366 2.80615 18.6925 2.80615C18.7487 2.80615 18.7703 5.21086 18.7406 8.14973L18.6869 13.4933H10H1.31313L1.25939 8.14973C1.2297 5.21086 1.25354 2.80615 1.31212 2.80615C1.37091 2.80615 3.30283 4.4242 5.60566 6.40183Z" fill="currentColor"/>
</symbol><symbol viewBox="0 0 19 19" fill="none" id="payment" xmlns="http://www.w3.org/2000/svg">
<path d="M9.5 0C4.26154 0 0 4.26154 0 9.5C0 14.7385 4.26154 19 9.5 19C14.7385 19 19 14.7385 19 9.5C19 4.26154 14.7385 0 9.5 0ZM9.5 17.4167C5.13475 17.4167 1.58333 13.8653 1.58333 9.5C1.58333 5.13475 5.13475 1.58333 9.5 1.58333C13.8653 1.58333 17.4167 5.13475 17.4167 9.5C17.4167 13.8653 13.8653 17.4167 9.5 17.4167ZM12.6667 11.0833C12.6667 12.3928 11.6011 13.4583 10.2917 13.4583V14.25C10.2917 14.6878 9.93779 15.0417 9.5 15.0417C9.06221 15.0417 8.70833 14.6878 8.70833 14.25V13.4583H8.49617C7.65146 13.4583 6.86296 13.0039 6.43942 12.2716C6.22013 11.8924 6.34996 11.4087 6.72758 11.1902C7.10679 10.9693 7.59129 11.1007 7.809 11.4784C7.95071 11.7238 8.21354 11.875 8.49538 11.875H10.2909C10.7279 11.875 11.0825 11.5203 11.0825 11.0833C11.0825 10.7841 10.868 10.5308 10.5727 10.4817L8.16525 10.0803C7.10283 9.90375 6.33254 8.99333 6.33254 7.91667C6.33254 6.60725 7.39812 5.54167 8.70754 5.54167V4.75C8.70754 4.313 9.06142 3.95833 9.49921 3.95833C9.937 3.95833 10.2909 4.313 10.2909 4.75V5.54167H10.503C11.3478 5.54167 12.1363 5.99688 12.5598 6.72917C12.7791 7.10758 12.6493 7.59129 12.2716 7.81058C11.8916 8.02988 11.4079 7.90004 11.1902 7.52163C11.0485 7.277 10.7857 7.12579 10.5038 7.12579H8.70833C8.27133 7.12579 7.91667 7.48125 7.91667 7.91746C7.91667 8.21671 8.13121 8.47004 8.4265 8.51912L10.834 8.9205C11.8964 9.09704 12.6667 10.0075 12.6667 11.0841V11.0833Z" fill="currentColor"/>
</symbol><symbol viewBox="0 0 17 15" fill="none" id="pet" xmlns="http://www.w3.org/2000/svg">
<path d="M13.9459 12.8024C13.9459 13.751 13.5702 14.88 11.7772 14.88C11.2713 14.8577 10.771 14.7703 10.2892 14.6215C9.04306 14.229 7.69086 14.229 6.44282 14.6215C4.39872 15.2966 2.70986 14.6326 2.78612 12.8024C2.78984 10.0962 5.5519 7.44012 8.36603 7.44012C11.1802 7.44012 13.9422 10.0962 13.9422 12.8024H13.9459ZM15.0117 3.75738C14.0557 3.64392 13.1889 4.54787 13.0401 6.18278C12.737 10.0422 16.0589 10.5463 16.5034 6.59569C16.6522 4.96264 15.9677 3.8727 15.0117 3.75738ZM1.51204 3.75738C0.556018 3.87084 -0.12845 4.96078 0.0203473 6.59569C0.46488 10.5463 3.78493 10.0404 3.48361 6.18278C3.33295 4.54787 2.46807 3.64392 1.51204 3.75738ZM7.63134 2.43494C7.47883 0.800027 6.6158 -0.103918 5.65792 0.00953967C4.69817 0.122998 4.01928 1.21294 4.16994 2.84785C4.61447 6.80029 7.93638 6.29252 7.63134 2.43494ZM12.551 2.84785C12.6998 1.2148 12.0153 0.124858 11.0593 0.00953967C10.1032 -0.103918 9.2365 0.800027 9.0877 2.43494C8.78452 6.29624 12.1064 6.79843 12.551 2.84785Z" fill="currentColor"/>
</symbol><symbol viewBox="0 0 14 15" fill="none" id="reservation" xmlns="http://www.w3.org/2000/svg">
<path d="M6.96 0C7.248 0 7.504 0.0320005 7.728 0.0960016C7.984 0.128001 8.192 0.176001 8.352 0.24C8.544 0.336 8.72 0.416 8.88 0.48L7.44 6.24L7.68 6.48L12 2.4C12.608 2.656 13.072 3.104 13.392 3.744C13.744 4.352 13.92 5.024 13.92 5.76L8.16 7.2V7.68L13.92 9.12C13.92 9.856 13.744 10.544 13.392 11.184C13.072 11.792 12.608 12.224 12 12.48L7.68 8.4L7.44 8.64L8.88 14.4C8.72 14.496 8.544 14.576 8.352 14.64C7.968 14.8 7.504 14.88 6.96 14.88C6.416 14.88 5.952 14.8 5.568 14.64C5.376 14.576 5.2 14.496 5.04 14.4L6.48 8.64L6.24 8.4L1.92 12.48C1.312 12.224 0.832 11.792 0.48 11.184C0.16 10.544 0 9.856 0 9.12L5.76 7.68V7.2L0 5.76C0 5.024 0.16 4.352 0.48 3.744C0.832 3.104 1.312 2.656 1.92 2.4L6.24 6.48L6.48 6.24L5.04 0.48C5.2 0.416 5.376 0.336 5.568 0.24C5.728 0.176001 5.92 0.128001 6.144 0.0960016C6.368 0.0320005 6.64 0 6.96 0Z" fill="currentColor"/>
</symbol><symbol viewBox="0 0 20 20" fill="none" id="search" xmlns="http://www.w3.org/2000/svg">
<path d="M8.40039 0.400391C3.99159 0.400391 0.400391 3.99159 0.400391 8.40039C0.400391 12.8092 3.99159 16.4004 8.40039 16.4004C10.3176 16.4004 12.0783 15.7196 13.4582 14.5895L18.2348 19.366C18.3085 19.4428 18.3968 19.5041 18.4945 19.5463C18.5922 19.5886 18.6973 19.6109 18.8038 19.6119C18.9102 19.613 19.0158 19.5929 19.1143 19.5526C19.2129 19.5124 19.3024 19.4529 19.3776 19.3776C19.4529 19.3024 19.5124 19.2129 19.5526 19.1143C19.5929 19.0158 19.613 18.9102 19.6119 18.8038C19.6109 18.6973 19.5886 18.5922 19.5463 18.4945C19.5041 18.3968 19.4428 18.3085 19.366 18.2348L14.5895 13.4582C15.7196 12.0783 16.4004 10.3176 16.4004 8.40039C16.4004 3.99159 12.8092 0.400391 8.40039 0.400391ZM8.40039 2.00039C11.9445 2.00039 14.8004 4.85629 14.8004 8.40039C14.8004 11.9445 11.9445 14.8004 8.40039 14.8004C4.85629 14.8004 2.00039 11.9445 2.00039 8.40039C2.00039 4.85629 4.85629 2.00039 8.40039 2.00039Z" fill="currentColor"/>
</symbol><symbol viewBox="0 0 20 19" fill="none" id="star" xmlns="http://www.w3.org/2000/svg">
<path d="M10 0L12.2451 6.90983H19.5106L13.6327 11.1803L15.8779 18.0902L10 13.8197L4.12215 18.0902L6.36729 11.1803L0.489435 6.90983H7.75486L10 0Z" fill="currentColor"/>
</symbol><symbol viewBox="0 0 20 19" fill="none" id="star-empty" xmlns="http://www.w3.org/2000/svg">
<path d="M11.7559 7.36523H19.0215L13.1436 11.6357L15.3887 18.5449L9.51074 14.2744L3.63281 18.5449L5.87793 11.6357L0 7.36523H7.26562L9.51074 0.455078L11.7559 7.36523ZM7.99219 8.36523H3.07812L7.05371 11.2539L5.53418 15.9268L9.51074 13.0391L13.4863 15.9268L11.9678 11.2539L15.9434 8.36523H11.0293L9.51074 3.69043L7.99219 8.36523Z" fill="currentColor"/>
</symbol><symbol viewBox="0 0 30 30" fill="none" id="tg" xmlns="http://www.w3.org/2000/svg">
<path fill-rule="evenodd" clip-rule="evenodd" d="M13.5754 0.0364239C9.81088 0.427836 6.47161 2.1082 3.89892 4.90562C0.273562 8.84775 -0.941171 14.5594 0.75246 19.7003C1.52021 22.0308 2.73747 23.9814 4.51571 25.7309C6.87142 28.0485 9.73601 29.4382 13.164 29.9265C13.861 30.0258 16.1661 30.0241 16.8898 29.9239C20.331 29.4472 23.2933 27.977 25.6751 25.5636C28.0449 23.1623 29.4335 20.3173 29.9263 16.8529C30.0246 16.1622 30.0246 13.8449 29.9263 13.1542C29.6452 11.1778 29.0683 9.39368 28.1989 7.81171C27.5127 6.56292 26.7113 5.49336 25.6751 4.44347C23.3367 2.07403 20.4341 0.609775 17.0952 0.115094C16.3754 0.00841974 14.2922 -0.0380777 13.5754 0.0364239ZM22.0218 9.09867C22.2808 9.20699 22.4052 9.4558 22.4052 9.8657C22.4052 10.2414 19.9251 22.03 19.7918 22.288C19.6038 22.6519 19.2022 22.7899 18.7891 22.6328C18.6517 22.5805 17.2947 21.6028 15.3126 20.1279L14.8208 19.762L13.7541 20.7808C12.9769 21.5231 12.6355 21.811 12.4961 21.8416C12.3909 21.8647 12.2916 21.8704 12.2754 21.8542C12.2592 21.838 12.3026 20.9835 12.3718 19.9553L12.4976 18.0858L12.9095 17.7042C13.1361 17.4943 14.725 16.0533 16.4405 14.5019C18.1559 12.9505 19.5595 11.6428 19.5595 11.5958C19.5595 11.5361 19.497 11.5121 19.3518 11.516C19.1838 11.5205 18.3131 12.0453 14.7976 14.2606C12.407 15.7671 10.4207 16.9997 10.3836 16.9997C10.2217 16.9997 6.52242 15.8099 6.34687 15.7013C5.97229 15.4696 6.05197 15.1183 6.54126 14.8446C6.6687 14.7733 7.60367 14.3944 8.61897 14.0027C9.63427 13.611 11.5475 12.8728 12.8706 12.3623C14.1937 11.8518 16.5568 10.9392 18.122 10.3343C21.5531 9.00814 21.5209 9.02 21.6883 9.01736C21.7619 9.01618 21.912 9.05282 22.0218 9.09867Z" fill="currentColor"/>
</symbol><symbol viewBox="0 0 24 24" fill="none" stroke="currentColor" stroke-width="1.6" stroke-linecap="round" stroke-linejoin="round" id="time" xmlns="http://www.w3.org/2000/svg">
    <!-- окружность часов -->
    <circle cx="12" cy="12" r="10"/>
    <!-- часовая стрелка (04:00) — стала длиннее -->
    <line x1="12" y1="12" x2="17" y2="17"/>
    <!-- минутная стрелка (10 мин) — стала длиннее -->
    <line x1="12" y1="12" x2="15.5" y2="5"/>
    <!-- центр -->
    <circle cx="12" cy="12" r="1" fill="currentColor"/>
</symbol><symbol viewBox="0 0 30 30" fill="none" id="viber" xmlns="http://www.w3.org/2000/svg">
<path fill-rule="evenodd" clip-rule="evenodd" d="M13.652 0.0601101C10.7914 0.322044 8.08394 1.39816 5.73515 3.20677C4.59272 4.08645 3.1091 5.73968 2.25173 7.08828C1.8787 7.67501 1.16008 9.14822 0.897185 9.86518C0.212405 11.7325 -0.107847 13.9882 0.0323698 15.9572C0.253632 19.0653 1.29268 21.7899 3.20205 24.2691C4.11847 25.4589 5.81555 26.9669 7.17866 27.8024C11.6157 30.5224 17.207 30.7317 21.8328 28.3509C23.3292 27.5808 24.3607 26.8213 25.6192 25.563C27.1349 24.0476 28.1944 22.4344 28.9786 20.4484C29.7596 18.4704 30.1183 16.1403 29.9655 14.0379C29.6873 10.2106 28.1435 6.87513 25.4322 4.24348C23.5507 2.41728 21.2563 1.12168 18.7917 0.493852C17.0463 0.0492035 15.342 -0.0946342 13.652 0.0601101ZM17.6984 5.76495C18.9466 5.92538 19.709 6.08077 20.16 6.26677C21.4629 6.80395 22.8272 8.11778 23.4244 9.41021C23.9135 10.4686 24.2044 13.2018 24.0357 15.1509C23.9469 16.1753 23.7247 17.5032 23.5652 17.962C23.083 19.3491 21.5836 20.8771 20.1356 21.4568C19.2129 21.8262 17.6038 22.0359 15.3389 22.0818L13.6538 22.1159L12.6479 23.1658C12.0947 23.7433 11.5621 24.257 11.4644 24.3076C11.1089 24.4914 10.6268 24.3268 10.4066 23.9466C10.3649 23.8747 10.3273 23.4015 10.3093 22.7236L10.28 21.6179L9.9223 21.4835C9.19523 21.2105 8.39469 20.6497 7.71243 19.9358C6.64524 18.8188 6.27543 17.9217 6.01799 15.8253C5.91929 15.0215 5.91871 12.6866 6.01699 11.8966C6.27889 9.79159 6.64548 8.90276 7.71243 7.78607C8.69594 6.7568 9.69488 6.19336 10.9315 5.97036C11.4545 5.87601 12.6038 5.73206 13.4174 5.65888C14.0519 5.60182 16.9971 5.67477 17.6984 5.76495ZM13.2708 7.32852C12.2921 7.40844 11.0063 7.61438 10.5966 7.75681C10.0426 7.94937 9.59712 8.26138 8.96054 8.90258C8.25424 9.61397 8.01984 10.0362 7.85165 10.8997C7.49592 12.7262 7.47481 14.6048 7.78932 16.4545C7.94349 17.361 8.03603 17.6247 8.38068 18.14C8.91275 18.9355 9.85216 19.696 10.675 19.9976L11.0114 20.1209L11.0268 21.8578C11.0421 23.559 11.0448 23.5947 11.1614 23.5947C11.2399 23.5947 11.7966 23.0655 12.7959 22.0408L14.3113 20.4869L15.4136 20.4487C17.3678 20.3808 19.0161 20.1539 19.6274 19.8686C20.6397 19.3962 21.7195 18.2836 22.0044 17.4194C22.3084 16.4971 22.5016 14.3015 22.4013 12.9077C22.3301 11.9175 22.1521 10.7504 22.0033 10.2993C21.7795 9.62031 20.8426 8.54014 20.0728 8.07368C19.5799 7.77498 19.1341 7.63977 18.1924 7.50338C16.5904 7.27129 14.7654 7.20644 13.2708 7.32852ZM15.9751 9.3141C17.3332 9.63972 18.393 10.473 18.9927 11.6867C19.3168 12.3426 19.4373 12.8177 19.495 13.6676L19.5337 14.2367L19.3786 14.3073C19.2484 14.3667 19.2058 14.3618 19.112 14.2769C19.0252 14.1984 18.9911 14.0565 18.9584 13.6373C18.865 12.4405 18.5351 11.6764 17.7871 10.9241C17.0771 10.21 16.2812 9.85521 15.1616 9.75353C14.6419 9.70633 14.4513 9.5225 14.6824 9.29135C14.8116 9.16229 15.3838 9.17237 15.9751 9.3141ZM12.4083 10.0597C12.7496 10.4206 13.5175 11.5437 13.5724 11.7622C13.6494 12.0691 13.5381 12.3122 13.1493 12.6858C12.7064 13.1116 12.691 13.1936 12.9427 13.7836C13.1842 14.3495 13.6043 14.9513 14.0212 15.3285C14.4951 15.7573 15.3202 16.1771 15.6893 16.1771C15.9389 16.1771 15.9756 16.1553 16.2844 15.8244C16.6403 15.4431 16.8807 15.3317 17.1691 15.4144C17.4073 15.4826 18.5259 16.2567 18.91 16.619C19.1508 16.8462 19.2231 16.9543 19.2231 17.0873C19.2231 17.5711 18.4559 18.476 17.885 18.6657C17.6055 18.7585 17.5779 18.7574 17.2207 18.6392C16.1786 18.2944 14.391 17.2482 13.4468 16.4305C12.6171 15.7122 11.768 14.6234 11.1454 13.4798C10.7911 12.8291 10.2505 11.531 10.252 11.3347C10.2566 10.7246 11.2517 9.72697 11.8557 9.72697C12.0689 9.72697 12.1263 9.76151 12.4083 10.0597ZM15.9708 10.4612C17.1352 10.7585 17.9903 11.6084 18.2552 12.7316C18.3711 13.2229 18.3694 13.68 18.2514 13.7981C18.0442 14.0052 17.8161 13.829 17.8148 13.4609C17.8137 13.1401 17.6694 12.5365 17.5275 12.2581C17.1936 11.6037 16.4512 11.0934 15.6353 10.9575C15.3992 10.9181 15.1599 10.8617 15.1034 10.8321C14.9857 10.7704 14.9672 10.5463 15.0712 10.4423C15.1675 10.346 15.5511 10.354 15.9708 10.4612ZM16.3331 11.7414C16.8547 12.0111 17.1141 12.4141 17.1577 13.0223C17.1858 13.4126 17.1849 13.4153 17.0218 13.4563C16.8918 13.4889 16.8352 13.4698 16.7502 13.3648C16.6912 13.2919 16.6422 13.1626 16.6415 13.0775C16.6395 12.8336 16.4393 12.4544 16.2364 12.3099C16.1344 12.2373 15.94 12.1638 15.8044 12.1465C15.6688 12.1293 15.5117 12.0915 15.4553 12.0624C15.3361 12.0012 15.3196 11.7783 15.426 11.6682C15.5214 11.5695 16.0891 11.6153 16.3331 11.7414Z" fill="currentColor"/>
</symbol><symbol viewBox="0 0 64 64" xml:space="preserve" id="whatsapp" xmlns="http://www.w3.org/2000/svg"><g><g fill="currentColor" fill-rule="evenodd"><path d="M39.826 37.522c-.33.926-1.914 1.77-2.676 1.884-.682.102-1.546.144-2.496-.156a23.092 23.092 0 0 1-2.258-.836c-3.976-1.716-6.574-5.718-6.772-5.982s-1.618-2.148-1.618-4.098 1.024-2.91 1.388-3.306c.362-.396.792-.496 1.056-.496s.528.002.76.014c.244.012.57-.092.892.68.33.794 1.122 2.744 1.222 2.942.098.198.164.43.032.694s-.198.43-.396.662c-.198.23-.416.516-.594.694-.198.196-.406.412-.174.808s1.026 1.694 2.204 2.744c1.514 1.35 2.792 1.768 3.188 1.968.396.198.628.164.858-.1.232-.264.992-1.156 1.256-1.554.264-.396.528-.33.892-.198.362.132 2.312 1.09 2.708 1.29.396.198.66.296.76.462.098.166.098.958-.232 1.884m-7.754-18.844c-7.272 0-13.188 5.912-13.19 13.178 0 2.49.696 4.916 2.016 7.014l.314.498-1.332 4.864 4.99-1.308.48.284a13.145 13.145 0 0 0 6.71 1.838h.006c7.266 0 13.18-5.912 13.184-13.18a13.1 13.1 0 0 0-3.858-9.324 13.097 13.097 0 0 0-9.32-3.864" fill="currentColor" opacity="1" data-original="#67d449"/><path d="M32.066 47.724h-.006c-2.656 0-5.264-.666-7.58-1.93L16.07 48l2.252-8.218a15.814 15.814 0 0 1-2.118-7.928C16.208 23.112 23.322 16 32.066 16a15.75 15.75 0 0 1 11.22 4.65 15.757 15.757 0 0 1 4.642 11.218c-.004 8.742-7.12 15.856-15.862 15.856M32 0C14.326 0 0 14.326 0 32c0 17.672 14.326 32 32 32 17.672 0 32-14.328 32-32C64 14.326 49.672 0 32 0" fill="currentColor" opacity="1" data-original="#67d449"/></g></g></symbol></svg>