<svg width="1810" height="105" viewBox="0 0 1810 105" fill="none" xmlns="http://www.w3.org/2000/svg">
<path d="M29.2871 94.5892C24.1893 94.5892 19.708 93.8456 15.843 92.3584C12.0114 90.8711 8.77946 88.9707 6.14729 86.6572C3.51512 84.3107 1.46602 81.865 0 79.3201L11.4949 71.3881C12.2946 73.0406 13.4274 74.6766 14.8934 76.296C16.3595 77.9155 18.3086 79.254 20.7409 80.3116C23.1731 81.3692 26.2218 81.898 29.8868 81.898C33.352 81.898 36.1341 81.4023 38.2332 80.4108C40.3655 79.4193 41.8982 78.1468 42.8311 76.5935C43.7974 75.0401 44.2805 73.4042 44.2805 71.6855C44.2805 69.4051 43.5975 67.6535 42.2314 66.4306C40.8986 65.2077 39.1661 64.365 37.0337 63.9023C34.9013 63.4065 32.6523 63.1256 30.2867 63.0595C27.9877 62.9934 26.3217 62.9438 25.2889 62.9108C24.2893 62.8777 23.6063 62.8612 23.2398 62.8612C22.9066 62.8612 22.59 62.8612 22.2902 62.8612V50.17C22.7233 50.17 23.3564 50.17 24.1893 50.17C25.0556 50.17 25.9219 50.17 26.7882 50.17C27.6878 50.1369 28.4208 50.1039 28.9872 50.0708C32.4857 49.9056 35.4011 49.1454 37.7334 47.7904C40.099 46.4353 41.2818 44.3201 41.2818 41.4448C41.2818 38.8008 40.2323 36.7021 38.1332 35.1487C36.0674 33.5954 33.2853 32.8187 29.7869 32.8187C26.4883 32.8187 23.5396 33.5293 20.9408 34.9504C18.3752 36.3385 16.4927 37.8754 15.2933 39.5609L5.99736 29.6459C8.49626 27.068 11.8448 24.8536 16.0429 23.0028C20.2411 21.152 24.9557 20.2266 30.1867 20.2266C33.352 20.2266 36.4506 20.6398 39.4826 21.466C42.5146 22.2592 45.2467 23.4986 47.679 25.1841C50.1112 26.8366 52.0437 28.9684 53.4764 31.5793C54.9425 34.1903 55.6755 37.3135 55.6755 40.949C55.6755 44.0227 55.1257 46.9311 54.0262 49.6742C52.9267 52.3843 51.344 54.6648 49.2783 56.5156C52.277 57.8376 54.5926 59.7545 56.2252 62.2663C57.8578 64.7781 58.6741 67.9178 58.6741 71.6855C58.6741 76.4117 57.3414 80.4934 54.6759 83.9306C52.0437 87.3348 48.4953 89.9622 44.0306 91.813C39.5992 93.6638 34.6847 94.5892 29.2871 94.5892Z" fill="#272727"/>
<path d="M64.6707 93.102L86.661 21.7139H106.952L128.942 93.102H114.949L95.3572 30.1416H97.9561L78.6646 93.102H64.6707ZM77.8649 78.2295V65.6374H115.848V78.2295H77.8649Z" fill="#272727"/>
<path d="M137.9 93.102V21.7139H184.879V34.306H151.494V93.102H137.9Z" fill="#272727"/>
<path d="M223.743 94.5892C216.546 94.5892 210.332 93.0359 205.101 89.9292C199.903 86.8225 195.888 82.4764 193.056 76.8909C190.258 71.3055 188.858 64.8111 188.858 57.4079C188.858 50.0047 190.258 43.5104 193.056 37.9249C195.888 32.3395 199.903 27.9934 205.101 24.8867C210.332 21.78 216.546 20.2266 223.743 20.2266C230.94 20.2266 237.137 21.78 242.335 24.8867C247.566 27.9934 251.581 32.3395 254.379 37.9249C257.211 43.5104 258.627 50.0047 258.627 57.4079C258.627 64.8111 257.211 71.3055 254.379 76.8909C251.581 82.4764 247.566 86.8225 242.335 89.9292C237.137 93.0359 230.94 94.5892 223.743 94.5892ZM223.743 81.898C228.307 81.9641 232.106 80.9891 235.138 78.9731C238.17 76.957 240.435 74.0982 241.935 70.3966C243.467 66.695 244.234 62.3654 244.234 57.4079C244.234 52.4504 243.467 48.1539 241.935 44.5184C240.435 40.8829 238.17 38.0571 235.138 36.0411C232.106 34.025 228.307 32.9839 223.743 32.9178C219.178 32.8517 215.38 33.8267 212.348 35.8428C209.316 37.8588 207.033 40.7177 205.501 44.4193C204.001 48.1209 203.252 52.4504 203.252 57.4079C203.252 62.3654 204.001 66.6619 205.501 70.2975C207.033 73.933 209.316 76.7587 212.348 78.7748C215.38 80.7908 219.178 81.8319 223.743 81.898Z" fill="#272727"/>
<path d="M268.604 93.102V21.7139H298.991C299.691 21.7139 300.624 21.7469 301.79 21.813C302.989 21.8461 304.055 21.9452 304.988 22.1105C309.286 22.7715 312.801 24.1761 315.534 26.3244C318.299 28.4726 320.332 31.1827 321.631 34.4547C322.93 37.6936 323.58 41.3126 323.58 45.3116C323.58 49.3107 322.914 52.9462 321.581 56.2181C320.282 59.457 318.249 62.1506 315.484 64.2989C312.751 66.4471 309.253 67.8517 304.988 68.5127C304.055 68.645 302.989 68.7441 301.79 68.8102C300.59 68.8763 299.657 68.9093 298.991 68.9093H282.198V93.102H268.604ZM282.198 56.3173H298.391C299.091 56.3173 299.857 56.2842 300.69 56.2181C301.523 56.152 302.289 56.0198 302.989 55.8215C304.822 55.3258 306.238 54.4995 307.237 53.3428C308.237 52.153 308.92 50.8475 309.286 49.4263C309.686 47.9721 309.886 46.6006 309.886 45.3116C309.886 44.0227 309.686 42.6676 309.286 41.2465C308.92 39.7923 308.237 38.4868 307.237 37.33C306.238 36.1402 304.822 35.2975 302.989 34.8017C302.289 34.6034 301.523 34.4712 300.69 34.4051C299.857 34.339 299.091 34.306 298.391 34.306H282.198V56.3173Z" fill="#272727"/>
<path d="M364.501 94.5892C357.304 94.5892 351.09 93.0359 345.859 89.9292C340.662 86.8225 336.647 82.4764 333.815 76.8909C331.016 71.3055 329.616 64.8111 329.616 57.4079C329.616 50.0047 331.016 43.5104 333.815 37.9249C336.647 32.3395 340.662 27.9934 345.859 24.8867C351.09 21.78 357.304 20.2266 364.501 20.2266C371.698 20.2266 377.895 21.78 383.093 24.8867C388.324 27.9934 392.339 32.3395 395.138 37.9249C397.97 43.5104 399.386 50.0047 399.386 57.4079C399.386 64.8111 397.97 71.3055 395.138 76.8909C392.339 82.4764 388.324 86.8225 383.093 89.9292C377.895 93.0359 371.698 94.5892 364.501 94.5892ZM364.501 81.898C369.066 81.9641 372.864 80.9891 375.896 78.9731C378.928 76.957 381.194 74.0982 382.693 70.3966C384.226 66.695 384.992 62.3654 384.992 57.4079C384.992 52.4504 384.226 48.1539 382.693 44.5184C381.194 40.8829 378.928 38.0571 375.896 36.0411C372.864 34.025 369.066 32.9839 364.501 32.9178C359.936 32.8517 356.138 33.8267 353.106 35.8428C350.074 37.8588 347.792 40.7177 346.259 44.4193C344.76 48.1209 344.01 52.4504 344.01 57.4079C344.01 62.3654 344.76 66.6619 346.259 70.2975C347.792 73.933 350.074 76.7587 353.106 78.7748C356.138 80.7908 359.936 81.8319 364.501 81.898Z" fill="#272727"/>
<path d="M403.412 105V80.5099C405.578 80.5099 407.41 79.9811 408.91 78.9235C410.442 77.8329 411.692 76.3126 412.658 74.3626C413.624 72.3796 414.391 70.0661 414.957 67.4221C415.523 64.7781 415.94 61.9027 416.206 58.796C416.54 54.83 416.84 50.9301 417.106 47.0963C417.373 43.2295 417.639 39.2304 417.906 35.0991C418.172 30.9348 418.472 26.44 418.805 21.6147L466.584 21.7139V80.5099H472.082V105H458.488V93.102H417.006V105H403.412ZM423.703 80.5099H452.99V34.306L431.2 34.2068C430.967 37.4788 430.767 40.4863 430.6 43.2295C430.467 45.9726 430.3 48.7488 430.1 51.5581C429.9 54.3673 429.634 57.5071 429.301 60.9773C428.967 64.4476 428.634 67.3064 428.301 69.5538C427.968 71.7682 427.451 73.7016 426.752 75.3541C426.085 77.0066 425.069 78.7252 423.703 80.5099Z" fill="#272727"/>
<path d="M483.061 93.102V21.7139H496.655V51.0623H528.84V21.7139H542.434V93.102H528.84V63.6544H496.655V93.102H483.061Z" fill="#272727"/>
<path d="M556.366 93.102V21.7139H569.96V45.9065H586.752C587.419 45.9065 588.352 45.9396 589.551 46.0057C590.751 46.0387 591.817 46.1379 592.75 46.3031C597.015 46.9641 600.513 48.3687 603.245 50.517C606.011 52.6652 608.043 55.3754 609.342 58.6473C610.675 61.8862 611.342 65.5052 611.342 69.5042C611.342 73.5033 610.692 77.1388 609.392 80.4108C608.093 83.6497 606.06 86.3432 603.295 88.4915C600.563 90.6398 597.048 92.0444 592.75 92.7054C591.817 92.8376 590.751 92.9367 589.551 93.0028C588.385 93.0689 587.452 93.102 586.752 93.102H556.366ZM569.96 80.5099H586.153C586.852 80.5099 587.619 80.4769 588.452 80.4108C589.285 80.3447 590.051 80.2125 590.751 80.0142C592.583 79.5184 593.999 78.6922 594.999 77.5354C595.998 76.3456 596.681 75.0401 597.048 73.619C597.448 72.1648 597.648 70.7932 597.648 69.5042C597.648 68.2153 597.448 66.8602 597.048 65.4391C596.681 63.9849 595.998 62.6794 594.999 61.5227C593.999 60.3329 592.583 59.4901 590.751 58.9943C590.051 58.796 589.285 58.6638 588.452 58.5977C587.619 58.5316 586.852 58.4986 586.153 58.4986H569.96V80.5099ZM618.538 93.102V21.7139H632.132V93.102H618.538Z" fill="#272727"/>
<path d="M646.172 93.102V21.7139H659.966V69.306L691.252 21.7139H705.046V93.102H691.252V45.5099L659.966 93.102H646.172ZM675.359 15.7649C672.427 15.7649 669.762 15.0543 667.363 13.6331C664.964 12.212 663.048 10.3116 661.615 7.93201C660.183 5.55241 659.466 2.90841 659.466 0H669.962C669.962 1.48725 670.478 2.75968 671.511 3.81728C672.577 4.84183 673.86 5.35411 675.359 5.35411C676.859 5.35411 678.125 4.84183 679.158 3.81728C680.224 2.75968 680.757 1.48725 680.757 0H691.252C691.252 2.90841 690.536 5.55241 689.103 7.93201C687.671 10.3116 685.755 12.212 683.356 13.6331C680.957 15.0543 678.291 15.7649 675.359 15.7649Z" fill="#272727"/>
<path d="M739.002 93.102V21.7139H752.596V54.6317L779.984 21.7139H796.577L766.49 56.9122L798.476 93.102H781.284L752.596 60.5807V93.102H739.002Z" fill="#272727"/>
<path d="M832.361 94.5892C825.165 94.5892 818.951 93.0359 813.72 89.9292C808.522 86.8225 804.507 82.4764 801.675 76.8909C798.876 71.3055 797.477 64.8111 797.477 57.4079C797.477 50.0047 798.876 43.5104 801.675 37.9249C804.507 32.3395 808.522 27.9934 813.72 24.8867C818.951 21.78 825.165 20.2266 832.361 20.2266C839.558 20.2266 845.755 21.78 850.953 24.8867C856.184 27.9934 860.199 32.3395 862.998 37.9249C865.83 43.5104 867.246 50.0047 867.246 57.4079C867.246 64.8111 865.83 71.3055 862.998 76.8909C860.199 82.4764 856.184 86.8225 850.953 89.9292C845.755 93.0359 839.558 94.5892 832.361 94.5892ZM832.361 81.898C836.926 81.9641 840.724 80.9891 843.756 78.9731C846.788 76.957 849.054 74.0982 850.553 70.3966C852.086 66.695 852.852 62.3654 852.852 57.4079C852.852 52.4504 852.086 48.1539 850.553 44.5184C849.054 40.8829 846.788 38.0571 843.756 36.0411C840.724 34.025 836.926 32.9839 832.361 32.9178C827.797 32.8517 823.998 33.8267 820.966 35.8428C817.934 37.8588 815.652 40.7177 814.119 44.4193C812.62 48.1209 811.87 52.4504 811.87 57.4079C811.87 62.3654 812.62 66.6619 814.119 70.2975C815.652 73.933 817.934 76.7587 820.966 78.7748C823.998 80.7908 827.797 81.8319 832.361 81.898Z" fill="#272727"/>
<path d="M877.223 93.102V21.7139H889.417L913.207 69.1077L936.996 21.7139H949.191V93.102H936.497V50.4674L915.606 93.102H910.808L889.917 50.4674V93.102H877.223Z" fill="#272727"/>
<path d="M963.22 93.102V21.7139H1022.59V93.102H1009V34.306H976.814V93.102H963.22Z" fill="#272727"/>
<path d="M1031.63 93.102V81.898C1033.16 81.9972 1034.46 81.865 1035.53 81.5014C1036.59 81.1379 1037.49 80.4769 1038.22 79.5184C1038.99 78.5269 1039.66 77.1719 1040.22 75.4533C1040.79 73.7016 1041.32 71.5203 1041.82 68.9093C1042.62 64.7781 1043.29 60.432 1043.82 55.8711C1044.39 51.2771 1044.85 46.7823 1045.22 42.3867C1045.59 37.991 1045.87 33.992 1046.07 30.3895C1046.27 26.754 1046.42 23.8621 1046.52 21.7139H1095.6V93.102H1082.01V34.306H1059.02C1058.88 36.1568 1058.7 38.5694 1058.47 41.5439C1058.27 44.5184 1057.98 47.8069 1057.62 51.4094C1057.25 55.0118 1056.8 58.7465 1056.27 62.6133C1055.73 66.4802 1055.08 70.2314 1054.32 73.8669C1053.62 77.4032 1052.77 80.543 1051.77 83.2861C1050.77 85.9962 1049.44 88.2271 1047.77 89.9788C1046.14 91.6974 1044.02 92.8376 1041.42 93.3994C1038.82 93.9613 1035.56 93.8621 1031.63 93.102Z" fill="#272727"/>
<path d="M1109.64 93.102V21.7139H1156.62V34.306H1123.23V49.5751H1150.62V62.1671H1123.23V80.5099H1156.62V93.102H1109.64Z" fill="#272727"/>
<path d="M1168.6 93.102V21.7139H1182.19V54.6317L1209.58 21.7139H1226.17L1196.09 56.9122L1228.07 93.102H1210.88L1182.19 60.5807V93.102H1168.6Z" fill="#272727"/>
<path d="M1261.96 94.5892C1254.76 94.5892 1248.55 93.0359 1243.32 89.9292C1238.12 86.8225 1234.1 82.4764 1231.27 76.8909C1228.47 71.3055 1227.07 64.8111 1227.07 57.4079C1227.07 50.0047 1228.47 43.5104 1231.27 37.9249C1234.1 32.3395 1238.12 27.9934 1243.32 24.8867C1248.55 21.78 1254.76 20.2266 1261.96 20.2266C1270.22 20.2266 1277.15 22.2592 1282.75 26.3244C1288.38 30.3895 1292.34 35.8924 1294.64 42.8329L1280.95 46.6006C1279.62 42.271 1277.37 38.9164 1274.2 36.5368C1271.04 34.1242 1266.95 32.9178 1261.96 32.9178C1257.39 32.9178 1253.58 33.9259 1250.51 35.9419C1247.48 37.958 1245.2 40.8003 1243.67 44.4688C1242.13 48.1374 1241.37 52.4504 1241.37 57.4079C1241.37 62.3654 1242.13 66.6785 1243.67 70.347C1245.2 74.0156 1247.48 76.8579 1250.51 78.8739C1253.58 80.89 1257.39 81.898 1261.96 81.898C1266.95 81.898 1271.04 80.6917 1274.2 78.279C1277.37 75.8664 1279.62 72.5118 1280.95 68.2153L1294.64 71.983C1292.34 78.9235 1288.38 84.4263 1282.75 88.4915C1277.15 92.5567 1270.22 94.5892 1261.96 94.5892Z" fill="#272727"/>
<path d="M1358.34 21.7139L1357.54 27.3654C1355.94 27.2332 1354.65 27.4976 1353.65 28.1586C1352.65 28.7866 1351.95 29.712 1351.55 30.9348C1351.18 32.1246 1351.11 33.5127 1351.35 35.0991H1358.34V48.5836H1344.75V35.0991C1344.75 30.3399 1345.87 26.7375 1348.1 24.2918C1350.33 21.813 1353.75 20.9537 1358.34 21.7139ZM1340.25 21.7139L1339.45 27.3654C1337.85 27.2332 1336.55 27.4976 1335.55 28.1586C1334.55 28.7866 1333.85 29.712 1333.45 30.9348C1333.09 32.1246 1333.02 33.5127 1333.25 35.0991H1340.25V48.5836H1326.66V35.0991C1326.66 30.3399 1327.77 26.7375 1330.01 24.2918C1332.24 21.813 1335.65 20.9537 1340.25 21.7139Z" fill="#272727"/>
<path d="M1373.29 93.102V21.7139H1386.89V80.5099H1407.48V21.7139H1421.07V80.5099H1441.66V21.7139H1455.26V93.102H1373.29Z" fill="#272727"/>
<path d="M1528.12 93.102H1514.33V45.5099L1483.04 93.102H1469.25V21.7139H1483.04V69.306L1514.33 21.7139H1528.12V93.102Z" fill="#272727"/>
<path d="M1542.07 93.102V21.7139H1555.66V80.5099H1576.25V21.7139H1589.85V80.5099H1610.44V21.7139H1624.03V93.102H1542.07Z" fill="#272727"/>
<path d="M1638.02 93.102V21.7139H1651.61V54.6317L1679 21.7139H1695.59L1665.51 56.9122L1697.49 93.102H1680.3L1651.61 60.5807V93.102H1638.02Z" fill="#272727"/>
<path d="M1763.37 93.102H1749.58V45.5099L1718.29 93.102H1704.49V21.7139H1718.29V69.306L1749.58 21.7139H1763.37V93.102Z" fill="#272727"/>
<path d="M1778.31 48.5836L1779.11 42.932C1780.71 43.0642 1782.01 42.8163 1783.01 42.1884C1784.01 41.5274 1784.69 40.602 1785.06 39.4122C1785.46 38.1893 1785.54 36.7847 1785.31 35.1983H1778.31V21.7139H1791.91V35.1983C1791.91 39.9575 1790.79 43.56 1788.56 46.0057C1786.33 48.4514 1782.91 49.3107 1778.31 48.5836ZM1796.41 48.5836L1797.21 42.932C1798.81 43.0642 1800.1 42.8163 1801.1 42.1884C1802.1 41.5274 1802.79 40.602 1803.15 39.4122C1803.55 38.1893 1803.64 36.7847 1803.4 35.1983H1796.41V21.7139H1810V35.1983C1810 39.9575 1808.88 43.56 1806.65 46.0057C1804.42 48.4514 1801 49.3107 1796.41 48.5836Z" fill="#272727"/>
</svg>
