<svg width="146" height="104" viewBox="0 0 146 104" fill="none" xmlns="http://www.w3.org/2000/svg">
<path fill-rule="evenodd" clip-rule="evenodd" d="M70.1246 59.4665C70.1508 59.4824 70.1767 59.4988 70.2029 59.5146L70.2018 59.5154C70.1756 59.4995 70.1505 59.4829 70.1246 59.4665ZM45.0463 38.3455L45.0599 38.3435L45.0876 38.4387L45.0463 38.3455ZM50.7364 49.3747C51.7255 47.775 52.5195 46.0177 52.4465 44.106C52.4358 43.8297 52.0155 43.8511 52.0176 44.1255C52.0338 46.0722 51.0577 47.6615 50.1331 49.2964C49.6333 49.2337 49.1335 49.174 48.6331 49.1171C49.2015 48.438 49.7006 47.7088 50.0583 46.8919C50.5451 45.7803 50.5444 44.4773 50.6614 43.2896C50.6879 43.0164 50.277 42.9137 50.2338 43.1966C50.087 44.1524 49.9692 45.1156 49.7199 46.052C49.4111 47.2114 48.5818 48.1288 47.8112 49.0242C47.4949 48.9887 47.1783 48.9523 46.8618 48.9163C47.5252 48.2054 48.1057 47.4202 48.5128 46.5345C49.1009 45.2545 49.1197 43.6947 49.3497 42.3266C49.3917 42.0759 49.0153 41.9911 48.9618 42.2423C48.6809 43.5621 48.4716 44.9996 47.9535 46.2507C47.6121 47.0741 47.0083 47.7381 46.3825 48.3715C47.149 46.7205 47.6545 44.9404 48.2168 43.2207C48.9607 40.9441 49.648 38.6514 50.1986 36.321C50.9436 33.1663 51.388 29.904 51.3484 26.6553C51.7214 28.1206 52.1778 29.5213 52.5208 30.7169C54.2572 36.7662 56.3806 42.9482 55.243 49.3114C54.5947 49.4968 53.9476 49.5771 53.2916 49.5869C53.9991 48.2249 54.2958 46.6996 54.1975 45.161C54.1801 44.8917 53.765 44.9103 53.7773 45.1798C53.8497 46.7549 53.4736 48.217 52.7203 49.5792C52.2041 49.5581 51.6799 49.5017 51.1422 49.4272C51.007 49.4087 50.872 49.3927 50.7364 49.3747ZM56.5208 59.7634C56.5964 60.0326 56.9771 59.8929 56.9265 59.6322C56.841 59.1951 56.7042 58.7597 56.5325 58.3282C56.5531 58.2894 56.558 58.2428 56.5348 58.1925C56.4222 57.9448 56.3065 57.6934 56.1883 57.4408C56.2199 57.3964 56.2331 57.3412 56.2065 57.2816C55.8646 56.5074 55.4545 55.785 54.9842 55.1115C54.812 54.8196 54.6333 54.532 54.444 54.2529C54.7723 54.5802 55.083 54.9289 55.3708 55.304C57.5916 58.1935 57.92 62.1217 57.2412 65.6693C56.8842 61.8652 55.6404 58.22 53.6022 55.0364C54.8229 56.4788 56.0262 58.0035 56.5208 59.7634ZM49.1326 37.0724C49.189 36.9555 49.2434 36.8379 49.2957 36.7188C49.263 36.8407 49.2298 36.9623 49.1961 37.0836L49.1326 37.0724ZM65.7876 72.8281L65.7664 72.8399C65.7231 72.708 65.6801 72.577 65.6366 72.446C65.6872 72.5733 65.7382 72.7005 65.7876 72.8281ZM67.6506 58.009C67.4359 58.1124 67.2923 58.369 67.4629 58.6238L67.5008 58.6825C67.4725 58.8096 67.4437 58.9364 67.416 59.0638C67.3882 59.1093 67.3742 59.1664 67.3782 59.2344C67.2423 59.8598 67.1081 60.4856 66.9715 61.1099C66.7664 62.0436 66.5666 62.978 66.3673 63.9123C66.2783 63.9268 66.1967 63.9841 66.1676 64.0973C65.7137 65.8782 63.8716 66.3282 62.2633 66.4939C62.0025 66.5208 62.0168 66.9214 62.281 66.9009C63.6347 66.7953 65.1626 66.4699 66.0361 65.4637C65.6978 67.0421 65.354 68.6195 64.983 70.1911C64.9511 70.3251 64.9163 70.4582 64.8844 70.5923C63.7381 71.2569 62.3827 71.3024 61.1964 70.6214C60.9786 70.4967 60.8132 70.8339 61.0204 70.9636C62.1415 71.6662 63.557 71.7573 64.734 71.2071C64.5256 72.0599 64.3103 72.9108 64.0881 73.7597C63.1911 74.1294 62.2008 74.1491 61.2855 73.7565C61.0594 73.6596 60.8846 73.9886 61.1095 74.0986C62.013 74.5405 63.0096 74.6287 63.9363 74.3412C63.899 74.4823 63.864 74.624 63.8258 74.7648C63.4474 76.179 63.2095 78.1504 62.0374 79.1567C59.6724 81.1864 57.1175 74.3838 56.8037 72.9753L56.798 72.9483L56.7918 72.9129C56.588 71.7224 56.6473 70.7156 57.0583 69.5039C57.1292 69.2961 57.1916 69.0915 57.2398 68.8887C57.856 67.5985 58.8963 66.4815 60.145 65.4739C62.2662 63.7618 64.2937 62.0079 66.0481 59.9112C66.5974 59.2544 67.1693 58.5317 67.7043 57.768C67.6855 57.8482 67.669 57.929 67.6506 58.009ZM66.5239 66.7927C66.3896 67.3896 66.2559 67.9871 66.1334 68.5862C66.2079 67.9853 66.3566 67.3849 66.5239 66.7927ZM71.9894 41.1423C73.0474 37.7445 74.3447 34.3073 74.6551 30.7406C75.2657 23.7236 72.7482 16.9386 72.639 9.94887C72.6185 8.64529 72.5315 7.17315 74.2252 7.03183C74.2808 7.02688 74.3364 7.02962 74.3922 7.02846C74.47 7.07201 74.552 7.06797 74.6196 7.03331C75.354 7.08479 76.0875 7.42002 76.727 7.72294C78.2458 8.44232 79.4856 9.65012 80.4707 10.9858C82.4504 13.6713 83.0726 17.0223 82.88 20.2926C82.4751 27.1579 78.4335 33.1026 75.5851 39.2187C76.1235 37.4991 76.5898 35.7574 76.9839 34.0035C77.0438 33.7381 76.6433 33.6548 76.5736 33.9142C75.7566 36.9491 74.7344 39.9006 73.5708 42.808C74.1899 41.0187 74.7991 39.2261 75.3868 37.4269C75.4635 37.1916 75.0694 37.0515 74.9784 37.2814C74.2604 39.0896 73.5676 40.9072 72.8784 42.7268C72.5081 43.7047 72.1809 44.7025 71.72 45.6281C72.8606 43.0884 73.6657 40.3646 74.2975 37.7132C74.3546 37.4738 73.9926 37.3995 73.9264 37.6324C73.0191 40.8399 71.6654 43.7745 70.2156 46.7221L70.1757 46.692C70.7892 44.8445 71.41 43.0018 71.9894 41.1423ZM76.3934 27.7969C76.3876 28.0061 76.7056 27.9867 76.7159 27.7827C76.7605 26.8996 76.7381 26.016 76.6842 25.1342C76.6739 24.9618 76.4114 24.9742 76.416 25.1464C76.4376 26.0306 76.4186 26.9132 76.3934 27.7969ZM77.8998 28.816C77.8585 29.0208 78.1685 29.088 78.2168 28.8851C78.517 27.6299 78.6364 26.3385 78.5979 25.0505C78.593 24.874 78.3291 24.8894 78.326 25.0629C78.2993 26.332 78.1495 27.5717 77.8998 28.816ZM75.9164 21.7756C75.895 21.9592 76.1789 22.0215 76.1997 21.8372C76.2766 21.1542 76.2713 20.4744 76.1859 19.7926C76.1655 19.6302 75.9119 19.6393 75.929 19.8039C75.9991 20.4622 75.9939 21.118 75.9164 21.7756ZM78.5142 23.0995C78.501 23.3129 78.8281 23.2922 78.8447 23.0848C78.9562 21.6825 78.8446 20.301 78.547 18.9282C78.5022 18.7217 78.1913 18.8253 78.2341 19.0293C78.519 20.3759 78.599 21.7267 78.5142 23.0995ZM67.1895 74.1562C67.1415 74.0197 67.0909 73.8843 67.0413 73.7482L67.0602 73.7908L67.1005 73.8458C67.1305 73.9494 67.16 74.053 67.1895 74.1562ZM65.6901 70.5096C65.6664 70.459 65.6431 70.4082 65.6189 70.3573L65.6272 70.3217C65.6485 70.3841 65.6692 70.4471 65.6901 70.5096ZM31.3012 20.8943C30.6489 18.8483 29.7611 16.6816 29.7402 14.5102C29.8337 13.9633 29.9917 13.4282 30.221 12.889C30.2861 12.7587 30.3585 12.6366 30.4319 12.5147C31.0282 11.7338 31.8313 11.0691 32.6949 10.4501C32.7375 10.4193 32.7809 10.39 32.8241 10.3603C34.0528 9.78276 35.486 9.62985 36.8748 9.89151C37.4369 10.1478 37.9729 10.458 38.6252 10.5208C38.6665 10.5245 38.7044 10.5222 38.7415 10.5168C41.3006 11.798 42.9395 14.5181 43.8364 17.1372C45.775 22.7992 45.4055 29.3769 43.7401 35.0963C43.6191 35.0595 43.4974 35.0373 43.3767 35.0263C42.932 33.3832 42.8336 31.733 43.1149 30.0239C43.1595 29.7529 42.757 29.662 42.6959 29.9324C42.3081 31.6513 42.3216 33.3921 42.7575 35.0802C42.6661 35.1043 42.5775 35.1362 42.4908 35.1731C41.4702 33.3905 41.0263 31.5178 41.133 29.4501C41.1456 29.2092 40.7478 29.178 40.712 29.4141C40.3883 31.5607 40.7949 33.7001 41.8907 35.5679C41.6847 35.7627 41.5171 35.999 41.4075 36.2642C40.2165 35.3918 39.8954 33.7197 39.5348 32.3721C39.2887 31.4532 39.1249 30.5614 39.1552 29.6617C39.2102 29.4254 39.2666 29.1897 39.3232 28.9546C39.7337 27.2593 40.114 25.5884 40.1979 23.842C40.2949 21.814 39.9857 19.7745 39.6899 17.7758C39.64 17.4411 39.1109 17.4589 39.1563 17.7995C39.4263 19.8164 39.6907 21.8267 39.644 23.8665C39.6092 25.4146 39.2573 26.92 38.8831 28.4187C38.8227 28.6053 38.7756 28.7938 38.7414 28.9838C38.6157 29.485 38.4916 29.9861 38.3804 30.4884C37.6965 33.5688 37.8366 37.5399 39.9104 40.1417C39.7454 41.3949 39.292 42.6492 38.6906 43.7644C38.4881 42.4875 37.9322 41.105 37.5358 40.0656C36.6535 36.5098 35.256 33.0234 34.1225 29.6316C33.1523 26.7286 32.2314 23.8095 31.3012 20.8943ZM37.2088 25.4776C37.1961 25.7514 37.6227 25.7296 37.6343 25.4583C37.7316 23.2022 37.3698 21.0355 36.5376 18.9376C36.4456 18.7057 36.0745 18.8227 36.1649 19.0581C36.9582 21.1249 37.3085 23.2652 37.2088 25.4776ZM35.6392 27.4625C35.6592 27.7145 36.0478 27.698 36.0331 27.4449C35.9139 25.3656 35.5 23.3594 34.8123 21.3939C34.7198 21.1288 34.3025 21.2632 34.3959 21.5284C35.0733 23.4533 35.4783 25.4278 35.6392 27.4625ZM38.7994 31.421L38.8125 31.5018L38.7857 31.5027L38.7994 31.421ZM38.6129 33.4269C38.6173 33.4713 38.6215 33.5149 38.6263 33.5592L38.6125 33.5621C38.6122 33.517 38.6128 33.4721 38.6129 33.4269ZM39.1349 10.1161C39.1602 9.97196 39.12 9.82646 38.9996 9.74465C40.2138 7.94335 40.764 5.79677 40.8282 3.63751C40.8301 3.5756 40.8086 3.53117 40.7757 3.50178C40.8587 2.97268 40.9764 2.45457 41.1386 1.93027C41.7784 -0.142686 43.7604 2.5558 44.1016 3.07013C45.1153 4.59839 45.9427 6.26279 46.7721 7.89421C48.4735 11.2418 50.0518 14.6047 51.6044 18.021C51.5674 18.13 51.5773 18.2386 51.6196 18.3323C50.8727 19.5466 50.6331 20.9927 50.6833 22.5133C50.6601 22.5444 50.6456 22.5837 50.6529 22.6358C50.6831 22.8561 50.7079 23.0757 50.732 23.2959C50.7446 23.4298 50.7578 23.5643 50.7735 23.699C50.7834 23.7994 50.7912 23.9 50.7997 24.0004C50.7458 24.0365 50.704 24.0922 50.6983 24.1718C50.4608 27.5946 49.9776 31.0253 49.1072 34.351C49.0086 34.3335 48.9031 34.3785 48.8717 34.5129C48.371 36.6404 47.6676 38.6399 46.6263 40.5189C46.4676 39.9535 46.2752 39.3977 46.0507 38.8544C47.2881 37.3188 47.6881 34.9306 47.9855 33.1003C48.0258 32.8497 47.648 32.7644 47.5976 33.016C47.268 34.6484 46.8338 36.7918 45.7787 38.236C45.6 37.8529 45.4051 37.4776 45.1944 37.1106C46.2519 35.4368 46.5064 33.6831 46.7051 31.6857C46.7298 31.4403 46.365 31.3467 46.3204 31.6019C46.0037 33.3931 45.7664 34.984 44.8603 36.5094C44.8154 36.4266 44.7679 36.3467 44.716 36.2726C44.6469 36.1746 44.5746 36.0887 44.5 36.0101C44.4705 35.9679 44.4424 35.9244 44.4125 35.8822L44.3822 35.8466C45.3957 32.5244 46 28.8152 45.9483 25.1444C46.9971 24.3017 47.4911 23.1992 47.9848 21.9863C48.1024 21.6984 47.7112 21.4923 47.5517 21.7661C47.244 22.2942 47.0467 22.861 46.6931 23.3684C46.4654 23.6953 46.2012 23.984 45.9217 24.2607C45.8696 23.0625 45.7445 21.8731 45.5395 20.7064C45.6043 20.7114 45.6722 20.6983 45.737 20.6564C46.6448 20.0722 47.0699 18.8729 47.0652 17.8421C47.064 17.585 46.6344 17.5424 46.6101 17.8035C46.52 18.7553 46.0484 19.3952 45.4145 20.0461C45.189 18.9421 44.8898 17.8617 44.5076 16.8176C45.2773 15.8734 45.6183 14.7048 45.5337 13.4945C45.5132 13.2013 45.0826 13.2242 45.079 13.5151C45.0673 14.4497 44.7523 15.3167 44.2138 16.0661C43.9794 15.4974 43.7209 14.9396 43.4337 14.3973C43.3325 14.2071 43.2243 14.0209 43.1111 13.8369L43.1262 13.8183C44.0315 12.4483 44.2048 10.7487 43.6693 9.21052C43.5729 8.93416 43.1786 9.0712 43.2415 9.34861C43.5466 10.6909 43.3185 11.992 42.6661 13.1731C42.2422 12.588 41.7582 12.0466 41.2226 11.5623L41.232 11.5482C41.9566 10.2382 42.0215 8.69174 41.694 7.25667C41.6396 7.01828 41.2296 7.09141 41.2671 7.33397C41.4707 8.66046 41.163 9.84561 40.5763 11.0242C40.1232 10.6789 39.6411 10.3736 39.1349 10.1161ZM19.3376 26.9466C19.1549 27.3754 19.0024 27.805 18.9372 28.2487C18.289 27.1181 18.1515 25.8695 18.2083 24.593C18.3213 24.4628 18.3593 24.2785 18.2357 24.1396C18.2689 23.7042 18.3187 23.2669 18.3744 22.8309C18.5994 21.0835 18.7246 19.3616 18.641 17.599C18.4786 14.1784 17.5221 10.8466 15.9685 7.80522C18.4535 6.70106 20.8824 8.11714 22.9985 9.37861C25.1452 10.6582 27.2729 11.9685 29.0428 13.7486L29.0565 13.7598C28.9864 14.0786 28.9454 14.4087 28.9443 14.7543C28.7675 14.4031 28.589 14.063 28.4199 13.7387C28.308 13.5246 27.9813 13.7007 28.0465 13.9178C28.5379 15.5533 29.4452 17.1856 29.547 18.9082C29.5665 19.2354 29.5142 19.5285 29.4144 19.7966L29.4107 19.7972C29.4227 19.7206 29.4329 19.6432 29.4363 19.563C29.5212 17.6918 28.522 16.1711 27.6629 14.5882C27.522 14.3291 27.1605 14.5817 27.2844 14.8365C27.7903 15.8754 28.2925 16.9196 28.5901 18.0397C28.9846 19.526 28.3448 20.3311 27.4483 21.0929C27.5301 20.9517 27.5985 20.8068 27.6476 20.6591C28.1711 19.0779 27.3985 17.694 26.4511 16.4558C26.268 16.2167 25.9181 16.4487 26.061 16.7119C26.7598 17.9979 27.6149 19.4846 26.5867 20.8549C26.1686 21.4115 25.5442 21.8117 24.9888 22.2575C25.1193 21.9729 25.2316 21.6848 25.3146 21.394C25.5996 20.3937 24.7412 19.2651 24.4787 18.349C24.3989 18.069 23.9169 18.1468 23.9641 18.4421C24.1128 19.3697 24.627 20.2558 24.4855 21.2136C24.4075 21.7392 23.8881 22.3418 23.6092 22.7871C23.4053 23.1118 23.203 23.439 23.0055 23.7683C22.8837 22.85 22.3587 21.9322 21.9137 21.1964C21.7819 20.9787 21.4133 21.1518 21.5065 21.3911C22.1556 23.0552 22.4915 24.4287 21.1988 25.9014C20.9224 26.216 20.6058 26.5497 20.2962 26.8998C20.3972 26.6343 20.4981 26.3685 20.5775 26.0979C20.8852 25.0521 20.5159 24.0757 20.0794 23.1338C19.9588 22.8742 19.5677 22.9852 19.6466 23.2741C20.0262 24.671 19.8926 25.6471 19.3376 26.9466ZM64.958 27.9329L64.9431 27.9348C64.9635 27.8602 64.9844 27.7863 65.0051 27.7116C64.9903 27.786 64.9735 27.8592 64.958 27.9329ZM54.6303 13.1512C54.3107 14.2257 53.7379 15.1818 53.0627 16.0644C53.3771 14.9725 53.3972 13.8007 53.3629 12.6658C53.3047 10.7552 53.0864 8.85554 52.7932 6.96861C52.8603 5.34869 52.6892 3.42587 53.3136 1.9245C54.4145 -0.721514 57.9749 2.96486 58.8102 4.00724C60.8374 6.53864 61.8443 9.85243 62.6462 12.9412C62.746 13.3254 62.8371 13.711 62.9247 14.0977C62.8834 14.8063 62.7458 15.5136 62.5459 16.1838C62.3588 15.9799 62.1569 15.7878 61.9387 15.6082C62.4022 14.8008 62.3465 13.558 62.4006 12.7567C62.4123 12.58 62.1223 12.5594 62.0933 12.7306C61.9425 13.6138 61.887 14.5041 61.4703 15.2637C61.1311 15.0502 60.7643 14.883 60.3838 14.752C61.3188 13.8189 61.6914 12.3816 61.4292 11.0605C61.5196 10.8926 61.3789 10.6283 61.1435 10.704C60.9142 10.7786 60.9463 11.064 61.1069 11.1553C61.3394 12.5937 60.7107 13.7436 59.6445 14.5462C59.4423 14.5021 59.2395 14.4654 59.0358 14.4374C60.0429 13.3308 60.2534 11.5413 59.6269 10.1576C59.5525 9.99328 59.284 10.0734 59.3545 10.2455C59.7318 11.1665 59.7111 12.1024 59.3187 13.0169C59.0602 13.6199 58.626 14.033 58.1207 14.3688C57.9167 14.3682 57.7138 14.3796 57.5113 14.3987C58.3096 13.2284 58.3489 11.6843 58.1721 10.1654C58.1467 9.94687 57.8414 9.96284 57.8323 10.1806C57.7921 11.1145 57.7321 12.0432 57.5721 12.9663C57.4465 13.6921 57.019 14.1361 56.5337 14.5641C56.2627 14.6304 55.9947 14.7107 55.7313 14.8078C56.0566 14.4274 56.3297 14.008 56.5046 13.5412C56.914 12.4507 56.8328 11.0016 56.6711 9.88028C56.6404 9.6674 56.3264 9.67339 56.3312 9.89503C56.3536 10.9389 56.275 12.041 56.0364 13.059C55.8233 13.9667 55.1011 14.5889 54.4225 15.194C54.7518 14.5896 55.0129 13.9475 55.2153 13.2784C55.5315 12.2338 55.8027 10.6997 55.2865 9.69208C55.2009 9.52445 54.9322 9.66175 54.9911 9.83367C55.3346 10.8317 54.9204 12.1729 54.6303 13.1512ZM52.1391 27.3633C51.4974 24.7897 50.5777 21.5962 51.803 19.0654C51.8707 18.9258 51.9448 18.7909 52.0242 18.6597C52.0741 18.6401 52.119 18.607 52.1512 18.5619C52.203 18.538 52.2534 18.5017 52.3007 18.4491C52.9275 17.7549 53.5908 17.1207 54.3107 16.5981C55.4609 16.0156 56.7967 15.7678 58.0547 15.8874C60.5031 16.1198 62.6136 17.7435 63.9616 19.704C65.794 22.3674 65.1117 25.2244 64.2451 28.0793C63.4057 30.8424 62.5882 33.6119 61.7788 36.3842C61.7554 36.4635 61.7589 36.5329 61.7788 36.5931C61.4553 37.424 61.0878 38.2273 60.6315 39.0126C60.437 39.3479 60.2255 39.673 60.0086 39.9939C61.2345 35.8903 61.7411 31.5393 61.4353 27.3329C61.4235 27.1673 61.1798 27.1797 61.1786 27.3446C61.1483 32.0332 60.4378 36.5064 59.0186 40.8605C59.0925 40.4456 59.1569 40.029 59.2114 39.6138C59.6269 36.4651 59.6668 33.205 59.6296 30.0358C59.6281 29.8938 59.3929 29.8697 59.378 30.0145C58.919 34.3768 59.1578 38.9873 57.7764 43.1414C57.8409 41.9655 57.7948 40.7751 57.7679 39.6097C57.6983 36.6058 57.8417 33.4597 56.7434 30.6113C56.6852 30.4609 56.4489 30.5348 56.5026 30.6893C57.3925 33.2639 57.2121 36.0138 57.2304 38.6979C57.2408 40.1781 57.2986 41.6702 57.1922 43.141C57.0427 39.5842 55.805 35.9848 54.6206 32.7612C54.5373 32.5346 54.1935 32.6446 54.2621 32.877C55.0568 35.5879 55.7623 38.3811 56.1073 41.1875C56.324 42.9462 56.2474 44.6284 55.9687 46.3107C56.1086 42.692 55.3777 39.0872 54.4349 35.5735C53.6979 32.828 52.8269 30.1217 52.1391 27.3633ZM63.1023 28.6057C63.0374 28.7743 63.2895 28.9042 63.3552 28.7336C63.7605 27.68 63.7906 26.5869 63.4281 25.5177C63.3759 25.364 63.1374 25.4411 63.1869 25.5959C63.5049 26.5915 63.4811 27.6275 63.1023 28.6057ZM61.1185 18.2628C61.0054 18.1419 60.8364 18.3339 60.9468 18.4542C62.1621 19.7795 62.7411 21.4128 62.7024 23.2028C62.6985 23.394 62.9917 23.3775 62.9982 23.1894C63.0633 21.3304 62.3852 19.618 61.1185 18.2628ZM61.1759 43.1646C60.284 45.7851 58.5023 47.434 56.4867 49.0776C60.038 42.0991 63.6855 35.1544 67.0487 28.0861C68.6344 24.7527 69.962 21.3418 70.7938 17.7428C71.4037 15.1024 71.3619 12.2755 71.9278 9.61823C71.9477 10.4696 72.0754 11.3501 72.1256 12.0658C72.2534 13.8832 72.526 15.69 72.8093 17.4889C73.3518 20.9294 73.8895 24.3896 73.9281 27.8811C73.9545 30.2339 73.5297 32.4823 72.9404 34.7073L72.9019 34.7685C71.9165 37.4597 71.0018 40.176 70.1209 42.9031C69.6709 44.2967 69.3528 45.8551 68.4724 47.0542C67.8508 47.9009 66.9677 48.5392 66.0689 49.1235L66.106 49.0588C66.6883 48.0008 66.7668 46.8006 67.2341 45.7122C67.3562 45.4282 66.9332 45.2077 66.8034 45.493C66.4301 46.314 66.2786 47.2165 65.9241 48.0503C65.6585 48.6758 65.3122 49.2068 64.8953 49.6894C64.4058 49.8085 63.8985 49.8941 63.3736 49.9436C63.1189 49.9675 62.8588 49.9839 62.5956 49.9957C64.1024 48.4414 65.2059 46.4717 65.5801 44.3471C65.624 44.0982 65.2809 44.0337 65.2039 44.2648C64.4487 46.533 63.3094 48.4452 61.5736 50.0107C61.0208 50.0035 60.4607 49.9739 59.9024 49.9195C61.832 48.1774 62.9095 45.4879 63.7091 43.1156C63.7812 42.9015 63.4176 42.7727 63.3358 42.983C62.2822 45.6796 61.0796 48.0017 58.8695 49.7897C58.3368 49.71 57.8127 49.6113 57.3075 49.4913C59.3371 47.9129 61.023 45.7232 61.5584 43.2477C61.613 42.9958 61.2552 42.9323 61.1759 43.1646ZM63.3978 17.1977L63.3896 17.2396L63.3718 17.2155L63.3978 17.1977ZM87.8432 40.8383L87.8235 40.848L87.8403 40.8357L87.8432 40.8383ZM99.8046 82.1054C98.7669 79.8432 97.8735 77.5114 97.1129 75.1424C96.7187 73.9114 96.3483 72.4885 95.8391 71.1409C95.8546 71.0894 95.855 71.0296 95.8295 70.9628C95.7038 70.6356 95.5507 70.3321 95.3797 70.0446C94.7474 68.6901 93.9087 67.5033 92.6699 66.7979C93.9279 66.8002 94.8609 66.9829 95.8047 67.9599C96.0113 68.1742 96.3035 67.834 96.1099 67.6191C95.3968 66.8264 94.6534 66.3515 93.5818 66.2019C92.6954 66.0785 91.833 66.12 90.969 66.0186C90.8652 65.6667 90.7328 65.323 90.5783 64.9857C91.827 65.0371 93.1773 64.5662 94.3436 65.1017C94.5563 65.2001 94.77 64.9163 94.5809 64.7569C93.5878 63.9174 92.1146 64.3038 90.9184 64.3208C90.6646 64.3244 90.4237 64.2909 90.1947 64.2285C89.7515 63.4209 89.2283 62.6383 88.76 61.8453C89.9757 62.2982 91.3897 62.4669 92.5782 62.6869C92.856 62.7381 92.9284 62.3538 92.6707 62.2694C91.6233 61.9248 90.5546 61.6496 89.491 61.3601C89.0736 61.2464 88.6665 61.1213 88.2688 60.9541C88.1203 60.6595 87.9863 60.3619 87.8733 60.059C89.1765 60.3853 90.5056 60.6402 91.8255 60.8269C92.0871 60.8642 92.1727 60.4938 91.914 60.4263C91.4177 60.2962 90.9214 60.1648 90.4248 60.0335C91.9835 60.3404 93.5487 60.6162 95.1228 60.863C96.4714 61.0747 98.138 61.515 99.629 61.4009C100.432 61.8335 101.096 62.6034 101.704 63.238C102.796 64.3755 103.648 65.6522 104.161 67.1451C104.218 67.3135 104.452 67.2284 104.418 67.062C104.053 65.2637 102.977 63.8545 101.735 62.5469C101.321 62.1101 100.88 61.6511 100.39 61.2854C100.648 61.2245 100.899 61.142 101.137 61.0297L101.221 61.0734C102.744 61.6607 104.059 62.5479 105.138 63.6908C106.35 65.391 107.044 67.2547 107.156 69.3893C107.283 71.8174 106.184 74.1379 105.333 76.3529C104.575 78.327 103.923 80.3517 102.722 82.1135C102.01 83.1584 101.335 84.3137 101.584 85.5038C100.775 84.4205 100.193 82.9529 99.8046 82.1054ZM95.0527 61.4001C94.7326 61.3698 94.6101 61.839 94.942 61.8984C96.7931 62.2313 99.4862 62.4988 100.209 64.5431C100.259 64.6838 100.502 64.6529 100.478 64.4942C100.142 62.2245 96.9409 61.5788 95.0527 61.4001ZM101.879 69.9436C102.03 68.7047 101.788 67.5045 101.144 66.4326C101.012 66.2138 100.702 66.4288 100.815 66.648C101.349 67.6765 101.608 68.7594 101.587 69.919C101.584 70.0851 101.859 70.1099 101.879 69.9436ZM109.763 72.4956C109.756 72.5431 109.752 72.5911 109.744 72.638C109.72 72.5069 109.695 72.3764 109.67 72.2456C109.701 72.3288 109.732 72.4124 109.763 72.4956ZM89.9111 65.4739L89.9254 65.47C89.9912 65.5979 90.0542 65.7269 90.1145 65.8567L90.072 65.8453C90.0204 65.7208 89.9654 65.5977 89.9111 65.4739ZM95.6232 72.4805L95.6396 72.5314L95.6168 72.4899L95.6232 72.4805ZM109.945 70.1823L109.936 70.2328L109.896 70.1688L109.945 70.1823ZM112.775 66.638C112.714 66.6346 112.653 66.6315 112.592 66.6281L112.503 66.5962C112.602 66.6111 112.693 66.625 112.775 66.638ZM114.957 66.1842L114.924 66.1924L114.856 66.1791L114.957 66.1842ZM108.371 53.9469C110.41 53.2799 112.334 52.2157 114.184 51.1656C116.504 49.848 118.827 48.5046 121.08 47.0751L121.133 47.0256C121.735 46.7266 122.341 46.4371 122.962 46.1751C124.078 45.7042 126.728 44.952 128.726 45.1437L128.707 45.1483C127.509 45.4874 126.887 46.93 126.533 47.9782C125.862 49.9626 125.207 51.9521 124.543 53.9389C123.288 57.6898 121.573 61.1645 117.603 62.5981C114.923 63.5658 111.496 62.2125 108.96 63.4184C110.18 62.7811 111.84 62.4738 112.89 62.1778C114.491 61.7262 116.093 61.3017 117.546 60.4703C117.743 60.3577 117.58 60.0111 117.372 60.1092C115.462 61.0117 113.452 61.4723 111.417 61.9983C110.301 62.2867 108.259 62.7025 107.385 63.7337C107.03 63.3343 106.629 62.98 106.197 62.6588C107.18 62.5968 108.108 62.1558 109.211 61.6395C111.406 60.6111 113.614 59.6729 116.036 59.3511C116.303 59.3157 116.294 58.9091 116.018 58.9297C114.165 59.0699 112.426 59.6358 110.704 60.3141C109.852 60.6499 109.004 60.9974 108.155 61.3429C107.737 61.5127 107.319 61.6772 106.896 61.8328C106.424 62.0069 106.003 61.9963 105.59 61.9003C106.247 61.7945 106.908 61.5866 107.557 61.3185C110.331 60.1748 112.78 58.5872 115.796 58.0952C116.046 58.0542 116.043 57.6705 115.779 57.694C113.717 57.8753 111.798 58.5588 109.916 59.3943C108.271 60.1245 106.29 61.3668 104.422 61.2308C106.186 60.0233 107.939 58.7818 109.78 57.7019C110.959 57.0112 112.197 56.613 113.524 56.3389C114.687 56.0987 115.772 55.8512 116.763 55.1746C116.988 55.0206 116.763 54.6796 116.53 54.8227C114.52 56.0573 111.938 55.8137 109.816 56.9098C107.819 57.9415 105.952 59.2409 104.08 60.4942C104.578 59.9148 104.914 59.1006 105.093 58.4917C106.322 57.2571 107.805 56.4195 109.659 55.7883C112.145 54.9417 114.562 54.2026 116.788 52.7653C117.011 52.6223 116.793 52.3024 116.566 52.4278C115.295 53.1307 114.005 53.7467 112.636 54.2351C111.146 54.7659 109.586 55.0689 108.097 55.6091C107.193 55.9374 106.328 56.4016 105.546 56.9777C105.67 56.6595 105.827 56.3498 106.057 56.0448C106.354 55.6517 106.725 55.334 107.117 55.041C107.207 55.0094 107.299 54.98 107.393 54.9516C108.713 54.5617 110.066 54.3435 111.379 53.9102C113.736 53.132 116.011 51.9956 118.037 50.5642C118.245 50.417 118.035 50.0953 117.818 50.2341C115.198 51.9142 112.448 53.1372 109.409 53.8357C109.074 53.9126 108.719 53.9692 108.358 54.0262L108.371 53.9469ZM102.018 60.4568L102.003 60.4857L101.962 60.4733C102 60.4377 102.039 60.4028 102.076 60.365L102.018 60.4568ZM127.666 47.1736C127.947 46.5675 128.377 46.1815 128.853 45.979C129.739 45.8682 130.611 45.7691 131.048 46.7713C131.113 46.9215 131.163 47.0805 131.206 47.2424C131.209 47.3025 131.214 47.3603 131.213 47.4237C131.212 47.5135 131.244 47.5863 131.294 47.6429C131.382 48.1591 131.4 48.7007 131.438 49.1958L131.446 49.2249C131.093 50.4441 130.452 51.4384 129.139 52.0565C128.035 52.5755 126.798 52.8983 125.612 53.2592C125.638 53.1771 125.664 53.0953 125.69 53.0129C126.208 52.6859 126.67 52.2884 127.142 51.8998C127.404 51.6837 127.677 51.4835 127.962 51.2983C128.302 51.0766 128.706 51.0142 129.044 50.8085C128.967 50.8555 129.043 50.9666 129.121 50.9244L129.156 50.9044L129.188 50.8429L129.182 50.7955L129.126 50.729C128.597 50.6142 127.926 51.0624 127.504 51.3354C126.912 51.7188 126.391 52.2007 125.817 52.6115C125.883 52.4033 125.949 52.1951 126.016 51.9879C126.094 51.7481 126.169 51.5058 126.244 51.2629C126.841 50.3384 127.657 49.7007 128.749 49.4069C128.84 49.3825 128.793 49.2541 128.705 49.2717C127.839 49.445 127.043 49.8963 126.462 50.5489C126.56 50.2286 126.658 49.9086 126.759 49.5893C127.267 48.9131 127.888 48.371 128.679 48.0053C128.763 47.9667 128.724 47.8304 128.634 47.8659C128.009 48.1132 127.439 48.4734 126.972 48.9399C127.177 48.3379 127.401 47.7447 127.666 47.1736ZM33.5371 33.9828C34.0596 36.363 34.3048 38.7644 34.5723 41.1814C34.7942 43.1807 35.2202 45.1602 36.4 46.8136C36.0257 47.3847 35.5813 47.914 35.096 48.4144C34.0589 46.4364 33.7709 44.2376 33.6321 42.0076C33.479 39.553 33.416 37.107 33.1377 34.6609C32.9602 33.1056 32.7184 31.5589 32.4087 30.0274L32.5028 29.9863C32.8892 31.3047 33.2415 32.6345 33.5371 33.9828ZM87.2791 61.0294L87.3076 61.0523L87.3257 61.0904L87.2791 61.0294ZM95.5467 25.1902C95.8302 23.2367 95.9709 21.3281 95.9136 19.3559C95.859 17.4865 95.8423 15.6337 96.7379 13.9581C99.8174 18.4041 102.48 23.3924 101.449 28.9421C100.868 32.0647 98.6367 34.6544 96.7676 37.1157C95.1403 39.2592 93.4017 41.3107 91.7045 43.396C91.8328 42.843 91.9852 42.2954 92.1563 41.7422C92.2178 41.5439 92.2578 41.3513 92.28 41.1615C93.4782 39.9435 94.4344 38.5622 95.1579 37.0001C95.2688 36.7601 94.9193 36.5809 94.7915 36.8141C94.09 38.0913 93.2333 39.2613 92.2368 40.3143C92.1904 40.1113 92.1205 39.9087 92.0178 39.7048C91.9101 39.4908 91.7778 39.3342 91.6272 39.2248C92.7855 37.9878 93.6774 36.4983 94.2602 34.9179C94.351 34.6715 94.0031 34.4766 93.8862 34.7276C93.1112 36.3928 92.0814 37.7712 90.8156 39.0222C90.3534 39.055 89.8402 39.2693 89.3569 39.5321C90.1738 38.6965 90.8759 37.7541 91.5263 36.77C92.1244 35.8641 92.6964 34.9407 93.2791 34.0253C93.8088 33.1936 94.4939 32.324 94.7489 31.3566C95.2699 29.3835 95.2527 27.2119 95.5467 25.1902ZM98.8772 25.7715C98.8711 26.0175 99.2559 25.9994 99.2597 25.7545C99.2736 24.8529 99.2228 23.9468 99.1536 23.0483C99.1403 22.8805 98.885 22.8914 98.8904 23.06C98.9209 23.9657 98.9012 24.8663 98.8772 25.7715ZM97.5774 22.7717C97.555 22.6112 97.3089 22.6165 97.3206 22.7834C97.5017 25.3404 97.6932 27.8276 96.476 30.1856C96.3571 30.4168 96.7067 30.5916 96.834 30.3676C98.1516 28.0478 97.9299 25.3105 97.5774 22.7717ZM97.6198 33.3512C97.76 33.2153 97.5325 33.0127 97.3935 33.15C97.2954 33.2471 97.1973 33.3442 97.0988 33.4414C96.961 33.5771 97.1838 33.7733 97.322 33.6397L97.6198 33.3512ZM99.1352 29.1C99.1734 28.9387 98.9232 28.885 98.8837 29.045C98.7385 29.6333 98.5264 30.2023 98.3255 30.7734C98.266 30.9427 98.5565 31.0454 98.6212 30.879C98.8464 30.3 98.9922 29.7026 99.1352 29.1ZM78.3521 43.4737C78.3116 43.5087 78.2691 43.5412 78.2278 43.5751C76.9881 43.9821 75.7503 44.421 74.5818 44.9757C75.1198 44.5304 75.6677 44.0965 76.2177 43.6684C78.243 42.0933 80.3295 40.6026 82.2729 38.9249C86.4109 35.3527 88.9416 30.5971 91.2579 25.7419C92.345 23.4629 93.0674 21.1717 93.442 18.6779C93.7942 16.333 94.0358 13.9531 95.2585 11.8881C95.6642 12.4424 96.0712 13.0062 96.4732 13.5785C95.6861 14.7883 95.4666 16.1463 95.4099 17.5703C95.326 19.6527 95.5148 21.6794 95.2386 23.7618C95.0249 25.3745 94.7201 26.9693 94.498 28.5796C94.4548 28.6144 94.4208 28.6624 94.4111 28.7303C94.01 31.5114 91.9726 33.8943 90.3568 36.0942C89.0214 37.9124 87.5537 39.58 85.7364 40.8349C86.2212 40.2699 86.629 39.6346 86.9273 38.9231C87.0327 38.6723 86.683 38.4881 86.5482 38.7299C85.555 40.5152 83.9839 41.6428 82.2055 42.4641C82.7746 41.8612 83.2725 41.1843 83.7429 40.5166C83.9041 40.288 83.6095 40.0027 83.4103 40.2208C82.5585 41.1528 81.6916 42.0485 80.6708 42.782C80.3548 42.887 80.0362 42.991 79.7154 43.0944C80.2421 42.5418 80.7185 41.9368 81.1313 41.2666C81.2663 41.0473 80.9486 40.8748 80.783 41.0291C79.9391 41.8145 79.2313 42.7188 78.3521 43.4737ZM68.2021 51.3748C69.1016 51.5466 68.72 53.9158 68.5849 54.3905C68.5537 54.5004 68.5239 54.6109 68.4932 54.7212C68.3132 55.1066 68.1167 55.4851 67.927 55.8554C67.1453 57.38 66.1291 58.7739 65.0333 60.0876C62.9558 62.5777 60.2661 64.3124 58.0131 66.5989C57.7268 66.8898 57.4788 67.1971 57.2599 67.5156L57.2464 67.46C58.5999 63.5096 58.244 58.9801 56.0918 55.3834C55.204 53.8992 53.9664 52.7526 52.5544 51.8238C52.7308 51.8911 52.9061 51.9622 53.0795 52.0402C54.7114 52.7739 56.104 53.9831 57.1586 55.4085C57.3546 55.6731 57.7716 55.4058 57.5901 55.1253C56.3576 53.2207 54.6586 51.9323 52.7113 51.0601C54.2334 51.4149 55.6447 52.0055 57.0168 53.0578C57.2758 53.2565 57.6062 52.9012 57.3593 52.6761C56.4978 51.8907 55.453 51.1963 54.3218 50.6938C56.0521 50.5983 57.6015 51.4108 59.0959 52.3513C59.324 52.495 59.5659 52.1339 59.3612 51.966C59.1025 51.754 58.8313 51.5496 58.5518 51.3557C58.8095 51.4213 59.0693 51.4834 59.3258 51.5553C59.8834 51.7122 60.4099 51.9671 60.9179 52.2389C61.3205 52.4539 62.4938 53.0574 62.526 53.6208C62.5403 53.8726 62.9175 53.9099 62.97 53.6581C63.1554 52.7699 61.8319 52.0743 61.2089 51.6731C60.9304 51.4938 60.6379 51.3528 60.3381 51.2317C60.4701 51.2494 60.6019 51.2663 60.7341 51.283C60.8225 51.3574 60.9425 51.386 61.0664 51.3237C61.9472 51.4315 62.8288 51.5247 63.709 51.5909C64.8138 51.6739 65.8425 51.6032 66.8017 51.347C66.8451 51.5939 67.1217 51.8083 67.3976 51.6285C67.4518 51.5933 67.5039 51.5629 67.5541 51.5351C67.6552 51.5791 67.7749 51.5861 67.8964 51.5261C67.9983 51.4757 68.1002 51.4252 68.2021 51.3748ZM69.8346 51.1236C70.2148 50.7466 70.6061 50.3508 71.0207 49.9822L82.9352 44.0955C85.3885 42.8832 87.8232 41.5011 90.3468 40.435C87.3541 43.8413 83.017 46.5432 81.5449 50.997C80.8321 53.1539 80.9859 55.3193 81.4741 57.5047C81.9523 59.6459 83.328 62.2852 82.2485 64.4151C82.1369 64.4392 82.0375 64.5158 81.995 64.6143C80.1631 64.6544 77.8314 62.9121 76.5114 62.132C74.3294 60.8425 72.1788 59.5031 70.0198 58.177C70.0417 58.1412 70.0558 58.1019 70.0585 58.0615C70.5428 58.3595 71.3131 58.1706 71.8396 58.2732C72.6245 58.4265 73.2974 59.0353 73.8958 59.5238C74.1112 59.6995 74.3836 59.3966 74.1841 59.2025C73.5476 58.5825 72.8956 58.0042 72.0507 57.6892C71.7562 57.5798 71.457 57.5524 71.1468 57.5313C70.2748 57.4718 69.6908 57.0126 70.0097 56.0973C70.0296 56.0398 70.0318 55.9868 70.0225 55.9386C72.025 56.8278 74.3494 56.9244 76.4536 56.33C76.7621 56.2428 76.6043 55.8072 76.3045 55.8685C74.1148 56.3158 72.091 56.0232 70.1047 55.1697C70.1763 54.963 70.2414 54.7555 70.2914 54.5466C71.0013 54.4266 71.6798 53.9925 72.3244 53.7027C73.8073 53.0366 75.3194 52.4384 76.8024 51.7744C77.0479 51.6648 76.94 51.2867 76.672 51.3705C75.4335 51.758 74.227 52.2301 73.0232 52.7122C72.2183 53.0346 71.2925 53.5934 70.3862 53.805C70.3992 53.4574 70.3778 53.1184 70.3246 52.7872C71.59 52.209 72.8445 51.607 74.1119 51.0334C74.6418 50.7937 75.1725 50.5588 75.6933 50.2999C76.3717 49.9625 76.7541 49.2925 77.4225 48.9672C77.6202 48.871 77.4581 48.5674 77.26 48.6292C76.7143 48.7999 76.5043 49.124 76.0647 49.4985C75.4917 49.9879 74.6328 50.2274 73.9437 50.5144C72.6874 51.0377 71.4182 51.5312 70.1592 52.0479C70.0704 51.7367 69.9603 51.4291 69.8346 51.1236ZM114.075 37.9809C113.377 38.5884 112.895 39.3485 112.36 40.0927C111.981 40.6194 111.525 41.0624 111.012 41.4301C111.106 40.3333 111.098 39.2307 110.944 38.1512C112.808 37.1871 113.942 35.3067 115.59 34.0149C115.779 33.8661 115.59 33.565 115.381 33.6989C113.707 34.7737 112.583 36.5345 110.823 37.4388C110.78 37.2335 110.731 37.0295 110.676 36.8266C111.965 36.2445 112.75 34.9039 113.593 33.654C115.182 32.2899 116.538 30.6202 117.714 28.9052C118.422 27.8743 119.08 26.7531 120.274 26.2254C122.033 25.4477 122.879 27.2617 122.908 28.692C122.955 31.1086 122.179 33.7371 121.672 36.0882C120.712 40.55 119.935 46.0943 116.015 48.9867C113.352 50.9516 110.09 51.8743 107.163 53.4001C109.045 51.6634 111.296 50.4227 113.307 48.7703C115.403 47.0494 117.159 44.8594 117.874 42.2173C117.942 41.9651 117.568 41.8985 117.486 42.133C116.447 45.1099 114.203 47.2833 111.693 49.0971C110.698 49.8173 109.592 50.4696 108.538 51.1856C108.776 50.6407 108.972 50.0753 109.157 49.517L109.189 49.4141C110.265 48.2384 111.52 47.2046 112.563 45.948C114.518 43.5924 114.234 39.7338 117.033 38.0669C117.257 37.9335 117.038 37.613 116.814 37.7342C113.926 39.2958 113.96 43.1229 112.055 45.4955C111.365 46.3543 110.505 47.1011 109.665 47.8634C109.865 47.1683 110.054 46.4693 110.227 45.7672C110.806 45.159 111.386 44.5509 111.994 43.9692C112.166 43.8057 111.909 43.5077 111.722 43.6555C111.305 43.9853 110.892 44.3229 110.488 44.67L110.495 44.6412C110.669 43.8744 110.816 43.0883 110.919 42.2949C111.451 41.9592 111.934 41.5588 112.378 41.0777C113.166 40.2235 113.584 39.1074 114.39 38.2614C114.583 38.0592 114.274 37.8071 114.075 37.9809ZM82.9131 85.7829C83.0459 84.3394 83.0138 82.9167 82.8813 81.4757C82.597 78.3769 81.8311 74.9718 80.632 72.1056C80.0291 70.6639 79.0626 69.3998 78.2221 68.0933C77.3897 66.8012 76.7673 65.4308 76.188 64.0287C76.9174 64.4119 77.6238 64.833 78.3355 65.305C78.6431 65.5092 78.9735 65.6795 79.3167 65.8165C79.8678 66.4939 80.2968 67.2593 80.5949 68.204C80.6698 68.4423 81.0026 68.3199 80.9562 68.0871C80.7975 67.291 80.5902 66.6587 80.2774 66.0901C80.7504 66.1707 81.2355 66.1781 81.7182 66.0856C82.0405 66.0236 82.3447 65.9363 82.6324 65.8246C83.0144 66.5917 83.1917 67.4172 83.2462 68.3244C83.2587 68.5333 83.5884 68.5737 83.6211 68.3564C83.7685 67.3902 83.5875 66.4318 83.1834 65.565C83.8234 65.2173 84.3734 64.7312 84.8429 64.1043C85.021 63.8655 85.1637 63.6147 85.2807 63.3547C86.0091 64.6219 86.5146 65.9249 86.8074 67.4133C86.8496 67.629 87.1964 67.5565 87.1833 67.3452C87.079 65.6391 86.5279 63.9291 85.5733 62.5015C85.6424 62.2337 85.6965 61.961 85.7419 61.6852C85.9495 61.4132 86.1809 61.1736 86.4509 60.989C86.4822 61.0316 86.5138 61.0737 86.5447 61.1161C86.9723 62.0723 87.5048 63.0064 88.2003 63.7565C89.0472 65.3482 89.6969 67.0398 90.1492 68.8049C90.0898 71.0443 89.172 73.0464 88.2222 75.0408C87.182 77.2269 86.2066 79.4413 85.3043 81.687C84.444 83.8274 83.6718 86.0017 82.9623 88.196C82.572 89.4033 82.0661 90.8637 82.5066 92.0633C82.2385 91.6505 82.0771 91.1425 82.0785 90.556C82.0816 88.9842 82.7673 87.3638 82.9131 85.7829ZM112.206 34.7194L112.165 34.7699L112.159 34.7519L112.206 34.7194ZM91.7645 48.1299C91.391 48.3274 91.0048 48.4814 90.6084 48.5981C91.0128 47.9067 91.4582 47.2398 91.938 46.6003C95.6147 44.2232 99.2777 41.8242 102.945 39.4313C104.011 38.7357 105.074 38.0436 106.195 37.4383C106.709 37.1608 107.241 36.9232 107.792 36.7373L107.881 36.7803C108.711 36.8841 109.343 37.3353 109.678 38.0649C109.691 38.1826 109.697 38.3001 109.7 38.4145C109.726 39.7304 109.434 41.113 109.293 42.4213C109.267 42.6572 109.242 42.8938 109.217 43.1299C109.009 42.566 108.617 42.1066 108.105 41.7198C107.583 41.3252 106.758 40.7978 106.085 41.0737C105.917 41.142 105.996 41.4006 106.172 41.3427C106.77 41.1468 107.592 41.8142 108.008 42.1507C108.535 42.5764 108.883 43.1789 108.956 43.851C108.967 43.9558 109.038 44.0152 109.119 44.0337C109.07 44.4712 109.015 44.9083 108.953 45.3442C108.853 45.7525 108.745 46.1571 108.627 46.5573C108.519 46.2074 108.332 45.8809 108.074 45.6021C107.61 45.1007 106.798 44.2967 106.066 44.2821C105.858 44.2782 105.88 44.5846 106.08 44.5976C106.562 44.63 107.109 45.2498 107.441 45.5587C107.975 46.0558 108.244 46.6728 108.252 47.3967C108.253 47.4592 108.279 47.5086 108.318 47.545C108.117 48.151 107.9 48.7512 107.671 49.3471C107.63 49.4283 107.587 49.5091 107.543 49.5895C107.312 48.4658 106.339 47.2998 105.383 46.9449C105.209 46.8805 105.08 47.112 105.249 47.2057C106.287 47.7822 107.209 49.1958 107.096 50.3929C106.715 51.0506 106.313 51.6996 105.924 52.3545C105.883 51.4619 105.44 50.605 104.661 50.0843C104.494 49.9725 104.33 50.2369 104.468 50.3646C105.332 51.1684 105.654 52.3098 105.243 53.4322L105.227 53.5435C104.613 54.5961 103.998 55.6487 103.376 56.6967C103.522 55.4738 103.187 54.2729 102.819 53.0771C102.201 51.0721 101.764 49.1086 101.86 46.9964C101.958 44.835 102.818 42.7272 104.275 41.1255C105.381 39.9107 107.109 39.4999 108.023 38.1163C108.208 37.837 107.745 37.6075 107.562 37.8817C106.969 38.7673 105.962 39.1905 105.113 39.7809C104.474 40.2247 103.943 40.8104 103.456 41.4089C102.365 42.7495 101.78 44.4313 101.515 46.1142C101.244 47.842 101.462 49.6139 101.851 51.3027C102.326 53.3589 103.379 55.2997 102.789 57.4541C102.769 57.5264 102.787 57.5825 102.823 57.6239C102.527 58.1152 102.23 58.6056 101.927 59.0931C100.939 60.6866 99.3221 60.5059 97.6906 60.2807C96.4294 60.1065 95.1704 59.9156 93.9135 59.7134C92.0861 59.4202 90.2608 59.1033 88.4383 58.7759L88.4134 58.7068C88.3393 58.5795 88.2775 58.4459 88.2231 58.3094C89.6995 57.6869 91.2233 57.2603 92.8854 57.4154C93.1442 57.4394 93.2434 57.0687 92.9748 57.012C91.2503 56.6454 89.6088 57.0125 88.0292 57.624C87.9596 57.2371 87.9447 56.8281 87.9681 56.4086C89.06 55.8493 90.1792 55.4449 91.4477 55.3979C91.7508 55.3864 91.7139 54.9624 91.4278 54.9421C90.2825 54.8599 89.1184 54.9918 88.0777 55.4528C88.1719 54.9036 88.3119 54.3542 88.4646 53.8283C89.5248 54.0108 90.6451 54.0124 91.6924 53.8186C91.9334 53.7741 91.8382 53.4237 91.6205 53.4187C90.6141 53.3967 89.6485 53.3141 88.6688 53.1578C88.7802 52.8064 88.8914 52.4704 88.9906 52.1636C89.032 52.036 89.08 51.9107 89.1246 51.7839C89.8501 51.8293 90.5825 51.7244 91.2611 51.4569C91.4676 51.3758 91.4327 51.0111 91.1882 51.0518C90.5674 51.1543 89.9675 51.1893 89.3609 51.1481C89.6068 50.5268 89.8886 49.9196 90.2023 49.3275C90.8392 49.1537 91.4341 48.8651 91.9828 48.4604C92.1909 48.3064 91.9895 48.011 91.7645 48.1299ZM81.6521 52.6248C82.3819 47.4234 87.8081 44.5256 91.0485 40.8642C90.9856 41.3034 90.7773 41.8441 90.7488 41.95C90.581 42.5623 90.4105 43.1741 90.2395 43.7856C89.9164 44.9413 89.5829 46.0947 89.2465 47.2459C89.2054 47.2771 89.1709 47.3108 89.1454 47.3476C87.9847 47.0727 86.7629 47.4195 85.8997 48.3005C85.7268 48.4769 86.0064 48.7182 86.1825 48.552C86.972 47.8075 88.0596 47.5668 89.0686 47.8571L89.0545 47.9058C88.6998 49.1118 88.3352 50.315 87.9651 51.5164C86.9738 51.0196 85.7266 51.1622 84.7923 51.7259C84.5704 51.8593 84.7875 52.1761 85.01 52.0561C85.9385 51.5541 86.8868 51.6252 87.8027 52.0433C87.4609 53.146 87.1133 54.2466 86.7611 55.3458C86.2062 54.6293 85.3384 54.1189 84.49 53.8602C84.2807 53.7962 84.1579 54.1371 84.3601 54.2188C85.2791 54.5891 85.9193 55.1518 86.5849 55.8628L86.5955 55.8706C86.3043 56.7886 86.0259 57.7296 85.7341 58.6708C85.6571 58.7447 85.6341 58.8392 85.6519 58.9328C85.616 59.0475 85.5803 59.1616 85.5439 59.276C84.9196 58.8121 84.44 58.2332 84.134 57.4842C84.0414 57.2579 83.6852 57.3666 83.7668 57.6027C84.0675 58.4722 84.6268 59.2394 85.3888 59.7528C84.9982 60.9435 84.5676 62.1165 84.0326 63.2175C83.6792 63.9453 83.1962 64.3427 82.6405 64.5127C83.2448 63.3187 83.1011 61.9575 82.8104 60.6322C82.2194 57.9368 81.2569 55.4414 81.6521 52.6248ZM73.263 61.4213L73.2521 61.4742C73.1434 61.3819 73.0338 61.2908 72.9223 61.201C73.0402 61.275 73.1536 61.3485 73.263 61.4213ZM89.1231 83.5959C89.7377 82.6314 90.2161 81.5957 90.5442 80.515C90.3622 83.435 89.9601 86.3567 88.925 89.1101C88.3566 90.6225 87.4841 92.172 85.9635 92.8915C85.7875 92.9745 85.611 93.0341 85.4351 93.083C85.3381 93.0541 85.2211 93.0775 85.1458 93.1496C84.5252 93.258 83.9273 93.1621 83.4252 92.8992C83.4385 92.8398 83.4304 92.7742 83.3811 92.7173C81.8601 90.9643 83.6646 87.5631 84.324 85.7035C85.0807 83.5696 85.9162 81.4654 86.8104 79.3848C88.0203 76.57 89.8831 73.7075 90.5206 70.6457C90.5519 70.8529 90.5794 71.0603 90.6042 71.2688C90.2122 75.6759 88.6453 79.6867 86.2043 83.4198C86.0869 83.5985 86.3813 83.7969 86.5122 83.6299C88.6626 80.8892 90.0813 77.5903 90.7773 74.1686C90.7874 75.1642 90.7566 76.1625 90.7128 77.1566C90.6 77.1874 90.4996 77.2779 90.4921 77.4245C90.3763 79.5625 89.8432 81.5509 88.7875 83.4257C88.667 83.6398 88.9947 83.7972 89.1231 83.5959ZM88.9884 90.7826C89.18 90.457 89.3476 90.1312 89.4885 89.8191C89.5427 89.699 89.5929 89.577 89.6441 89.4556C89.917 91.9568 90.0449 94.5812 89.5862 97.0383C89.2994 98.5779 88.4064 99.9458 86.7312 100.099C85.0901 100.248 83.6913 98.9185 82.9536 97.6201C82.0657 96.0588 81.9565 94.099 81.6867 92.3639C81.4626 90.9198 81.1192 89.4971 80.7299 88.0896C79.8828 85.0255 78.7381 82.0401 77.522 79.1052C77.433 78.2501 77.3052 77.3897 77.1492 76.52C76.9095 75.1855 76.607 73.8591 76.2447 72.5491C76.3079 72.5075 76.3533 72.4337 76.3347 72.3407C76.3203 72.2675 76.3023 72.1936 76.2875 72.1205L76.2913 72.0687C75.9129 69.0663 74.9183 66.2228 73.3916 63.6797C74.465 65.158 75.3596 66.7772 76.2344 68.4696C76.3326 68.6598 76.6675 68.4997 76.5764 68.3059C75.5542 66.1362 74.4477 63.7675 72.8659 61.8635C73.0879 62.0429 73.3045 62.2277 73.5152 62.4191C73.5943 62.5207 73.6888 62.6096 73.7974 62.684C73.9072 62.79 74.0151 62.8982 74.1215 63.0086C74.1414 63.0454 74.1708 63.0778 74.2103 63.1033C74.6889 63.6125 75.1256 64.1673 75.507 64.7832C75.6837 65.2219 75.8688 65.6569 76.0792 66.0842C76.9127 67.7759 77.9678 69.3018 78.9701 70.8933C80.0722 72.6417 80.5752 74.6056 81.0571 76.5907C81.9317 80.1934 82.774 84.0496 82.0838 87.7545C81.8288 89.1252 81.3435 90.3831 81.6726 91.782C81.9212 92.837 82.9244 93.3915 83.872 93.6938C84.2849 93.8258 84.6843 93.8707 85.0672 93.8455C85.0555 94.8304 84.9453 95.8295 84.1817 96.5512C84.0707 96.6561 84.23 96.83 84.3531 96.7491C85.3726 96.0752 85.5702 94.8993 85.5998 93.7619C86.0611 93.6505 86.4951 93.4408 86.8974 93.1622C86.9406 93.7255 86.9247 94.2806 86.8248 94.8497C86.7249 95.4205 86.3505 96.0117 86.3896 96.5816C86.4026 96.7656 86.6684 96.7494 86.6735 96.5689C86.6825 96.2753 86.9497 95.9146 87.055 95.6412C87.1695 95.3439 87.2482 95.0372 87.3137 94.7265C87.4466 94.0934 87.4556 93.431 87.3726 92.7912C87.8325 92.3894 88.2426 91.907 88.5944 91.3996C88.7718 92.5295 88.7932 93.6465 88.6424 94.7965C88.516 95.7629 88.0622 96.6528 87.9821 97.6147C87.9685 97.78 88.251 97.8026 88.2724 97.6395C88.4308 96.4328 89.0047 95.3047 89.1606 94.0748C89.3004 92.9722 89.2087 91.8658 88.9884 90.7826ZM94.4263 84.8038C94.6602 87.7117 94.7097 90.6669 94.2772 93.5602C93.9955 95.4434 93.5578 97.2902 93.4404 99.1665C93.3442 98.0814 93.3028 96.9881 93.17 95.907C92.7982 92.8897 91.9619 89.9497 90.8456 87.1279C90.7792 86.9597 90.6517 86.8692 90.5116 86.8379C90.728 85.9799 90.8919 85.1073 91.0196 84.2288C91.387 84.9172 91.7132 85.6057 91.9307 86.3725C92.0042 86.6325 92.3717 86.4977 92.3227 86.2459C92.1292 85.2577 91.8086 84.2496 91.2452 83.4046C91.2152 83.3591 91.1797 83.3278 91.1417 83.3062C91.2369 82.5035 91.306 81.699 91.3623 80.8996C91.6605 81.3238 91.9193 81.7729 92.1278 82.2561C92.2346 82.5027 92.6299 82.385 92.5336 82.1249C92.2574 81.3783 91.8938 80.6864 91.4179 80.057C91.4808 79.0589 91.5418 78.0537 91.5821 77.0464C91.8931 77.3605 92.1167 77.7309 92.2447 78.1607C92.318 78.4058 92.6611 78.2789 92.6147 78.0413C92.5005 77.4552 92.2228 76.9525 91.8102 76.5233C91.7463 76.4572 91.6719 76.4404 91.6028 76.4541C91.669 74.3165 91.6218 72.1744 91.2756 70.076C91.3161 70.1396 91.3539 70.2043 91.397 70.2667C93.0016 74.9652 94.0264 79.8416 94.4263 84.8038ZM102.107 86.8824C102.794 87.4026 103.562 87.4838 104.288 87.2968L104.286 87.3144C104.408 88.7901 104.86 90.1646 104.703 91.6667C104.537 93.2552 103.537 94.6733 102.635 95.9362C100.904 98.3613 98.9354 100.867 96.5354 102.668C95.7559 103.253 94.989 103.848 94.3286 102.803C94.1348 102.496 93.9915 102.15 93.8799 101.79L93.8919 101.702C93.5182 98.6985 94.4022 95.7331 94.8822 92.7876C95.338 89.9924 95.4413 87.1451 95.2591 84.3232C94.968 79.8144 94.036 75.3347 92.6337 71.0273C93.0122 71.9714 93.3216 72.9557 93.647 73.936C94.5676 76.7094 95.4262 79.5035 96.2846 82.2968C96.3555 82.5285 96.6974 82.4126 96.6404 82.1818C95.9007 79.1834 95.0555 76.2138 94.156 73.2591C93.8593 72.285 93.5569 71.2604 93.1641 70.2793C93.5747 70.8847 93.9473 71.5247 94.2677 72.2281C95.086 74.0224 95.5274 75.975 96.0532 77.8671C96.1136 78.0821 96.4874 78.0206 96.4468 77.7963C96.1147 75.9554 95.679 74.2165 95.039 72.5918C95.6126 73.5274 96.1345 74.4933 96.6022 75.4898C97.2246 77.3513 97.8872 79.1949 98.6632 81.0102C99.4996 82.965 100.346 85.5484 102.107 86.8824ZM97.1279 94.4127C97.6062 93.0301 97.7562 91.5964 97.5351 90.1494C97.4945 89.883 97.074 89.8958 97.1091 90.1689C97.2927 91.5836 97.188 92.9682 96.7541 94.3315C96.6788 94.5686 97.0492 94.6406 97.1279 94.4127ZM99.9874 95.2615C101.172 93.0782 100.639 90.5427 100.334 88.2057C100.299 87.9328 99.8694 87.949 99.9028 88.2251C100.175 90.4814 100.749 92.9618 99.6423 95.0859C99.5261 95.3082 99.8684 95.4812 99.9874 95.2615ZM69.8128 61.007C72.9778 65.2532 75.0612 70.1821 76.2199 75.3673C76.9294 78.5423 77.3584 81.8117 76.7199 85.0345C76.0991 88.1685 74.9466 91.4459 73.5671 94.3235C72.8797 95.7573 71.9869 97.1353 70.7153 98.1189C70.1766 98.5349 69.2451 99.0071 68.537 98.7774C69.2723 98.4463 69.9502 98.0208 70.572 97.4904C70.7262 97.3588 70.5549 97.0905 70.3959 97.2234C69.7278 97.7835 69.0061 98.2491 68.2207 98.6165C68.0561 98.4922 67.9139 98.3102 67.8056 98.0562C67.5749 97.5139 67.5626 96.9038 67.6331 96.3039L67.6371 96.2981L67.7085 96.2693C73.0206 92.8012 75.0074 86.4078 74.9166 80.3578C74.8603 76.5727 73.9085 72.8457 72.8226 69.244C71.9819 66.4557 71.095 63.6318 69.8128 61.007ZM74.377 90.2252C74.428 90.0527 74.1565 89.9964 74.1051 90.166C73.9508 90.6737 73.8542 91.1924 73.8043 91.7202C73.7887 91.8843 74.0411 91.9428 74.0592 91.7755C74.1171 91.2485 74.2262 90.7336 74.377 90.2252ZM73.2992 94.0023C73.403 93.8649 73.2038 93.6843 73.0974 93.8234C72.7266 94.307 72.3614 94.795 71.9955 95.2824C71.8965 95.4143 72.0859 95.5873 72.1884 95.4544C72.5598 94.9715 72.9321 94.4888 73.2992 94.0023ZM76.0058 80.0145C75.9231 78.9129 75.7543 77.8318 75.4939 76.7587C75.4313 76.4995 75.0372 76.6293 75.0997 76.8863C75.3506 77.9219 75.5266 78.9699 75.6233 80.0315C75.6454 80.2757 76.024 80.2602 76.0058 80.0145ZM74.5014 72.5027C74.2795 71.3964 73.9627 70.3221 73.5307 69.2792C73.4229 69.0192 73.0055 69.1484 73.1085 69.4158C73.5137 70.4656 73.8579 71.5307 74.126 72.6243C74.1872 72.8736 74.5496 72.7453 74.5014 72.5027ZM107.502 75.9421L107.504 75.9472C107.413 76.9051 107.353 77.8669 107.241 78.823C107.098 80.049 106.263 81.2709 105.706 82.3512C105.623 82.5114 105.864 82.6304 105.954 82.4771C106.486 81.5717 107.084 80.694 107.469 79.7178C107.457 79.8202 107.446 79.9224 107.433 80.0245C107.142 82.2607 107.06 85.0898 104.965 86.4519C103.921 87.1313 103.04 86.9144 102.304 86.2902C102.313 86.246 102.31 86.1975 102.28 86.1484C101.477 84.7946 102.34 83.4861 103.111 82.3794C103.654 81.6003 104.108 80.7902 104.501 79.9266C105.44 77.8637 106.217 75.6896 106.977 73.5565C107.453 72.2201 107.707 70.8392 107.714 69.477C108.046 72.6846 107.025 76.0445 105.831 78.9941C105.769 79.1469 105.973 79.2524 106.06 79.1107C106.722 78.023 107.155 76.8054 107.5 75.5676C107.497 75.6924 107.497 75.8166 107.502 75.9421ZM45.2436 70.0828C44.1646 69.9425 43.2079 68.8804 42.543 67.979C40.7524 65.5519 39.4747 62.76 37.4824 60.4771C37.306 60.275 37.1162 60.0799 36.9214 59.8888C36.8948 59.8432 36.8584 59.8037 36.8139 59.7728C36.7642 59.6628 36.6734 59.5716 36.5527 59.5359C35.8007 58.8301 35.0126 58.1411 34.4917 57.2759C35.1731 57.6181 35.9256 57.7687 36.7068 57.6936C36.9668 57.6686 36.9503 57.2647 36.6895 57.2899C35.7976 57.3752 34.9283 57.1653 34.1913 56.6541L34.1773 56.6481L34.1684 56.6279C33.9192 55.9896 33.8631 55.3104 33.9309 54.6329L33.9407 54.6281C34.1304 54.5575 34.1351 54.2783 33.9908 54.1936C33.9982 54.1515 34.0051 54.1096 34.0134 54.0677L34.0213 54.0715C34.7538 54.2948 35.5167 54.3518 36.2791 54.2801C36.5752 54.2525 36.5544 53.7901 36.2594 53.8217C35.5302 53.8992 34.8215 53.8385 34.1093 53.6736L34.1037 53.6734C34.1981 53.304 34.3209 52.941 34.4615 52.5918C34.5136 52.5456 34.5356 52.4851 34.5331 52.4209C34.6401 52.1696 34.7543 51.9258 34.8736 51.6928C35.2622 50.9341 35.7484 50.2318 36.2496 49.5404C36.796 48.9782 37.2891 48.3746 37.6791 47.6901C38.716 46.6014 39.5539 45.3312 40.1779 43.9412C40.706 42.7646 40.965 41.5092 41.1716 40.2451C41.4186 38.7338 41.9519 36.7888 43.644 36.5456C44.4371 38.0155 44.9631 39.5299 45.287 41.0883L45.2708 41.1294C45.0825 42.1638 44.0655 42.5096 43.1696 42.7669C42.9296 42.8354 43.0502 43.1845 43.2869 43.1293C44.083 42.9439 44.9825 42.6477 45.4536 41.9875C45.5316 42.4816 45.5902 42.9806 45.6325 43.4836C45.1121 44.439 44.2692 45.1811 43.1579 45.3442C42.9219 45.3787 42.9267 45.7304 43.1737 45.7192C44.1456 45.6757 45.0788 45.2726 45.696 44.5525C45.7247 45.2979 45.7212 46.0522 45.6896 46.8153C45.2894 47.6007 44.5019 48.3084 44.3317 49.1615C44.1487 50.0789 44.9584 50.8533 45.6295 51.3147C46.5841 51.9703 47.4835 52.3314 48.2652 53.0504C47.3232 53.5564 46.2905 53.7893 45.1878 53.6376C44.9296 53.6019 44.8383 53.9828 45.0998 54.0355C46.3645 54.2896 47.642 54.1686 48.7721 53.5941C48.8372 53.6757 48.901 53.7605 48.9637 53.8504C49.1306 54.0901 49.2934 54.3398 49.4476 54.597C48.5808 56.0643 47.1462 56.9385 45.2665 56.3189C45.0506 56.2478 44.9377 56.5889 45.1342 56.6858C46.8693 57.5401 48.8103 56.8547 49.8913 55.4304C50.167 56.0278 50.3579 56.6518 50.3879 57.2827C50.373 57.5527 50.3209 57.7997 50.2439 58.0322C49.549 58.5207 48.8667 58.7969 48.0082 58.9059C47.6092 58.9564 45.9447 59.1251 45.6984 58.7405C45.5689 58.5375 45.2622 58.6971 45.3253 58.919C45.5299 59.642 46.7566 59.5059 47.3508 59.53C48.145 59.5621 48.957 59.4509 49.6808 59.1404C49.3597 59.6441 49.006 60.1388 48.7923 60.7411C48.3297 62.0448 48.8414 63.4565 48.8165 64.8057C48.8017 65.6253 48.6496 66.4959 48.3486 67.3041C48.209 67.5272 48.0757 67.7495 47.9409 67.9666C47.5806 66.419 47.0165 65.0365 46.2464 63.588C45.1049 61.4424 44.3564 59.1366 43.9587 56.7428C43.785 55.6984 43.7405 54.638 43.5659 53.5935C43.3913 52.5459 43.0356 51.5709 42.9936 50.4974C42.9272 48.803 43.5516 47.1913 42.812 45.5677C42.6985 45.3182 42.2879 45.4426 42.3984 45.7015C43.1124 47.3743 42.4854 49.1517 42.56 50.8984C42.6059 51.9657 43.0252 53.0108 43.2034 54.0573C43.3817 55.103 43.4309 56.1681 43.6089 57.2155C43.9466 59.2024 44.6077 61.1194 45.4638 62.9392C45.9241 63.9164 46.4814 64.8411 46.9238 65.8279C47.2907 66.6465 47.48 67.5331 47.653 68.4131C47.2163 69.0553 46.7105 69.6137 45.9037 69.9469C45.6817 70.0386 45.4621 70.0768 45.2436 70.0828ZM57.7775 86.9374C57.6695 87.2039 58.0279 87.3921 58.1773 87.1407C58.7691 86.1441 59.0397 85.0756 59.0993 83.9838C59.3573 86.1041 59.0525 87.8981 57.4958 89.5175C56.0609 91.0103 54.3247 92.275 52.6493 93.4847C52.069 93.9036 51.4038 94.2954 50.6899 94.4118C50.6745 94.3708 50.6565 94.3301 50.6431 94.289C50.9388 93.6682 51.6147 93.3328 52.1679 92.9699C52.8275 92.5371 53.4903 92.108 54.1448 91.6676C54.3019 91.5621 54.1429 91.3203 53.9835 91.4235C53.1324 91.9751 52.2897 92.5406 51.4468 93.1053C51.0898 93.3443 50.7773 93.5912 50.556 93.921C50.5361 93.8011 50.5234 93.6809 50.5197 93.5605C50.7812 92.3125 51.5442 91.2985 52.6613 90.6526C52.8263 90.5572 52.6647 90.3199 52.5 90.4084C51.7597 90.8061 51.1696 91.4025 50.7662 92.1102C50.944 91.577 51.1904 91.0549 51.4164 90.5635C52.0285 89.2301 52.6611 87.9059 53.2859 86.5784C54.398 84.2154 55.5924 81.8614 56.5183 79.4188C56.752 78.8029 56.9203 78.2019 57.0305 77.6049C57.0738 79.5255 56.7666 81.6368 55.9742 83.265C55.869 83.4822 56.1741 83.7101 56.3325 83.5091C57.0146 82.6426 57.2733 81.626 57.4952 80.5781C57.5381 82.0439 57.4845 83.5059 57.3752 85.0274C57.3557 85.2983 57.7515 85.2921 57.8219 85.0653C58.0195 84.4273 58.1678 83.767 58.2708 83.0947C58.3922 84.3695 58.3006 85.6487 57.7775 86.9374ZM57.1288 88.7425C57.2135 88.5851 56.9687 88.4618 56.8827 88.6174C56.448 89.4049 55.8261 90.0308 55.0454 90.4814C54.9007 90.5648 55.0421 90.7734 55.1865 90.6952C56.0234 90.2421 56.6783 89.5774 57.1288 88.7425ZM56.3353 67.3477C56.6896 68.3525 56.1588 69.3372 55.8745 70.2943C55.5788 71.2886 55.7587 72.3227 55.9625 73.3124C56.2682 74.7947 56.4733 76.053 56.1708 77.5603C55.9087 78.8673 55.3444 80.1058 54.8106 81.3211C53.6284 84.0128 52.4913 86.7241 51.3468 89.4315C50.6995 90.9638 49.6262 92.8038 50.2576 94.4424C50.1865 94.4422 50.1157 94.4449 50.044 94.438C48.698 94.3079 48.4725 91.9302 48.3442 90.9344C48.109 89.1063 48.4936 87.2692 48.4402 85.437C48.3809 83.4061 47.5322 81.3681 46.8827 79.4736C46.1583 77.3595 45.3563 75.2734 44.5043 73.2077C44.181 72.4233 43.8669 71.5409 43.5034 70.6801C43.7945 70.8616 44.1006 71.001 44.416 71.0956C45.7494 72.6245 46.6618 74.3151 47.0507 76.4884C47.0948 76.733 47.4766 76.7323 47.4506 76.4705C47.2692 74.6544 46.6011 72.7872 45.5172 71.2469C46.0735 71.2387 46.6361 71.1065 47.1754 70.845C47.3173 70.7764 47.4511 70.7003 47.581 70.6205C47.9795 71.1627 48.3365 71.7252 48.5949 72.3674C48.9457 73.2385 49.0162 74.2799 49.1907 75.203C49.2354 75.4406 49.6336 75.3647 49.6095 75.1275C49.5079 74.1372 49.4372 73.1406 49.1997 72.1716C49.0226 71.4509 48.6237 70.7942 48.1804 70.1823C48.8065 69.6423 49.2632 68.9574 49.5905 68.195C49.6262 68.2351 49.6583 68.2771 49.6929 68.3175C50.5744 70.0643 51.2978 71.8769 51.1194 73.8921C51.0959 74.1543 51.4946 74.2531 51.5296 73.9814C51.6627 72.9688 51.5992 71.9971 51.4049 71.0547L51.406 70.9943C51.3584 70.7809 51.301 70.572 51.237 70.366C51.2037 70.2438 51.1691 70.122 51.1314 70.001C51.1725 69.9727 51.1966 69.923 51.1748 69.8604C50.7532 68.636 50.3704 67.4185 50.1636 66.1385C50.2521 65.512 50.2654 64.8749 50.2648 64.242C50.2902 64.1673 50.3155 64.0921 50.3423 64.0175C50.3772 64.0702 50.412 64.1225 50.4474 64.1751C51.5702 65.8488 52.426 67.4982 52.7665 69.5082C52.8126 69.7808 53.2315 69.7794 53.2099 69.4882C53.11 68.1794 52.8453 66.9037 52.2579 65.7182C51.7992 64.7939 51.1986 63.9619 50.7017 63.083C50.9364 62.5069 51.1889 61.932 51.4352 61.3566C51.518 61.5186 51.6034 61.6794 51.6939 61.838C52.4588 63.175 53.6727 64.1814 53.9642 65.7593C54.013 66.0227 54.4563 65.9383 54.4278 65.6754C54.2961 64.4414 53.733 63.505 53.0277 62.5039C52.5396 61.811 52.1659 61.1026 51.8461 60.3688C52.0061 59.9679 52.1557 59.5668 52.2851 59.1653C52.7273 60.1342 53.3011 61.0519 53.9916 61.832C54.1446 62.0051 54.3845 61.7605 54.2833 61.581C53.5965 60.3625 53.0408 59.185 52.6125 57.9296C52.6873 57.5541 52.7349 57.1779 52.7529 56.8012C52.9092 57.0774 53.0629 57.3565 53.2125 57.6409C54.7192 60.5122 56.3156 63.631 56.4478 66.9222C56.3311 67.0077 56.2679 67.1559 56.3353 67.3477ZM74.134 79.0504C74.7935 85.2022 73.0082 92.053 67.7163 95.7628C67.7562 95.5452 67.8026 95.3322 67.8475 95.1281C68.4608 92.3542 69.0197 89.6694 69.1423 86.8207C69.2623 84.0267 69.0047 81.2583 68.4279 78.5565C68.5201 78.5382 68.6017 78.4686 68.5845 78.3633C68.1058 75.4344 67.3784 72.5576 66.3396 69.7764C67.0166 70.6987 67.508 71.6781 67.778 72.862C67.828 73.0799 68.205 73.0128 68.1685 72.7912C67.9432 71.4259 67.3902 70.0733 66.4731 69.0213C66.6416 68.3017 66.8284 67.5835 67.0147 66.8647C67.4905 67.4706 67.892 68.116 68.2022 68.8477C68.3054 69.0907 68.6931 68.9737 68.5993 68.7193C68.2635 67.8078 67.7989 66.9465 67.1878 66.1937C67.3566 65.5317 67.5182 64.8686 67.6577 64.203C68.0995 64.7154 68.5226 65.2347 68.8875 65.8215C69.0253 66.0422 69.3411 65.8247 69.2224 65.6017C68.8307 64.868 68.3684 64.1283 67.7933 63.5103C67.856 63.1658 67.9091 62.8205 67.9541 62.474C68.6864 63.5892 69.4168 64.6867 70.0235 65.8912C70.1223 66.0868 70.462 65.9241 70.3735 65.7236C69.7841 64.3912 69.1182 63.025 68.2471 61.8419L68.2729 61.7969C68.7114 62.454 69.2688 63.0415 69.7516 63.6762C70.0133 64.1359 70.2754 64.5956 70.5364 65.0559L70.5796 65.1123C70.9981 66.2783 71.3793 67.46 71.7575 68.6399C72.8459 72.0389 73.7529 75.4937 74.134 79.0504ZM65.4693 74.0754C66.6652 77.8871 67.6283 81.8531 67.6278 85.8366C67.6271 87.9803 67.1709 90.1059 66.2637 92.051C65.5024 93.6835 64.3084 94.9575 62.9737 96.1037C63.2898 94.9333 63.1378 93.6328 62.9024 92.419C62.2804 89.2129 61.1996 85.9845 59.8009 83.0348C59.765 82.9597 59.714 82.9046 59.6559 82.8646C59.499 81.7312 59.2769 80.5991 59.0227 79.4795C59.5866 79.9386 60.1423 80.2972 60.4346 81.0888C60.7876 82.0446 61.0863 83.0198 61.4472 83.973C61.5324 84.1974 61.8649 84.0896 61.8033 83.8579C61.4919 82.6934 61.1715 81.5007 60.7579 80.3683C60.6857 80.1698 60.5803 79.9956 60.4546 79.8364C61.3631 80.1929 62.0725 79.9379 62.6227 79.3899C63.151 80.8265 63.5945 82.2222 63.8242 83.7586C63.8593 83.9954 64.2108 83.9903 64.2034 83.742C64.1539 82.0606 63.8521 80.2962 63.1464 78.7602L63.1333 78.7373C63.5111 78.1337 63.7843 77.3992 63.9758 76.7263C64.2058 75.9183 64.426 75.1075 64.6399 74.2954C64.5961 75.3902 64.6107 76.4886 64.7054 77.5775C64.8618 79.3854 65.5398 81.0991 65.5992 82.9185C65.6074 83.1666 65.9766 83.1447 65.9817 82.9015C66.0151 81.2367 65.6643 79.6238 65.4849 77.9765C65.3441 76.6776 65.4103 75.3764 65.4693 74.0754ZM31.6096 29.8801C31.9848 31.7758 32.2726 33.6898 32.4713 35.6183C32.927 40.0443 32.2913 44.9813 34.4919 49.0081C34.4272 49.0676 34.3626 49.1257 34.2977 49.1848C33.0421 47.5674 32.2959 45.761 32.1534 43.6432C32.0957 42.7838 32.0837 41.9426 31.9775 41.0972C31.988 40.6868 31.9727 40.2745 31.916 39.8581C31.9978 36.5021 31.4013 33.1982 30.5159 29.937C30.4085 28.9176 30.2464 27.8845 30.0301 26.8599C30.0001 26.637 29.9666 26.4151 29.9341 26.1925C30.5379 27.3944 31.0946 28.6211 31.6096 29.8801ZM133.347 69.6004L133.323 69.5839L133.379 69.5791L133.347 69.6004ZM130.35 69.6501L130.36 69.6661L130.379 69.6848C130.337 69.6716 130.295 69.6592 130.253 69.6464L130.35 69.6501ZM141.906 56.9585C142.028 57.0249 142.147 57.0987 142.259 57.184C143.471 58.1079 142.94 60.1567 142.429 61.2836C141.573 63.1704 139.762 64.6099 138.213 65.9067C136.875 67.0269 135.485 68.1156 134.047 69.1201L134.001 69.1124C132.054 69.1536 130.134 69.0032 128.205 68.8023C130.156 68.6232 132.077 68.1549 133.946 67.2127C134.193 67.0887 133.955 66.7413 133.712 66.8583C130.945 68.194 128.093 68.4614 125.204 68.2869C127.762 68.0139 130.275 67.3254 132.647 66.291C132.896 66.1828 132.777 65.7843 132.516 65.8848C129.189 67.1619 125.739 67.6854 122.231 67.6213C125.365 67.2542 128.493 65.9286 131.263 64.7708C131.508 64.6685 131.391 64.2827 131.135 64.3752C128.988 65.153 126.84 65.9071 124.613 66.4267C123.112 66.7766 121.657 66.8826 120.178 66.8465C120.91 66.766 121.631 66.6079 122.351 66.4101C125.09 65.6573 127.746 64.4635 130.279 63.194C130.493 63.0866 130.316 62.7188 130.097 62.8149C127.509 63.9472 124.854 64.9697 122.132 65.7332C120.716 66.1307 119.339 66.1951 117.886 66.0916C117.81 66.0863 117.735 66.0816 117.66 66.0765C121.943 65.5654 125.963 63.5275 129.665 61.3234C129.851 61.2126 129.699 60.8829 129.499 60.9778C125.592 62.8402 121.638 64.9382 117.337 65.3674C117.931 65.1684 118.517 64.9418 119.099 64.7036C123.611 62.8582 128.106 60.9612 132.58 59.0264C134.52 58.1873 136.462 57.264 138.524 56.7626C139.548 56.5139 140.773 56.4254 141.753 56.882C140.933 57.3678 140.267 58.1737 139.323 58.3851C139.168 58.4197 139.215 58.6872 139.372 58.6602C140.472 58.4687 141.017 57.5013 141.906 56.9585ZM142.91 59.3818C142.978 59.3286 142.907 59.2167 142.835 59.2683C142.308 59.6432 141.835 60.0833 141.284 60.4257C140.601 60.851 139.788 61.0391 138.993 61.0741C138.839 61.0808 138.85 61.3171 139.003 61.3114C139.697 61.2871 140.393 61.1516 141.014 60.8281C141.747 60.4464 142.265 59.8819 142.91 59.3818ZM115.995 67.7685C118.637 68.1205 121.293 68.6003 123.919 68.7995C130.334 70.138 137.153 71.9054 142.456 75.8441C143.908 76.9213 145.134 78.3015 145.722 80.0257C145.788 80.2175 145.835 80.4072 145.874 80.5952C144.673 80.1146 143.382 79.9879 142.101 80.2245C142.002 80.2432 142.033 80.4171 142.133 80.4001C143.425 80.1798 144.693 80.3084 145.908 80.7752C146.035 81.5512 145.939 82.2825 145.654 82.921C144.562 82.2001 143.286 81.858 141.971 81.9571C141.851 81.966 141.859 82.1486 141.979 82.1425C143.273 82.0759 144.493 82.3922 145.585 83.0648C145.229 83.7707 144.637 84.3526 143.851 84.7367C143.815 84.5663 143.664 84.3424 143.619 84.271C143.391 83.9103 143.015 83.6531 142.614 83.524C142.506 83.489 142.442 83.6677 142.547 83.7102C142.8 83.8114 143.018 83.9478 143.218 84.1319C143.261 84.1709 143.731 84.773 143.688 84.8006L143.689 84.8015L143.68 84.8068L143.672 84.8137L143.671 84.8152C143.464 84.9059 143.248 84.9868 143.016 85.0499C141.165 85.5539 139.116 84.7039 137.424 84.0472C135.653 83.3602 133.917 82.5893 132.206 81.7675C128.975 80.2154 125.887 78.3951 122.907 76.4103C120.218 74.619 117.576 72.757 114.676 71.3105L114.592 71.2705C114.585 71.1977 114.542 71.1275 114.454 71.1004C114.093 70.9877 113.736 70.8638 113.388 70.7221C113.317 70.6924 113.247 70.66 113.176 70.6308C112.641 70.3971 112.13 70.1143 111.665 69.7442C111.573 69.671 111.489 69.5925 111.408 69.5113C114.767 70.4663 118.101 71.5596 120.945 73.642C121.155 73.7957 121.43 73.5015 121.22 73.336C118.364 71.0897 114.999 69.7989 111.559 68.7487C111.733 68.5589 111.932 68.3891 112.154 68.241C113.287 68.7274 114.452 69.1502 115.586 69.6028C118.324 70.695 121.026 71.8751 123.767 72.9592C124.013 73.0562 124.206 72.7021 123.957 72.5887C121.431 71.4333 118.867 70.3588 116.331 69.2247C115.262 68.7464 114.14 68.2958 113.041 67.7996C113.105 67.7763 113.171 67.7534 113.237 67.7326L113.344 67.7701C114.807 68.2695 116.281 68.7317 117.764 69.1667C120.872 70.0781 124.053 70.8004 127.239 71.3868C127.497 71.4342 127.58 71.0546 127.327 70.9916C124.169 70.2076 121.049 69.3293 117.937 68.3813C117.289 68.1833 116.642 67.9762 115.995 67.7685ZM114.875 82.3191C114.953 82.5559 115.294 82.4371 115.24 82.2013C114.751 80.0954 114.052 78.1168 113.195 76.2123C113.499 76.6534 113.801 77.0934 114.107 77.5283C115.9 80.0777 117.966 82.5896 119.258 85.4399C121.732 90.8942 118.299 96.312 115.123 100.685C115.073 100.676 115.019 100.678 114.958 100.7C113.348 101.279 112.941 98.5842 112.664 97.6698C112.352 96.6373 112.044 95.6035 111.742 94.5678C111.137 92.4961 110.575 90.4123 110.076 88.312C109.313 85.0941 108.734 81.8094 108.482 78.5048C108.505 78.375 108.532 78.2474 108.563 78.1204C109.187 82.1663 110.468 86.1188 112.226 89.8035C112.328 90.0194 112.689 89.9093 112.587 89.6866C110.616 85.3976 109.641 81.0255 109.16 76.4789C109.281 76.2158 109.408 75.9547 109.536 75.6939C109.656 76.2665 109.778 76.8393 109.909 77.4124C110.72 80.9737 112.004 84.4516 113.553 87.7543C113.656 87.9739 114.021 87.8641 113.92 87.6358C112.437 84.2687 111.334 80.7958 110.576 77.1966C110.392 76.3238 110.236 75.438 110.082 74.5486C110.16 74.3724 110.235 74.1955 110.305 74.0167C110.676 75.0997 111.022 76.1953 111.346 77.3117C112.174 80.1713 112.949 83.0952 114.259 85.781C114.351 85.97 114.673 85.8139 114.593 85.6208C113.393 82.7063 112.587 79.7172 111.808 76.6686C111.522 75.5532 111.234 74.4105 110.898 73.2802C111.334 73.983 111.768 74.6872 112.186 75.4007C113.451 77.5619 114.104 79.9588 114.875 82.3191ZM130.916 81.884L130.927 81.826C131.038 81.8813 131.15 81.9362 131.261 81.9907C131.163 81.9671 131.065 81.9435 130.967 81.9191L130.916 81.884ZM108.934 73.817L108.936 73.814C108.984 73.6907 109.028 73.5659 109.07 73.4401C109.134 73.7474 109.198 74.0554 109.261 74.3634C109.184 74.5702 109.104 74.7755 109.021 74.9806C108.989 74.5941 108.96 74.2063 108.934 73.817ZM40.6421 70.0177C40.5649 69.0727 40.3923 67.9778 40.7625 67.0761C40.9527 67.3525 41.1395 67.6306 41.3246 67.91C41.0475 71.9064 43.3792 75.5266 43.4589 79.5184C43.544 83.7493 39.3209 86.6132 35.3486 88.0577C36.5613 86.8634 37.069 85.2055 37.1804 83.5189C37.1931 83.3287 36.8988 83.3455 36.885 83.5322C36.7587 85.2689 36.2213 87.0078 34.8516 88.1746L34.8097 88.2457C34.1447 88.4673 33.4924 88.6505 32.875 88.7909C33.439 88.1317 33.905 87.4069 34.2568 86.6121C34.3341 86.4372 34.0676 86.3018 33.9917 86.4773C33.6367 87.3011 33.1649 88.0531 32.5799 88.7328C32.5966 87.6233 32.6321 86.5078 32.6179 85.3952L32.6998 85.3609C33.2566 84.8449 33.6841 84.2302 33.9766 83.5318C34.0461 83.3662 33.7962 83.2383 33.7274 83.405C33.4667 84.0363 33.09 84.5936 32.6116 85.0785C32.5965 84.4082 32.5624 83.7388 32.4895 83.0732C32.4797 82.9838 32.467 82.8952 32.4552 82.8063C32.4608 82.7311 32.4504 82.6601 32.4248 82.5959C32.3833 82.3297 32.3326 82.0652 32.2739 81.8016C32.3089 81.7775 32.3382 81.7439 32.3525 81.6927L32.382 81.5781C32.4263 81.5549 32.4626 81.5122 32.478 81.4449C32.6009 80.9049 32.7024 80.3622 32.789 79.8181C33.3432 76.9939 33.466 74.1097 33.5026 71.2298C33.5236 69.57 33.5333 67.9108 33.5957 66.252C33.6333 66.148 33.67 66.0442 33.7111 65.9404C33.7652 65.8059 33.7105 65.684 33.62 65.6145C33.6437 65.0926 33.6753 64.4773 33.7574 63.8555C33.956 63.5021 34.1517 63.2086 34.2553 63.0704C34.5955 62.6143 35.032 62.2726 35.5223 62.0399C34.8292 63.7591 35.0083 65.7083 35.0065 67.6314C35.0063 67.8975 35.4029 67.8706 35.4152 67.6132C35.5158 65.5088 35.547 63.5333 36.5862 61.761C36.8212 61.9599 37.0529 62.1938 37.2722 62.4387C36.8217 63.0443 36.6884 63.9132 36.559 64.6285C36.3579 65.7445 36.2173 67.1312 36.8575 68.1211C36.9784 68.3081 37.3035 68.1623 37.2177 67.9486C36.864 67.0685 37.0623 66.0284 37.2117 65.1226C37.3123 64.5137 37.446 63.6732 37.8257 63.0998C38.1288 63.4838 38.3831 63.8364 38.5531 64.0561C38.7685 64.3336 38.9807 64.6137 39.1915 64.8947C38.8815 65.4977 38.805 66.1917 38.7027 66.8681C38.565 67.7774 38.5416 68.6799 38.7755 69.5731C38.8345 69.7987 39.2114 69.7329 39.1828 69.4994C39.0902 68.7506 39.144 68.0329 39.2766 67.2903C39.3739 66.7492 39.4715 66.1168 39.6914 65.5716C39.8976 65.853 40.1014 66.1367 40.3029 66.4215C40.2946 66.4681 40.2935 66.5157 40.305 66.5628C40.2265 66.774 39.9555 67.2325 39.9041 67.4711C39.7606 68.1391 39.8934 68.8988 39.9456 69.5654C40.0709 71.1809 40.4597 72.7983 40.057 74.4059C39.9919 74.6649 40.3709 74.7324 40.4531 74.4922C40.9593 73.0141 40.7665 71.5436 40.6421 70.0177ZM40.6468 81.7287C41.4748 80.8099 41.7905 79.5974 41.5161 78.396C41.4498 78.1092 41.0331 78.2567 41.0856 78.5352C41.2826 79.5787 41.0233 80.6415 40.3636 81.4773C40.2138 81.6674 40.4812 81.9128 40.6468 81.7287ZM110.787 70.4359C116.288 72.2229 120.846 76.0022 125.762 78.9881C127.298 79.9211 128.872 80.7897 130.475 81.6011C128.518 81.5436 126.569 80.3302 124.89 79.442C122.887 78.3835 121.049 77.0966 119.204 75.794C116.746 74.0595 112.922 73.5218 110.732 71.3857C110.738 71.192 110.743 70.9987 110.751 70.8075C110.757 70.6799 110.77 70.5568 110.787 70.4359ZM35.826 59.6554L35.8567 59.6206L35.9115 59.6768C35.8465 59.7022 35.7814 59.7273 35.7188 59.7554C35.7515 59.7196 35.7876 59.6859 35.826 59.6554ZM34.0269 52.2437C31.2853 53.5389 30.7907 57.1227 30.8508 59.8296C30.8542 59.9723 31.088 59.9972 31.1046 59.8511C31.4098 57.2586 31.5532 54.6663 33.7215 53.0735C33.5934 53.4781 33.4943 53.8918 33.4387 54.3187C32.8912 54.6272 32.6943 55.2944 32.5364 55.9352C32.2515 57.0927 32.2619 58.3701 32.1698 59.5531C32.1583 59.6995 32.4046 59.7183 32.4258 59.5749C32.5412 58.788 32.6557 58.0009 32.7643 57.2124C32.8507 56.5877 32.9486 55.63 33.3907 55.0497C33.3851 55.3633 33.3972 55.6823 33.44 56.0104C33.5153 56.5858 33.714 57.0939 33.9919 57.5568C32.9645 58.2581 32.827 60.0954 32.7544 61.2006C32.7446 61.3499 32.9955 61.3701 33.0162 61.223C33.1607 60.1851 33.3891 58.6622 34.2683 57.9683C34.5204 58.3083 34.8123 58.6246 35.1259 58.9261C34.7006 59.0234 34.3362 59.2653 34.1336 59.6748C34.0633 59.8172 34.2733 59.9748 34.3709 59.8364C34.6083 59.4996 34.9719 59.2798 35.3934 59.3131C35.4384 59.3165 35.4733 59.3032 35.5031 59.2836L35.5547 59.333C35.2335 59.5353 34.981 59.7824 34.934 60.095C34.4724 60.3744 34.118 60.7879 33.8486 61.2899L33.8031 61.3556C32.5546 63.0874 32.1732 65.6078 32.1109 67.5965C32.0425 69.7935 32.3753 71.9919 32.4603 74.1847C32.5484 76.4592 32.3659 78.6947 32.1248 80.9509C32.1153 80.9931 32.1042 81.0358 32.0944 81.0781C31.7259 79.7314 31.1938 78.4174 30.7341 77.116C29.4335 73.4369 28.8892 69.5395 29.0033 65.6443C29.1141 61.8737 29.8795 57.6315 31.739 54.3018C32.1053 53.6464 32.5704 53.0692 33.082 52.5288C33.3939 52.3175 33.7072 52.1097 34.0174 51.9014C34.0696 51.917 34.1263 51.9224 34.1814 51.909C34.129 52.0201 34.0758 52.131 34.0269 52.2437ZM32.933 51.4838L32.9504 51.4692L32.9518 51.4713L32.933 51.4838ZM18.9911 29.9869C19.0782 29.9798 19.1676 29.9464 19.2496 29.875C19.3746 29.7667 19.496 29.6543 19.6185 29.5428C19.7158 29.5086 19.7958 29.4424 19.837 29.3455C21.2155 28.0603 22.466 26.6089 23.7831 25.2693C24.2353 24.8095 24.7084 24.4229 25.1968 24.0752C26.2082 24.7587 26.8829 26.2908 27.3693 27.2473C27.4498 27.4044 27.524 27.5632 27.5956 27.7218C27.0317 27.0086 26.3753 26.3736 25.6299 25.8549C25.4069 25.7 25.1221 25.9905 25.3397 26.1788C26.6448 27.3061 27.4877 28.5817 28.0635 29.9775C28.0152 29.9212 27.9703 29.8636 27.9205 29.8081C27.581 29.4306 27.1702 29.1241 26.758 28.8316C26.3942 28.5737 25.7817 28.3977 25.5694 27.9726C25.4635 27.7607 25.1098 27.9348 25.1937 28.1528C25.4092 28.7117 25.905 28.8978 26.38 29.2528C27.1739 29.8469 27.7858 30.6485 28.3032 31.4831C28.5009 31.8025 28.6708 32.1317 28.8207 32.4676C28.888 32.7814 28.9483 33.0996 29.0037 33.4221C28.1487 32.2116 27.0531 31.259 25.7149 30.8232C25.493 30.7508 25.361 31.1193 25.5765 31.2059C28.3894 32.3403 29.5702 35.6164 30.1223 38.637C30.032 38.4382 29.9392 38.241 29.8431 38.0456C28.9872 36.305 27.5795 34.8583 25.9805 33.7843C25.7918 33.6576 25.587 33.9663 25.7572 34.1083C27.4034 35.4793 28.6445 37.1471 29.4667 39.1224C29.8938 40.1487 30.0071 41.2761 30.2374 42.3583C30.0869 41.9607 29.9196 41.5707 29.7302 41.1922C28.841 39.4202 27.5936 37.9255 25.7641 37.0816C25.5249 36.9712 25.3575 37.3072 25.5793 37.4419C27.759 38.7653 28.9147 40.9472 29.6737 43.3042C29.9184 44.064 30.0404 45.0572 30.2873 45.9789C30.2254 45.8495 30.1636 45.7219 30.1011 45.5996C29.6484 44.7162 29.1591 43.8616 28.5301 43.0903C27.7256 42.1043 26.5637 41.293 25.2557 41.266C25.0725 41.2618 24.9978 41.5576 25.1772 41.6233C27.1981 42.3604 28.2691 43.7989 29.2153 45.6619C29.5223 46.267 29.8404 47.1155 30.313 47.7598C29.34 47.449 28.5579 46.8338 27.7117 46.1452C26.9507 45.5255 26.0782 44.8773 25.0542 44.9134C24.7625 44.924 24.7944 45.339 25.0733 45.355C26.5326 45.4375 27.5941 46.9915 28.6589 47.8221C29.3357 48.3497 30.1269 48.6564 30.9646 48.7692C30.2916 49.1891 29.393 49.3708 28.6479 49.2771C27.8657 49.179 27.5219 48.5817 26.6893 48.8781C26.4305 48.97 26.557 49.3631 26.8201 49.2819C27.4062 49.1006 27.9311 49.668 28.4218 49.9045C28.8104 50.0921 29.3069 50.0248 29.7161 49.9801C30.2457 49.9216 30.7635 49.8242 31.2163 49.6115C31.0813 50.041 30.841 50.4173 30.4967 50.7735C30.0416 51.2434 28.3685 52.2228 27.7053 51.6288C27.5005 51.4451 27.2367 51.7494 27.4228 51.9433C28.0968 52.6444 29.4853 52.2257 30.2259 51.8479C30.2623 51.8291 30.2975 51.8088 30.3332 51.7892C30.1844 51.9641 30.0404 52.1428 29.918 52.3408C29.6269 52.8103 29.3149 53.3491 29.1145 53.9111C28.2321 55.1201 27.5729 57.5155 25.7571 56.7689C24.2 56.129 23.5339 54.0638 23.0887 52.6118C22.5608 50.8879 22.3419 49.0817 21.8963 47.3365C21.7963 46.9435 21.6772 46.5633 21.545 46.1923C21.4458 45.6468 21.2608 45.1338 21.0146 44.6429C21.0143 44.5697 20.9838 44.5 20.9165 44.4544C20.8479 44.327 20.775 44.2011 20.6986 44.0765C20.6763 43.9684 20.6141 43.8643 20.5212 43.7971C20.3734 43.574 20.2154 43.3545 20.0494 43.1385C19.1281 41.6383 18.0291 40.2386 16.9573 38.7659C15.7626 37.1237 14.8523 35.2995 16.2141 33.4494C16.7143 32.7702 17.2443 32.1088 17.782 31.4522C17.8315 31.4169 17.8712 31.3694 17.895 31.3122C18.1293 31.027 18.3644 30.7429 18.6004 30.4589L18.6718 30.3721C18.7786 30.244 18.8848 30.1153 18.9911 29.9869ZM30.7909 23.0304L30.7964 23.0302L30.8111 23.0841L30.7909 23.0304ZM8.73858 40.2994C8.18954 37.8565 7.26925 35.8249 6.03671 33.6644C4.66067 31.2529 4.1195 28.5077 4.19331 25.7515C4.19488 25.7055 4.18096 25.6718 4.16234 25.6428C6.50088 25.0394 8.85557 24.5501 11.2498 24.2214C13.4244 23.9229 15.4212 23.7526 17.4566 24.6008C17.3836 25.8851 17.4887 27.1375 18.0334 28.289L17.9918 28.2386C17.6284 27.8266 17.2309 27.4641 16.8089 27.112C16.3698 26.7459 15.4731 26.2881 15.3555 25.6863C15.3092 25.4525 14.9136 25.5264 14.9424 25.7607C15.0169 26.3649 15.5134 26.6808 15.9526 27.0721C16.6424 27.6865 17.6775 28.4693 17.9465 29.4378C17.893 29.466 17.8495 29.5171 17.8322 29.5964C17.8194 29.6562 17.8025 29.7137 17.7873 29.7724C17.6696 29.9043 17.5517 30.0375 17.4344 30.1723C17.2355 29.9145 16.994 29.6871 16.7206 29.4808C16.4445 29.2727 16.1325 29.1199 15.8175 28.9809C15.3779 28.7858 14.6189 28.7351 14.4402 28.1934C14.3491 27.9177 13.9398 28.0546 14.0125 28.3319C14.1873 28.9974 14.7494 29.1598 15.3392 29.3906C16.0286 29.6603 16.6027 30.1064 16.9744 30.7122C16.7124 31.0292 16.4592 31.3554 16.2201 31.6892C15.9071 31.4839 15.5569 31.3463 15.1638 31.2426C14.227 30.9957 13.0234 30.9922 12.6069 29.9369C12.5097 29.6906 12.1488 29.8071 12.2149 30.0635C12.6569 31.7722 14.657 31.4432 15.8124 32.2933C15.1859 33.2897 14.7308 34.3633 14.6495 35.5309C14.5482 36.9846 15.4826 38.3448 16.2964 39.4527C16.871 40.235 17.4511 41.0235 18.0459 41.7999C17.6529 41.5495 17.2565 41.3021 16.8754 41.0327C15.3169 39.9294 14.1284 38.3602 13.3214 36.648C13.2127 36.4176 12.8303 36.531 12.9349 36.7727C13.5666 38.2334 14.4243 39.5148 15.5324 40.6592C16.5808 41.7419 17.9526 42.4277 19.0373 43.4472C18.5887 43.7086 18.2731 44.1371 18.0231 44.6222C16.3199 44.489 14.7696 43.1145 13.7784 41.7962C13.6044 41.5649 13.2369 41.7986 13.3978 42.0459C14.2418 43.3447 15.9176 45.1786 17.6713 45.414C17.6095 45.5703 17.55 45.7259 17.4913 45.8779C17.299 46.3751 17.1713 46.9632 17.042 47.5706C15.2108 47.3091 13.5753 46.1842 12.5013 44.6847C12.3479 44.4708 12.054 44.6793 12.1668 44.9043C13.0415 46.6543 14.9192 47.9979 16.8832 48.2957C16.8322 48.5168 16.7766 48.7353 16.7159 48.9505C15.2199 48.875 13.7429 48.3607 12.6 47.381C12.3864 47.1976 12.103 47.5133 12.3081 47.7062C13.492 48.8193 14.8788 49.524 16.4558 49.7112C16.3534 49.9587 16.2354 50.1934 16.0951 50.4074C15.4255 50.6609 14.4051 50.4731 13.6982 50.2056C12.767 49.4315 11.9461 48.5327 11.2368 47.4892C9.78061 45.3455 9.29591 42.7806 8.73858 40.2994ZM13.0703 61.6229C10.7849 61.1187 9.15908 59.0456 7.49274 57.5411C5.7672 55.9829 3.91975 54.5445 1.95438 53.2986L2.04188 53.2458C4.8173 50.4334 5.36266 45.9248 8.96597 43.8908C9.27479 44.9422 9.64935 45.9645 10.1539 46.9467C9.86393 46.7428 9.55603 46.5766 9.23476 46.4618C8.99312 46.3751 8.76674 46.6488 8.97093 46.8446C9.45554 47.3083 9.97106 47.7111 10.399 48.2337C10.5678 48.4396 10.7126 48.6597 10.8491 48.885C10.7222 48.8485 10.5961 48.8134 10.4741 48.7789C10.1665 48.6924 10.07 49.1139 10.2986 49.2642C10.8968 49.6577 11.5724 49.9533 12.1101 50.4281C12.2702 50.569 12.4129 50.7278 12.5492 50.8927C12.0836 50.825 11.612 50.7418 11.2126 50.5367C10.9661 50.4104 10.6937 50.7789 10.9307 50.9461C11.5005 51.3469 12.1695 51.5241 12.8308 51.7238C13.0073 51.7771 13.1906 51.8401 13.3779 51.9049C13.4216 51.9505 13.4651 51.9966 13.5107 52.04C13.6575 52.1777 13.8343 52.1789 13.9775 52.1057C14.0787 52.1378 14.1793 52.1674 14.2807 52.1952C13.3757 52.4051 12.479 52.5045 11.5225 52.2732C11.2231 52.2006 11.1049 52.6102 11.3485 52.756C12.3058 53.3289 13.3893 53.3227 14.4485 53.1316C14.0563 53.3469 13.6716 53.5739 13.6249 53.596C13.0146 53.8845 12.3552 54.0576 11.7213 54.2848C11.4323 54.3888 11.4934 54.8684 11.8195 54.8314C12.8467 54.7143 13.8526 54.3655 14.8084 53.981C14.9183 53.9365 15.032 53.8884 15.1458 53.8378C14.4338 54.7172 13.4099 55.4285 12.4118 55.8058C12.2081 55.8832 12.2521 56.2011 12.4809 56.189C13.1688 56.1517 14.0448 55.8324 14.8184 55.3416C14.4602 56.3265 13.9553 57.2099 12.978 57.8578C12.7741 57.9928 12.9302 58.3483 13.1674 58.252C13.4003 58.1578 13.6208 58.043 13.8289 57.9125L13.8143 57.9454C13.4829 58.7444 13.3146 59.6088 12.6672 60.2323C12.4647 60.427 12.7543 60.738 12.9801 60.5941C13.3777 60.3406 13.6608 60.0144 13.8913 59.6475C13.6931 60.3398 13.5131 61.0361 13.3579 61.7383L13.2478 61.7006C13.2006 61.6657 13.1423 61.6386 13.0703 61.6229ZM33.7581 50.8054L33.798 50.7727L33.8007 50.775L33.7508 50.8227L33.7581 50.8054ZM2.9388 50.6213C2.87119 50.6027 2.79356 50.6038 2.70764 50.6358C1.94713 50.9201 0.953354 46.4023 0.833584 45.8458C0.641971 44.9603 0.448953 44.0257 0.58081 43.117C0.680176 42.433 1.49359 41.7996 1.85775 41.2321C3.23365 39.0899 3.86273 36.322 6.01228 34.7752C6.35674 35.3829 6.70377 35.989 6.99194 36.6274C7.60537 37.9883 7.91485 39.4845 8.23362 40.9348C8.24808 41.0003 8.26273 41.0649 8.27708 41.1301C8.12789 40.8894 7.96517 40.6589 7.78019 40.4472C7.05722 39.6201 6.2513 39.2706 5.23442 38.9185C5.00324 38.8388 4.86888 39.2221 5.08987 39.3178C5.97512 39.7007 6.71567 40.0587 7.32919 40.8346C7.66788 41.2627 7.90612 41.7574 8.11745 42.2633C7.95517 42.2117 7.79923 42.1707 7.66773 42.1392C6.78873 41.9251 5.75558 42.0673 4.8601 42.0815C4.58975 42.0858 4.61857 42.477 4.87778 42.4915C5.68891 42.537 6.50773 42.5322 7.30611 42.6941C7.61671 42.7572 7.89852 42.8875 8.17198 43.0405C6.37688 43.7159 4.94291 44.9173 3.65402 46.3395C3.47391 46.5379 3.76525 46.7768 3.95609 46.6084C4.64095 46.0045 5.34325 45.4206 6.09235 44.9156C5.83069 45.2279 5.58289 45.5564 5.34794 45.9006C4.85564 46.6216 4.47087 47.4164 4.09349 48.2006C3.75198 48.9107 3.46171 49.9372 2.9388 50.6213ZM3.2355 50.7936L3.18891 50.877L3.17995 50.8552L3.2355 50.7936ZM31.7068 25.6063L31.7184 25.6219L31.7232 25.6539L31.7068 25.6063ZM29.0754 83.7357C30.0881 82.7324 30.396 81.4488 30.3669 80.1011C30.8014 80.9868 31.1642 81.8879 31.4496 82.7734C29.6567 86.4286 26.549 89.2221 22.6319 90.4596C21.4106 86.9422 20.3582 83.3864 19.3082 79.8145C18.5945 77.3863 18.214 75.0683 18.5681 72.7489C18.7617 72.228 19.0731 71.8203 19.47 71.4796C19.5997 71.5814 19.7282 71.6849 19.8591 71.7848C19.9891 71.8844 20.1296 71.8844 20.2416 71.8304L20.3495 71.9024C19.8925 72.329 19.5466 72.871 19.3825 73.47C19.3241 73.6829 19.6477 73.8674 19.7817 73.6727C20.187 73.085 20.6466 72.6535 21.1869 72.3329C21.2437 72.3558 21.3008 72.3785 21.3589 72.3998C21.6452 72.5058 21.9273 72.5916 22.2055 72.6692C21.4761 73.0912 20.8438 73.6743 20.3693 74.3802C20.2427 74.5691 20.557 74.7809 20.6962 74.6035C21.2834 73.8553 22.1088 73.5546 22.9521 73.269C22.4997 73.7173 22.1392 74.2761 21.8453 74.8534C21.7242 75.0906 22.0795 75.2673 22.2117 75.0394C22.7303 74.148 23.6074 73.7244 24.5136 73.3462L24.5687 73.3708C24.0143 73.8483 23.7181 74.511 23.2999 75.0988C23.1678 75.2849 23.38 75.6072 23.587 75.4305C23.8217 75.2296 24.0202 74.9998 24.2215 74.7722C24.7037 74.427 25.2312 74.2366 25.8117 74.1497C25.1842 74.6386 24.701 75.3349 24.4564 76.0535C24.3608 76.3337 24.7984 76.467 24.9298 76.2218C25.3279 75.4805 25.8584 75.0377 26.505 74.7299C26.0029 75.33 25.6851 76.0958 25.6091 76.8545C25.5807 77.1364 25.9821 77.2404 26.0508 76.9505C26.1936 76.3471 26.4722 75.8601 26.8519 75.461C26.791 76.5967 26.6486 77.7725 25.5471 78.2701C25.2867 78.3877 25.399 78.7803 25.6854 78.6983C27.0013 78.3242 27.4374 77.1492 27.645 75.9253C27.7355 76.0307 27.8236 76.1388 27.9118 76.2468C27.8347 76.6972 27.7419 77.1463 27.6198 77.5995C27.3293 78.6785 26.5809 79.431 25.7893 80.1723C25.6207 80.33 25.8629 80.5942 26.0482 80.4712C26.9828 79.8503 27.7902 79.2185 28.2834 78.1904C28.4255 77.8933 28.5535 77.5701 28.6643 77.2338C28.7469 77.3498 28.8293 77.4663 28.9094 77.5843C28.8099 79.2186 27.9851 80.3343 27.2946 81.8055C27.1866 82.0358 27.5126 82.1962 27.6427 81.9825C28.0764 81.2728 28.6306 80.6909 29.0061 79.9452C29.2416 79.4789 29.3759 78.9669 29.4625 78.4496C29.5245 78.5512 29.5865 78.6528 29.6467 78.7557C29.981 80.4477 30.0153 82.1457 28.7837 83.4764C28.6114 83.6628 28.8971 83.9123 29.0754 83.7357ZM28.2651 65.5823C28.1966 67.3238 28.283 69.0697 28.5104 70.7973C27.6679 72.1791 24.7181 71.5208 23.5386 71.1909C22.1072 70.7904 20.8732 69.9536 19.8056 68.9482C18.4446 67.6665 16.8372 66.7339 15.3368 65.6616C14.8678 65.2678 14.3875 64.8873 13.891 64.5275C13.7133 64.3722 13.5385 64.2136 13.369 64.0476L13.3498 64.0324C13.8857 60.6172 15.109 57.4151 16.3146 54.1846C16.8529 52.7413 17.3509 51.2834 17.7763 49.8027C18.2135 48.2804 18.2578 45.6563 19.7553 44.7518C20.9365 47.049 21.3592 49.572 21.8415 52.0954C22.0056 52.9522 22.1566 53.9823 22.4478 54.9473C22.0615 54.594 21.6794 54.2362 21.3079 53.8729C21.1349 53.7036 20.822 53.9646 20.9812 54.1539C21.7078 55.0179 22.4531 55.9753 23.3118 56.7743C23.5778 57.1319 23.8956 57.4411 24.2893 57.6709C24.3647 57.7147 24.4411 57.7232 24.5127 57.7092C24.6512 57.7963 24.7921 57.8794 24.9368 57.9545C25.1927 58.0872 25.519 58.1891 25.8749 58.2518C25.8368 58.2627 25.8011 58.2762 25.7622 58.286C24.302 58.6633 22.6006 58.1945 21.8215 56.8622C21.6912 56.639 21.3644 56.8587 21.4873 57.0813C22.5582 59.031 24.532 59.4104 26.3817 58.8987C25.6837 59.6835 24.8201 60.3008 23.5773 60.5867C23.3211 60.646 23.3985 61.0755 23.6587 61.0403C25.6856 60.7637 27.0357 59.7587 28.1151 58.1387C28.1612 58.1099 28.2066 58.08 28.2521 58.0506C27.4598 60.1042 26.6555 62.1283 24.6924 63.4856C24.43 63.6668 24.6891 64.0556 24.9626 63.8953C26.2474 63.1434 27.2468 62.2094 27.9844 61.0127C27.9084 61.1971 27.8343 61.3789 27.7665 61.556C27.0956 63.3045 26.4155 65.0475 25.7959 66.8148C25.7088 67.0636 26.0971 67.1776 26.2157 66.9641C26.7295 66.0378 27.1948 65.091 27.6291 64.1309C27.6065 64.2317 27.5822 64.3325 27.5617 64.4345C27.1668 66.3707 27.5798 68.6401 26.0926 70.1924C25.8885 70.405 26.2145 70.672 26.4252 70.4883C27.6916 69.3808 27.9794 67.9151 28.1637 66.3105C28.1921 66.0648 28.2272 65.8229 28.2651 65.5823ZM17.711 73.3998C17.6639 73.9331 17.6464 74.4682 17.6624 75.0057C17.4812 74.9942 17.3383 75.1095 17.2725 75.2575C15.3705 75.841 12.6808 74.8376 11.0719 74.0332C8.81919 72.9067 7.13624 70.9365 5.81698 68.8475C6.17834 68.2211 6.16292 67.6123 6.07361 66.9086C5.91382 65.6579 5.72244 64.4108 5.55077 63.1621C5.28319 61.22 4.79808 59.0866 5.64098 57.2464C6.63354 58.5967 7.89248 59.8121 9.16605 60.8896C10.1288 61.704 11.2381 62.3523 12.4886 62.4586C12.4794 62.5034 12.4844 62.5514 12.5123 62.5958C12.5364 62.634 12.5561 62.673 12.574 62.712C12.5376 62.7778 12.4941 62.8429 12.4379 62.9086C12.1827 63.2084 11.8149 63.3779 11.4628 63.5332C11.2028 63.6477 11.3185 64.0134 11.5978 63.9509C11.9285 63.8759 12.3116 63.7415 12.6515 63.5464C12.5863 63.9824 12.4333 64.4292 12.5086 64.8447C12.6467 65.6047 13.2196 66.0924 13.787 66.5689C13.5036 66.5712 13.2192 66.5725 12.9333 66.5589C12.6889 66.5472 12.6676 66.9273 12.8967 66.9756C13.4448 67.0916 14.004 67.1444 14.5555 67.2365C14.9482 67.5833 15.3404 67.9328 15.7324 68.2832C15.313 68.4083 14.8893 68.5803 14.4628 68.3812C14.2517 68.2824 14.0156 68.5864 14.2216 68.731C14.7539 69.1041 15.3024 69.055 15.9212 68.953C16.0889 68.9255 16.257 68.9091 16.425 68.8999C16.7039 69.1482 16.9839 69.3945 17.2652 69.6404C16.5091 70.0493 15.7202 70.3878 14.8933 70.7116C14.6596 70.8031 14.7114 71.1543 14.9719 71.1484C15.9235 71.1265 16.8452 70.8758 17.701 70.4746C17.622 70.7452 17.5446 71.017 17.4752 71.2917C17.0858 71.9534 16.5765 72.5303 15.9065 73.041C15.7151 73.187 15.851 73.5468 16.0998 73.4435C16.4618 73.2931 16.8047 73.0951 17.1219 72.8589C17.0046 73.4289 16.8934 73.9989 16.7849 74.5631C16.7367 74.8133 17.1206 74.9724 17.2204 74.7184C17.3901 74.2858 17.5551 73.8452 17.711 73.3998ZM37.4695 44.183C37.3572 44.8177 37.1584 45.4061 36.8908 45.9554C35.7083 44.1321 35.4325 41.9825 35.1739 39.8317C34.9108 37.6424 34.5105 35.4871 33.9911 33.3443C33.6044 31.7502 33.162 30.1653 32.6782 28.5909C32.6507 27.5629 32.4967 26.5827 32.2804 25.6037L32.2916 25.5865C32.542 26.3738 32.7906 27.162 33.0347 27.9513C33.9807 31.0089 34.9003 34.0754 35.8355 37.1359C36.5438 39.4547 37.1999 41.7845 37.4695 44.183Z" fill="white"/>
</svg>
