<svg width="185" height="104" viewBox="0 0 185 104" fill="none" xmlns="http://www.w3.org/2000/svg">
<path fill-rule="evenodd" clip-rule="evenodd" d="M48.2888 63.3553C47.8844 63.736 47.4919 64.1304 47.1067 64.5308C47.5256 64.0241 47.9722 63.544 48.4748 63.1162C48.4133 63.1959 48.3503 63.2756 48.2888 63.3553ZM52.1052 61.4873C52.1806 61.4664 52.2551 61.4436 52.3309 61.4237L52.3323 61.4517C52.2559 61.4629 52.1811 61.4762 52.1052 61.4873ZM50.4728 62.3617L50.571 62.2736L50.6952 62.2565C50.6222 62.2931 50.5449 62.3233 50.4728 62.3617ZM45.8164 69.8117C48.4907 67.8171 50.8449 65.5155 54.2035 64.755C57.7473 63.9529 61.7114 64.9732 65.2787 64.5215C61.5671 65.7014 57.0802 64.9624 53.3536 66.0816C51.4935 66.6407 49.9787 67.7428 48.4943 68.9531C46.7209 70.3985 44.8208 71.3425 42.681 71.6619C43.8022 71.2574 44.8269 70.55 45.8164 69.8117ZM48.194 67.1194C46.2687 68.6336 44.2647 70.8455 41.8045 71.4448C43.2384 70.6054 44.404 69.3817 45.4927 68.0837C46.1865 67.2564 46.8495 66.4647 47.5395 65.7396C47.754 65.5256 47.974 65.3166 48.185 65.0993C49.3078 64.5206 50.485 64.0561 51.7402 63.7243C54.1931 63.0755 56.5738 63.4308 59.0583 63.3817C61.3868 63.3358 63.7416 62.9971 66.0722 62.8634C66.7116 62.8268 67.3321 62.7304 67.9288 62.5678C67.7107 62.77 67.4943 62.9745 67.2821 63.1831C63.2921 64.7954 58.2364 63.2777 54.0347 64.044C51.8208 64.4474 49.9257 65.7576 48.194 67.1194ZM51.7531 60.5938C45.6391 62.4269 40.6466 67.5427 34.2394 67.6705C36.325 67.0186 38.027 65.5279 39.1921 63.5973C40.177 61.9653 40.7627 60.1311 41.8124 58.5145C43.2661 56.2754 45.3455 54.504 47.5475 53.0412C49.0868 52.0184 50.7714 51.256 52.5268 50.7332C54.7544 50.3158 57.0384 50.2377 59.3016 50.3964C59.515 50.4284 59.7281 50.461 59.9442 50.487C60.5093 50.6788 61.072 50.8775 61.6341 51.078C61.0314 51.3876 60.3758 51.5927 59.6967 51.6836C59.4317 51.7189 59.4861 52.1385 59.744 52.1412C60.7664 52.153 61.6924 51.874 62.5468 51.3976C63.812 51.8632 65.0695 52.3485 66.3172 52.859C66.56 52.9585 66.8029 53.0664 67.0451 53.174C65.6358 54.0155 64.0771 53.984 62.421 53.3466C62.1759 53.2524 62.0013 53.6388 62.229 53.7653C63.9693 54.7297 66.3724 54.9161 67.9568 53.592C68.7885 53.9843 69.6212 54.391 70.4649 54.7666C69.0677 55.9898 66.1184 55.9768 64.5435 55.761C64.2698 55.7235 64.2209 56.1475 64.4679 56.2265C65.8742 56.6775 67.3057 56.487 68.7416 56.2889C69.74 56.1515 70.6498 55.8441 71.3005 55.1233C71.6945 55.2822 72.0923 55.4255 72.4935 55.5554C70.9913 58.1071 67.9547 58.7106 65.1799 58.3868C64.8996 58.3541 64.8429 58.789 65.1021 58.8665C66.7086 59.3471 69.1043 59.1968 70.9079 58.3001C70.2506 59.1407 69.4951 59.8847 68.6186 60.404C63.2697 61.5044 57.1928 58.9626 51.7531 60.5938ZM63.0667 62.2145C60.5727 62.3621 58.1797 62.5862 55.6736 62.5637C53.6564 62.5457 51.6707 62.9873 49.8146 63.7526C50.7883 63.0856 51.8872 62.5655 53.2123 62.2505C56.3861 61.4959 59.9161 61.8169 63.1311 62.0867C63.4863 62.1166 63.8399 62.1426 64.1926 62.1651C63.8165 62.1785 63.441 62.1922 63.0667 62.2145ZM35.5532 63.4328C34.0888 64.7955 31.7015 66.6111 29.5029 66.7067C28.6358 66.4998 27.8427 66.1596 27.2025 65.691C30.4173 66.3598 32.9943 64.7628 35.1321 62.2966C36.4383 60.7897 37.6015 59.2286 39.1348 57.9344C39.8428 57.337 40.6037 56.8152 41.3914 56.3343C40.807 57.0025 40.2567 57.705 39.7327 58.4102C38.4242 60.1728 37.1689 61.9296 35.5532 63.4328ZM37.0399 64.8216C35.7072 66.3889 33.2789 67.0682 31.0053 66.9263C33.2217 66.2808 35.3627 64.4116 36.8151 63.0043C38.4517 61.4181 39.7019 59.5103 41.0866 57.7686C39.6081 60.0624 38.8215 62.7275 37.0399 64.8216ZM64.9674 65.5119C62.3428 66.5705 59.0902 66.7957 56.4388 68.0859C51.4036 70.5347 46.6422 73.0892 41.0954 72.2C43.1063 72.2632 44.9836 71.831 46.7998 70.8932C47.7492 70.4024 48.5918 69.6724 49.4241 69.0132C50.8663 67.8714 52.317 67.1096 54.0835 66.6055C57.4236 65.6519 61.5087 66.3473 64.9736 65.5055L64.9674 65.5119ZM163.979 73.8313C163.437 68.843 160.973 64.236 157.123 61.004C156.979 60.883 156.8 60.9183 156.687 61.0145C157.031 60.1554 157.369 59.2966 157.681 58.4284C158.627 58.9573 160.432 60.6462 160.7 60.9195C161.69 61.9299 162.384 63.205 163.026 64.4516C164.225 66.7796 165.121 69.2352 165.868 71.7364C165.433 72.7028 164.784 73.3628 163.979 73.8313ZM170.017 67.4629L169.96 67.5987L169.949 67.4966L170.017 67.4629ZM36.5755 59.5825C33.8297 62.7229 31.4062 66.4295 26.6018 65.1388L26.5865 65.1406C26.2011 64.7259 25.9196 64.2411 25.7711 63.6875C29.178 63.9277 31.892 61.7749 34.4427 59.7752C37.1486 57.6539 39.8656 55.7381 43.017 54.6543C40.6295 55.9683 38.3895 57.5084 36.5755 59.5825ZM162.747 74.3799C161.93 69.9396 159.328 65.986 155.855 63.1541C156.092 62.5187 156.337 61.8888 156.588 61.2629C156.597 61.3168 156.619 61.3703 156.675 61.4189C160.394 64.6363 162.711 68.8673 163.504 73.6925C163.431 73.7244 163.367 73.7798 163.328 73.8679C163.277 73.9806 163.226 74.0991 163.176 74.2208C163.036 74.2769 162.893 74.3304 162.747 74.3799ZM158.731 54.7003C161.877 57.6037 164.775 60.8116 167.111 64.4066C167.503 65.0095 167.598 65.6166 167.538 66.2215C165.331 62.1355 162.251 58.4775 158.5 55.7377C158.584 55.3946 158.667 55.052 158.731 54.7003ZM166.197 70.4734C165.508 67.7085 164.087 64.8907 162.667 62.5486C161.88 61.2515 159.687 58.4472 157.759 58.2069C157.988 57.5568 158.202 56.9011 158.381 56.2305C162.072 59.3305 165.07 62.8909 167.34 67.1439C167.036 68.1362 166.5 69.1142 166.353 70.0519L166.351 70.0641C166.296 70.1972 166.243 70.3325 166.197 70.4734ZM145.473 58.3766C145.507 58.4173 145.541 58.4575 145.575 58.4981L145.467 58.3866L145.473 58.3766ZM87.2735 85.4868C88.391 82.6562 89.0715 79.8025 89.3809 76.7493C89.8519 72.0943 89.3293 68.3466 92.6831 64.5336C94.0965 62.9269 95.8459 61.6403 97.7829 60.6086C97.855 60.5765 97.9215 60.5369 97.9898 60.5C103.061 57.8656 109.408 57.0001 114.672 57.124L114.719 57.1155C114.793 57.2162 114.867 57.3165 114.948 57.4129C114.041 57.9936 113.053 58.3507 111.944 58.3828C111.603 58.3925 111.583 58.9077 111.93 58.917C113.167 58.95 114.396 58.6139 115.432 57.9408C115.714 58.2135 116.023 58.4661 116.341 58.7107C114.97 59.639 113.683 60.3483 111.961 60.4732C111.64 60.4965 111.614 60.9892 111.947 60.9817C113.673 60.9415 115.671 60.399 116.94 59.1557C117.419 59.4935 117.901 59.8114 118.357 60.1173C117.09 61.1361 115.514 62.5299 113.786 62.1734C113.461 62.1068 113.304 62.5811 113.633 62.6737C115.373 63.1606 117.903 61.9907 119.093 60.6229C119.814 61.1316 120.551 61.6153 121.304 62.0691C121.106 62.8165 118.633 63.6568 118.219 63.8017C117.019 64.2216 115.74 64.4839 114.475 64.5847C114.164 64.609 114.143 65.0931 114.462 65.0751C116.242 64.9748 117.932 64.6906 119.618 64.0924C120.412 63.8109 121.548 63.3027 122.023 62.49C122.863 62.9657 123.724 63.3987 124.612 63.776C123.635 64.6335 121.731 65.1301 120.794 65.4715C119.273 66.0254 117.448 66.7835 115.807 66.4451C115.503 66.3827 115.361 66.8117 115.665 66.9118C117.616 67.5546 119.694 66.7129 121.559 66.0969C122.748 65.7039 124.746 65.2727 125.591 64.1642C125.729 64.2154 125.867 64.2657 126.006 64.3142C125.329 65.7806 123.553 66.3827 122.13 67.0263C120.407 67.8053 118.627 68.4645 116.829 69.0445C116.564 69.1303 116.652 69.5391 116.931 69.4704C119.016 68.9581 121.039 68.3018 123.027 67.4885C124.297 66.9693 125.653 66.3965 126.456 65.3489C126.391 65.9683 126.007 66.509 125.297 66.9689C124.63 67.5049 123.909 67.9487 123.133 68.3007C121.708 69.0269 120.136 69.4346 118.656 70.0298C115.383 71.3466 112.864 73.4799 110.15 75.6801C103.596 80.9908 95.5664 84.2129 87.2735 85.4868ZM53.1245 75.1047C52.9864 75.3405 52.8623 75.5796 52.7411 75.8195C49.7477 76.6146 46.216 76.621 43.2282 75.512C41.8135 74.9073 40.5218 74.0013 39.422 72.6577C45.0958 74.5416 50.8175 72.1927 55.879 69.533C57.0046 68.9409 58.2266 68.5347 59.4699 68.1929C58.6895 68.6099 57.9457 69.1557 57.2058 69.6448C56.9966 69.7833 57.1674 70.1244 57.3926 69.9953C57.9226 69.6912 58.427 69.3894 58.9317 69.1195C58.345 69.5222 57.7762 69.9496 57.2327 70.4021C55.7952 71.4492 53.9852 72.5649 52.279 72.6075C52.0266 72.6138 52.0127 73.0005 52.2686 73.0017C53.2593 73.0063 54.3095 72.6877 55.3072 72.2192C54.6529 72.9215 54.0632 73.6593 53.557 74.4234C52.2041 74.8374 50.8639 74.7942 49.3465 74.7558C49.0869 74.7488 49.0808 75.133 49.3359 75.1553C50.6963 75.2753 51.9129 75.3361 53.1245 75.1047ZM84.8646 68.6989C85.8112 68.7527 86.7345 68.7709 87.6481 68.7286C82.078 71.2902 76.6893 74.1707 71.4898 77.4315C65.4823 81.1988 58.4113 87.2792 51.0594 83.8066C52.9603 82.568 53.231 79.889 54.0249 77.7773C56.128 72.1855 61.5122 68.2843 67.1749 66.9891C67.2428 66.9733 67.2945 66.9438 67.3378 66.9076C67.5438 67.1362 67.7555 67.346 67.9739 67.5368C67.1706 68.4982 66.2092 69.2272 64.9873 69.6197C64.7027 69.7115 64.7986 70.154 65.0961 70.0774C66.4182 69.7363 67.6456 69.0227 68.5369 67.9847C69.61 68.7441 70.806 69.1245 72.078 69.2723C71.0233 70.2504 69.8492 70.9136 68.4315 71.2812C68.1513 71.3534 68.2543 71.7559 68.5346 71.7125C70.1248 71.4671 71.6769 70.6809 72.8157 69.5438C72.8789 69.4809 72.9036 69.4095 72.9118 69.3387C73.9159 69.3793 74.9599 69.2989 76.0237 69.1605C76.8441 69.0539 77.6452 68.9533 78.442 68.8627C76.712 70.3196 74.736 71.357 72.4894 71.8744C72.2034 71.9402 72.308 72.3675 72.5942 72.3147C75.2586 71.8238 77.7402 70.6143 79.6963 68.7327C81.0731 68.6091 82.4518 68.5544 83.889 68.6463C81.4247 70.7273 78.5271 72.1424 75.3603 72.8076C75.0708 72.868 75.1785 73.2992 75.4659 73.2509C78.9331 72.6663 82.063 71.1948 84.7447 68.9217C84.8237 68.8548 84.8557 68.7768 84.8646 68.6989ZM129.496 60.849C131.608 60.2621 133.546 60.3115 135.4 61.6043C135.651 61.7792 135.891 61.3862 135.651 61.2071C133.906 59.9006 131.47 59.3663 129.406 60.2122L129.402 60.1362C129.33 58.6602 129.454 57.2292 129.897 55.9307L129.916 55.9282C131.746 55.2721 133.54 55.282 135.278 56.2203C135.539 56.3613 135.782 55.9885 135.526 55.8277C133.952 54.8381 132.03 54.5317 130.255 55.0579C130.644 54.255 131.181 53.5176 131.902 52.8686C132.117 52.7979 132.343 52.7336 132.59 52.6835C132.675 52.7037 132.769 52.6865 132.848 52.64C133.285 52.5671 133.764 52.5222 134.3 52.5161C140.281 52.4475 146.027 60.5439 149.98 64.4285C150.856 65.6368 151.669 66.8952 152.653 68.0044C152.276 67.8934 151.9 67.815 151.523 67.7566C151.517 67.7014 151.5 67.6445 151.461 67.5856C150.293 65.8097 148.749 64.548 146.779 63.7546C146.487 63.6374 146.264 64.1205 146.548 64.2595C148.143 65.0451 149.51 66.2092 150.531 67.6598C149.754 67.63 148.988 67.7078 148.249 67.8861C148.224 67.8442 148.193 67.8037 148.149 67.7693C146.816 66.7109 145.338 66.1265 143.655 65.8702C143.423 65.835 143.305 66.219 143.518 66.3171C144.103 66.5843 144.72 66.7706 145.326 66.9808C146.089 67.2449 146.715 67.6772 147.336 68.1543C146.807 68.3468 146.299 68.5962 145.812 68.8908C145.291 68.7617 144.763 68.6822 144.228 68.633C143.367 68.5534 142.397 68.7608 141.59 68.381C141.317 68.2531 141.061 68.6209 141.332 68.7882C141.842 69.1029 142.339 69.1972 142.93 69.2512C143.6 69.3121 144.254 69.4067 144.908 69.5189C144.363 69.9487 143.861 70.4467 143.411 71.0071C142.783 71.0896 142.154 71.1812 141.529 71.2769C141.179 71.3302 140.831 71.3692 140.477 71.3811C140.164 71.3916 139.873 71.2649 139.564 71.2673C139.46 71.2683 139.339 71.3351 139.317 71.4457L139.308 71.4877C139.288 71.5912 139.31 71.7141 139.413 71.7695L139.444 71.7859C139.528 71.831 139.605 71.8259 139.668 71.7966C140.231 71.9072 140.689 72.0392 141.317 71.9981C141.81 71.9653 142.305 71.9154 142.798 71.8595C142.755 71.9272 142.707 71.9897 142.665 72.0588C142.406 72.4869 142.197 72.9281 142.026 73.3793C141.985 73.4317 141.943 73.4839 141.903 73.5363C141.795 73.525 141.686 73.5545 141.598 73.654C140.788 74.5754 139.53 74.6269 138.409 74.9019C138.16 74.9624 138.191 75.3592 138.456 75.3539C139.479 75.3339 140.728 75.3366 141.624 74.7664C141.609 74.8369 141.596 74.9079 141.583 74.979C137.788 79.0802 132.184 81.0638 126.816 82.1838C123.264 82.9244 120.331 79.3107 122.026 76.0608C122.51 75.1334 123.376 74.3224 124.206 73.5849C124.324 73.519 124.444 73.4569 124.558 73.383C124.673 73.309 124.734 73.2063 124.755 73.0986C124.827 73.034 124.902 72.9687 124.972 72.9056L125.001 72.8781C126.972 74.5372 129.428 75.2497 132.001 74.8166C132.279 74.7703 132.171 74.367 131.902 74.399C129.515 74.6857 127.245 74.0202 125.424 72.4928C126.827 71.2045 128.243 69.7739 128.902 67.9536C129.056 67.5285 129.198 67.1009 129.322 66.6713C130.492 67.9912 132.2 68.6898 133.961 68.7309C134.249 68.7379 134.261 68.2988 133.973 68.2843C132.15 68.1894 130.682 67.3406 129.502 65.9906C129.766 64.8819 129.88 63.7509 129.712 62.5783C129.632 62.0203 129.537 61.4396 129.446 60.8524L129.496 60.849ZM154.991 62.039L155.002 61.9889L155.01 61.9912L154.991 62.039ZM20.0668 11.9144L20.0531 11.8917L20.1367 11.7632L20.0668 11.9144ZM17.208 28.2498C15.0961 27.54 12.7881 26.5252 10.5535 26.3204C8.34789 26.1181 6.66042 26.7074 4.56839 27.3405C4.0586 27.4038 3.54868 27.4667 3.0384 27.5301C4.08797 26.9649 4.95327 25.7802 5.80382 24.8498C9.11432 21.2268 13.1226 18.316 18.2001 18.2824C18.3091 18.2818 18.3932 18.2451 18.4652 18.1962C18.5785 18.237 18.6921 18.2746 18.8132 18.3071C18.8887 18.3271 18.9592 18.3296 19.0252 18.3211C19.6332 19.8472 20.6246 21.2882 21.6626 22.5195L21.6779 22.5854C21.8286 22.9116 22.0127 23.2104 22.2139 23.5022C21.4711 24.1032 20.8049 25.143 20.3826 25.6484C19.7618 26.3915 18.8631 27.4025 17.8114 28.3635C17.7219 28.377 17.6317 28.3938 17.5427 28.4008L17.4998 28.3929L17.397 28.3851C17.3516 28.329 17.2936 28.2787 17.208 28.2498ZM20.7294 9.36606C20.3346 9.81671 19.9027 10.2789 19.4915 10.75C19.3074 9.12223 18.9999 6.87888 18.3702 5.39718C19.5689 6.41308 20.4071 7.75584 20.7294 9.36606ZM6.33025 23.0385C5.52755 23.9017 4.15508 25.8386 2.76445 26.6423C2.42983 26.6434 2.12791 26.5139 1.83526 26.2771C1.78743 26.2379 1.73753 26.2254 1.68881 26.2237C0.0428283 23.8579 0.285042 21.8838 2.43199 20.3045C3.95619 18.8126 6.04346 18.2101 8.06807 17.8284C9.85993 17.491 11.7545 17.4296 13.6511 17.4706C11.2869 17.6149 8.90429 17.9329 6.80098 18.844C6.59635 18.9325 6.72693 19.2786 6.93967 19.2095C8.54983 18.6892 10.2231 18.4871 11.9116 18.3798C11.5723 18.5144 11.2358 18.6578 10.9041 18.8141C8.69041 19.8578 5.89421 19.7148 3.97975 21.3144C3.78467 21.4772 4.02738 21.8266 4.24018 21.6798C5.577 20.7581 7.15425 20.7307 8.67612 20.4378C6.91677 21.8497 5.16885 23.2119 2.90319 23.7861C2.63161 23.8551 2.73006 24.2561 3.00298 24.2067C4.19437 23.9926 5.2956 23.58 6.33025 23.0385ZM13.3318 11.375C13.4088 11.1223 13.035 10.9393 12.903 11.1783C12.135 12.5689 12.648 14.3025 13.6144 15.6539C12.6832 14.9753 11.947 14.0904 11.5438 12.9066C11.5126 12.5797 11.4885 12.2499 11.4936 11.9048C11.5241 9.82115 13.3999 8.15478 14.6386 6.704C15.0263 6.24994 15.4144 5.79527 15.8021 5.34121C17.4863 3.36908 17.978 7.92935 18.0138 8.1779C18.1966 9.43174 18.3835 10.6846 18.5724 11.9374C18.3263 12.3132 18.1248 12.6928 18.0143 13.0775C17.9055 13.4544 17.8598 13.8377 17.8555 14.223C17.3046 12.6367 16.4829 11.0997 17.0197 9.3619C17.1103 9.06787 16.6928 8.96058 16.5755 9.22627C15.5552 11.5381 17.248 13.7917 17.5049 16.1241C17.4404 16.1328 17.3762 16.1403 17.312 16.1478C15.8791 14.5368 14.0057 12.3898 15.2325 10.3432C15.3914 10.0779 14.9982 9.82947 14.8278 10.0867C13.4436 12.1831 14.852 14.4554 16.368 16.2025C15.9275 16.2024 15.49 16.1748 15.0572 16.1061C13.7749 14.8597 12.7692 13.217 13.3318 11.375ZM23.7306 22.9843C20.9039 19.1104 18.8295 15.003 21.6826 10.4506C23.4027 7.70606 25.9474 5.49427 26.2666 2.18664C28.22 6.61474 31.4216 9.07156 35.4633 12.077C36.2984 12.6978 37.0872 13.3599 37.8409 14.0504C37.4557 14.6476 37.0896 15.2352 36.7566 15.8128C36.3499 14.8004 35.4592 14.0091 34.4678 13.5895C34.2199 13.4844 34.0305 13.8993 34.2701 14.0211C35.3377 14.5619 35.923 15.4519 36.2761 16.563L36.3105 16.6277C35.9635 17.2959 35.6806 17.9463 35.4904 18.5754C35.3817 18.3702 35.2679 18.1695 35.1532 17.9778C34.9646 17.6613 34.743 17.3637 34.5165 17.0737C34.2553 16.7401 33.8148 16.4566 33.7108 16.0239C33.65 15.7718 33.2273 15.8002 33.2471 16.0723C33.2953 16.7486 33.8789 17.2343 34.2409 17.771C34.6693 18.4067 34.8697 19.1322 35.2175 19.7937C34.8745 22.0797 35.3466 24.4038 36.3375 26.489C35.9742 26.382 35.6135 26.2754 35.2554 26.1702C35.2479 25.0479 34.7217 23.9869 34.2773 22.9643C33.9797 22.2794 33.6483 21.6162 33.2744 20.9698C32.8943 20.3112 31.9474 19.5406 31.8019 18.812C31.7501 18.5523 31.3195 18.5906 31.3351 18.8606C31.3954 19.9044 32.43 20.7634 32.9081 21.6697C33.5751 22.934 34.3308 24.4612 34.4733 25.939C33.779 25.7325 33.1008 25.5255 32.4549 25.3113C32.1474 25.209 31.8299 25.0945 31.5064 24.9752C31.6469 22.9153 30.3566 20.9771 29.2832 19.3265C29.1155 19.0692 28.7183 19.2711 28.8578 19.5535C29.7026 21.2583 30.6102 22.8069 30.7536 24.6918C30.1611 24.465 29.55 24.2288 28.9296 24.0055C28.8845 21.8708 27.3638 20.0068 25.8553 18.6681C25.6407 18.4779 25.319 18.7592 25.5229 18.9753C26.2538 19.7513 26.9316 20.4838 27.4343 21.4348C27.832 22.1864 27.9831 22.943 28.1327 23.7303C27.3878 23.4843 26.6359 23.2725 25.8914 23.1345L25.8916 23.0862C25.7854 22.4578 25.4511 21.8532 25.0994 21.3301C24.912 21.0511 24.6864 20.7997 24.4514 20.5601C24.1935 20.297 23.7945 20.0958 23.5842 19.7974C23.4442 19.5992 23.0643 19.6859 23.1507 19.9619C23.3145 20.4848 23.8909 20.8437 24.2249 21.271C24.64 21.8036 24.8574 22.4009 25.0795 23.018C24.6234 22.9694 24.1728 22.954 23.7306 22.9843ZM95.0401 44.5996C94.7842 44.5554 94.6543 44.934 94.9196 44.9963C95.4072 45.1108 95.8959 45.2072 96.3906 45.2858C96.9539 45.3763 97.5365 45.3841 98.0884 45.5184C98.4412 45.9162 98.7865 46.318 99.1272 46.7221C98.2828 46.616 97.4413 46.528 96.6027 46.3606C96.3322 46.3069 96.2009 46.7001 96.4756 46.7768C97.4139 47.0384 98.3995 47.269 99.3759 47.3245C99.4654 47.3295 99.5321 47.3009 99.5783 47.2559C99.9253 47.6826 100.261 48.1158 100.579 48.5587C100.769 48.8235 100.962 49.0768 101.161 49.3195C99.8327 49.1602 98.5759 48.883 97.2788 48.467C96.9865 48.3729 96.8647 48.8056 97.142 48.9167C98.5751 49.491 100.188 50.2561 101.772 50.1025L101.834 50.0855C104.338 52.7498 107.415 53.9399 111.046 54.7982C109.028 55.2661 106.901 54.3055 104.969 53.7226C104.086 53.4556 103.203 53.1888 102.318 52.9277C101.371 52.6484 99.8828 52.5166 99.1128 51.8707C98.882 51.6768 98.5309 51.9766 98.7588 52.198C99.322 52.7435 100.072 52.886 100.805 53.1454C102.327 53.6839 103.872 54.1612 105.406 54.662C107.054 55.1997 108.718 55.8273 110.391 55.7275C110.153 55.8946 109.903 56.0336 109.642 56.1456C105.367 56.8287 101.318 55.6166 97.1658 54.2906C96.8829 54.2008 96.7619 54.6223 97.0328 54.7267C99.4347 55.6509 102.008 56.5832 104.613 57.0023C104.548 57.0158 104.482 57.0269 104.417 57.0421C103.954 57.1516 103.496 57.2957 103.043 57.4604C101.811 57.5669 100.59 57.7702 99.3549 57.8595C97.756 57.9748 96.1936 57.4573 94.6856 56.9982C94.4067 56.9137 94.2916 57.3211 94.5556 57.4257C96.6305 58.2493 98.5518 58.5244 100.57 58.4544C99.3804 58.9048 98.2176 59.4255 97.0917 60.0287C95.4344 60.6088 93.2915 60.4712 91.7095 60.2012C91.4311 60.1533 91.2886 60.5582 91.5779 60.6343C92.8156 60.9579 94.0443 61.1089 95.3252 61.0456L95.3609 61.0438C94.7825 61.4091 94.212 61.7887 93.6579 62.1998C93.0878 62.6224 92.5253 63.1112 91.9915 63.6488C91.9197 63.5979 91.8288 63.575 91.721 63.6115C90.6203 63.9851 89.705 64.1601 88.5727 63.7744C88.3375 63.6944 88.1593 64.0644 88.3875 64.1766C89.2065 64.579 90.2354 64.7597 91.1576 64.5604C90.4089 65.4501 89.7596 66.4387 89.2853 67.4792C86.0051 68.0375 82.6626 67.3541 79.3282 67.6554C76.7444 67.889 66.9814 70.0578 68.6527 64.8525C69.1039 63.8999 69.6933 63.0341 70.3418 62.2042C70.4062 62.142 70.4736 62.0938 70.5368 62.0288C70.5975 61.9665 70.6277 61.8979 70.6447 61.829C71.7195 60.4968 72.8946 59.2245 73.7856 57.7671C74.9905 55.797 75.7581 53.5188 76.6401 51.3988C78.148 47.7738 80.1168 44.7704 83.8467 43.274C88.2973 43.162 93.0436 43.0893 97.2537 44.5789C97.3399 44.6754 97.4251 44.7728 97.5124 44.8696C96.6816 44.8109 95.8627 44.7412 95.0401 44.5996ZM78.5323 63.6396C78.8574 63.5601 78.7392 63.0717 78.413 63.1364C77.4882 63.3195 76.5939 63.3574 75.6683 63.1576C75.3998 63.0993 75.2703 63.4999 75.5426 63.5708C76.5228 63.8259 77.5435 63.8801 78.5323 63.6396ZM81.4136 54.0227C81.7192 53.9267 81.6138 53.4492 81.2974 53.5339C80.5756 53.7265 79.8893 53.7689 79.1475 53.785C78.9203 53.7896 78.8355 54.1515 79.0802 54.199C79.8406 54.3477 80.6789 54.2533 81.4136 54.0227ZM83.6886 49.2377C84.051 49.2321 84.0675 48.6652 83.7035 48.6744C83.1326 48.6877 82.5587 48.6892 81.989 48.7296C81.6614 48.752 81.6341 49.2382 81.9755 49.249C82.5454 49.2669 83.1186 49.2461 83.6886 49.2377ZM80.4741 59.2118C80.7734 59.1137 80.6661 58.6372 80.36 58.7313C79.3147 59.0524 78.2571 59.2129 77.1622 59.1908C76.8756 59.1849 76.8648 59.6186 77.1503 59.6348C78.2806 59.6966 79.3969 59.5626 80.4741 59.2118ZM45.3547 23.4939C46.5681 17.5004 52.0859 13.4936 53.162 7.36789C53.31 6.52694 53.2277 5.64313 53.1909 4.79804C53.0968 2.65438 58.3582 -0.489529 58.814 2.36778C59.4009 6.05336 60.0372 9.73052 60.698 13.4035C61.225 16.3318 61.5865 19.5245 62.5001 22.4619C62.4365 22.5375 62.403 22.6406 62.4345 22.7716C62.8284 24.4029 63.6688 26.1933 63.9778 27.9686C63.5373 26.7912 62.4419 25.7704 61.5716 24.9214C61.4044 24.7585 61.0789 24.9572 61.2226 25.1698C61.8544 26.1061 62.6014 26.9573 63.141 27.954C63.8303 29.2278 63.4339 30.9501 63.2848 32.3876C63.1655 32.6538 63.0432 32.9186 62.9167 33.1809C62.9053 32.7818 62.8681 32.384 62.7701 31.995C62.4854 30.8685 61.5494 29.8284 60.8711 28.9218C60.7066 28.7015 60.3505 28.9653 60.4844 29.1972C61.0435 30.1673 61.7093 31.085 62.0253 32.1719C62.304 33.1294 62.0258 34.1302 61.8923 35.0913C61.852 35.1577 61.8153 35.2254 61.775 35.2914C61.4097 35.8824 60.9982 36.4176 60.5677 36.9241C60.5979 35.4672 59.9656 33.9342 59.3495 32.6941C59.2355 32.464 58.852 32.6042 58.9274 32.8536C59.4548 34.6108 59.8393 36.0902 59.6409 37.9423L59.643 37.9586C59.202 38.4342 58.7628 38.8988 58.3511 39.3758C58.3274 37.8272 57.9791 36.4293 56.8237 35.2255C56.6356 35.0301 56.2613 35.2718 56.4244 35.5093C56.9008 36.2035 57.2695 36.8587 57.4512 37.6914C57.589 38.3264 57.5894 38.9781 57.5751 39.6274C52.481 35.4495 43.8373 30.9865 45.3547 23.4939ZM36.1129 21.2163C35.951 17.2409 38.6282 14.8807 40.5585 11.8231C42.3952 8.91286 44.0774 4.82442 42.9161 1.48529C44.9177 3.29399 45.3939 7.77949 44.9274 9.63624C44.5639 11.0835 44.0405 12.3076 43.9372 13.8111C43.7958 15.8696 44.6841 17.8305 45.9432 19.4151C45.8314 19.62 45.7182 19.8238 45.6115 20.0327C45.1734 20.8949 44.8206 21.7804 44.5694 22.6756C44.5395 22.1673 44.2218 21.6151 43.7572 21.4017C43.5483 21.3056 43.2904 21.5427 43.479 21.7359C43.8083 22.071 43.9637 22.3477 44.0484 22.8121C44.0895 23.0383 44.3646 23.065 44.5031 22.9377C43.8467 25.4902 44.0415 28.1093 45.5653 30.4796C45.6791 30.6557 45.8058 30.8264 45.9373 30.9938C45.4753 30.8764 45.0117 30.7678 44.5468 30.67C44.4567 29.0423 43.7676 27.4677 42.5899 26.3551C42.3644 26.1426 42.0218 26.4512 42.2343 26.6845C42.823 27.3316 43.2284 27.9721 43.4971 28.8082C43.6784 29.3691 43.7305 29.9541 43.8294 30.5293C42.9932 30.3733 42.1528 30.2483 41.3039 30.1721C41.1566 28.9139 40.4362 27.6948 39.603 26.8042C39.4072 26.595 39.1077 26.8832 39.2812 27.1018C40.0228 28.0362 40.3306 29.0356 40.5463 30.1267C40.3519 30.1156 40.1586 30.0989 39.9632 30.0922C37.5169 27.6226 36.2553 24.7097 36.1129 21.2163ZM37.1337 57.0399C33.6595 59.5232 30.2751 63.4007 25.6875 63.2853C25.5947 62.6252 25.6878 61.8776 26.0089 61.0464C28.4929 60.9806 30.7177 60.2857 32.8652 59.0264C35.3302 57.5803 37.4469 55.7741 40.2503 55.1064C39.1626 55.6724 38.1219 56.3335 37.1337 57.0399ZM50.8019 35.2268C49.9902 34.6027 49.1801 33.9686 48.4022 33.3064C48.8744 33.6784 49.3456 34.0386 49.7812 34.3932C50.1214 34.6704 50.4616 34.9491 50.8019 35.2268ZM45.913 52.9515L45.8818 52.9752C45.8344 52.9931 45.7836 53.0061 45.736 53.0252C45.7947 53.0002 45.8541 52.976 45.913 52.9515ZM45.396 53.1673C45.1762 53.2661 44.9624 53.3764 44.7532 53.4924C44.6546 53.5109 44.558 53.5377 44.4599 53.5586C44.7724 53.4298 45.0842 53.2985 45.396 53.1673ZM33.8996 56.1094C33.4555 56.3984 33.0169 56.7007 32.5603 56.976C31.1669 57.8161 29.5784 58.2159 27.9737 58.3594C29.5289 57.1509 31.7123 56.5218 33.8996 56.1094ZM34.1353 57.5324C31.6711 59.2239 29.1761 60.4052 26.1824 60.623C26.2752 60.4234 26.3792 60.2204 26.498 60.0121C26.7599 59.5545 27.0888 59.1517 27.4647 58.791C28.8554 58.7935 30.2564 58.5677 31.544 58.0261C32.9543 57.4326 34.1536 56.396 35.5629 55.8275C36.1357 55.7396 36.6939 55.6582 37.2309 55.58C36.1634 56.1472 35.1502 56.8359 34.1353 57.5324ZM42.5587 49.2541C40.439 48.5181 38.3313 47.8325 36.1087 47.486C34.0988 47.1727 32.1285 47.4834 30.1559 47.8675C28.7774 48.1359 27.4182 48.4287 26.0077 48.1971C25.1633 48.0584 24.6827 47.6555 24.4286 47.128C24.1082 46.0343 24.1497 44.8122 24.6553 44.0083C24.7064 43.927 24.7167 43.8362 24.7004 43.7501C24.9012 43.6278 25.1105 43.5207 25.3069 43.3917C27.8606 41.7938 28.6587 38.4125 29.3803 35.7272C30.4928 31.5893 34.128 31.2551 37.8285 31.2947C40.9183 31.3279 43.979 31.9113 46.9567 32.6959C48.2868 34.1637 49.9229 35.4041 51.4257 36.6649C53.2754 38.2169 55.1268 39.767 56.9769 41.3184C56.7851 41.6767 56.6222 42.0553 56.4906 42.458C55.4684 42.0368 54.2876 41.6955 53.4641 40.972C53.2365 40.772 52.9013 41.0641 53.1126 41.2971C53.9175 42.1855 55.1861 42.7221 56.3006 43.1838C56.2303 43.5266 56.1753 43.8819 56.1565 44.2657C56.1382 44.6351 56.1841 44.9887 56.2713 45.3296C55.2043 44.6679 54.2184 43.8841 53.1822 43.1705C52.9655 43.0212 52.6909 43.345 52.8859 43.5266C54.0617 44.6213 55.2745 45.7564 56.7114 46.4992L56.785 46.5203C57.1979 47.1919 57.7733 47.791 58.3999 48.3156C56.2702 47.4703 54.0315 46.7018 52.1837 45.4363C51.9584 45.2825 51.6603 45.6291 51.8741 45.8079C53.5441 47.2097 55.7991 48.2223 57.953 49.0509C57.4532 49.0571 56.9571 49.0875 56.462 49.1302C54.2426 48.4003 52.1686 47.619 50.1455 46.3763C49.8863 46.217 49.6627 46.5902 49.8974 46.7689C51.2802 47.8233 52.8688 48.7593 54.5421 49.3839C54.2566 49.4354 53.9707 49.4892 53.6866 49.5525C53.6278 49.5607 53.5695 49.5751 53.5107 49.5833C53.4496 49.5312 53.3711 49.4931 53.2623 49.4905C50.8726 49.4303 48.7069 49.0966 46.4746 48.214C46.196 48.1037 45.9987 48.5447 46.2564 48.6903C47.561 49.425 49.0149 49.9536 50.5084 50.1917C50.1307 50.2868 49.7526 50.3684 49.3747 50.4793C49.01 50.5863 48.6532 50.7059 48.2948 50.8234C46.3651 50.8171 44.2929 49.8563 42.5587 49.2541ZM27.3409 37.6816C27.0876 38.1543 26.7788 38.5845 26.3848 38.9504C24.5678 38.9252 22.7414 38.744 20.8645 38.288C18.954 37.8233 10.9527 34.728 9.78473 31.547C13.3522 33.8624 17.5391 29.9884 20.1637 27.3935C22.1284 25.4509 23.6518 23.6957 26.8017 24.6258C28.0447 24.9926 29.2813 25.3815 30.5164 25.775C32.7283 26.7137 35.0044 27.3924 36.7045 29.0037C35.7743 28.9216 34.8295 28.7619 34.1251 28.1943C33.8925 28.0071 33.5716 28.3963 33.7909 28.5947C34.4689 29.2069 35.4421 29.5021 36.4131 29.6373C35.9314 29.716 35.428 29.806 34.9199 29.9129C33.3777 29.702 32.015 29.4151 30.7107 28.4866C30.4603 28.3082 30.2328 28.6971 30.4612 28.8817C31.2377 29.5096 32.1549 30.0601 33.1344 30.3715L33.0041 30.4122C31.9546 30.5407 31.0093 30.8037 30.4208 31.3018C29.5289 31.275 28.732 31.1477 27.8683 30.7531C27.605 30.6331 27.446 31.0476 27.6645 31.1979C28.2718 31.6161 29.0229 31.911 29.7846 32.0136C29.5318 32.3733 29.3319 32.7798 29.1593 33.2067C28.9783 33.5333 28.8213 33.8758 28.6806 34.2283C28.3102 34.2475 27.942 34.2672 27.5671 34.2482C27.3378 34.2366 25.6778 34.0925 25.6209 33.7922C25.5666 33.5063 25.1085 33.5538 25.1141 33.8447C25.1249 34.455 25.996 34.6052 26.4564 34.7451C27.0621 34.9291 27.7316 35.0286 28.3842 35.0206C28.1701 35.6323 27.9713 36.2501 27.7336 36.8368C27.6869 36.8309 27.6367 36.8317 27.5813 36.8469C25.8559 37.329 24.1785 37.033 22.6781 36.0686C22.4872 35.9463 22.2398 36.2265 22.4187 36.3801C23.7944 37.5648 25.5775 38.0054 27.3409 37.6816ZM36.9417 30.3423L36.9411 30.3482L36.9173 30.3475L36.9417 30.3423ZM15.5537 30.1171C13.6111 31.3403 11.4796 31.889 9.67659 30.4231C9.70405 30.2823 9.7431 30.1416 9.80535 30.0012L9.80896 29.9846C10.9988 28.9399 15.0479 29.0682 16.2525 28.8192C16.3541 28.8515 16.4546 28.883 16.5548 28.9135C15.0394 29.6971 13.1186 30.0806 11.4977 29.841C11.2773 29.8087 11.2306 30.1613 11.4364 30.221C12.6268 30.5671 14.1732 30.4967 15.5537 30.1171ZM66.8548 8.06421C68.7185 5.2121 71.7287 3.34252 74.8817 2.25255C76.2003 1.79696 77.3984 1.38533 78.5207 0.733262C78.2966 1.57636 78.2733 2.44313 78.4407 3.45792C79.1306 7.63414 78.6666 10.4991 77.2278 14.3982C76.3378 16.809 75.9033 19.3362 75.8438 21.8766C75.5424 23.32 75.4378 24.8433 75.5563 26.3398C74.4454 23.0334 74.4134 19.5081 75.5553 16.1186C75.6426 15.859 75.2514 15.7476 75.1529 15.9964C73.7393 19.5652 73.6549 23.4153 74.8904 26.9789C73.459 24.3399 72.6737 21.5732 72.8575 18.4541C72.876 18.1449 72.4127 18.1396 72.3818 18.4414C72.1226 20.9458 72.4531 23.5292 73.4207 25.8513C73.0828 25.5321 72.7434 25.2148 72.4006 24.901L72.3672 24.8424C70.8532 23.0601 69.6015 21.1886 69.3496 18.8076C69.324 18.5664 68.9317 18.6149 68.9318 18.8511C68.9317 20.2473 69.3601 21.5684 70.0201 22.7768C69.577 22.3868 69.1339 21.999 68.694 21.6114C68.4953 21.436 68.2056 21.4015 68.0016 21.5582C67.8934 21.1702 67.7818 20.7836 67.6709 20.3973C67.5587 20.0061 67.4479 19.6146 67.3312 19.224C67.2291 18.8827 67.0287 18.5141 67.0618 18.1471C67.0855 17.8828 66.6647 17.8158 66.6019 18.0728C66.4489 18.6993 66.6886 19.3591 66.8328 19.9699C67.0285 20.7958 67.2124 21.6269 67.4352 22.4464C67.2615 22.7622 67.0949 23.0815 66.9358 23.403L66.9263 23.2737C66.8004 22.4477 66.226 21.7151 66.1442 20.9072C66.1178 20.6463 65.7098 20.6232 65.7267 20.8965C65.7661 21.5241 66.037 22.0511 66.1935 22.6545C66.3495 23.2539 66.2644 23.8257 66.2161 24.406C63.4144 19.0855 63.4853 13.2202 66.8548 8.06421ZM71.7738 6.08658C71.9671 5.93947 71.7275 5.60191 71.5271 5.73981C70.2392 6.62898 69.3082 7.82989 68.9101 9.35894C68.8205 9.70205 69.333 9.86061 69.4379 9.51988C69.8618 8.14694 70.6234 6.96314 71.7738 6.08658ZM74.8781 8.22083C74.9025 7.92852 74.4554 7.92068 74.4257 8.20857C74.3347 9.09002 74.047 9.90216 73.596 10.6627C73.4413 10.9238 73.831 11.1705 73.9937 10.9141C74.5155 10.0914 74.7982 9.19027 74.8781 8.22083ZM77.3035 8.97625C77.317 8.68833 76.9094 8.69555 76.8681 8.96488C76.6622 10.3161 76.4364 11.6363 76.0812 12.958C75.9948 13.2809 76.4872 13.4325 76.5787 13.1094C76.9572 11.7701 77.2395 10.3689 77.3035 8.97625ZM72.9786 7.69454C73.1419 7.45695 72.7705 7.22818 72.6034 7.45728C71.9823 8.31014 71.5815 9.24623 71.4164 10.2889C71.3749 10.5515 71.8279 10.625 71.8797 10.364C72.0713 9.398 72.4182 8.50772 72.9786 7.69454ZM28.011 37.5332L28.0062 37.5533L28.001 37.5536L28.011 37.5332ZM155.926 49.2834C155.912 49.2319 155.898 49.1805 155.883 49.1296L155.921 49.2305L155.926 49.2834ZM157.547 45.0642C158.715 48.2367 159.992 51.3793 161.315 54.4993C159.627 52.0839 158.129 49.5395 156.841 46.8573C157.076 46.2596 157.311 45.662 157.547 45.0642ZM158.583 52.9053L158.637 52.842L158.706 52.9415L158.629 52.9387L158.583 52.9053ZM162.811 56.5407C161.142 52.508 159.512 48.4564 157.789 44.4491C157.907 44.1473 158.026 43.8456 158.145 43.5444C158.3 43.151 158.446 42.743 158.597 42.3339C158.841 41.844 159.062 41.3413 159.292 40.8432C160.119 44.3634 160.94 47.8898 161.881 51.3809C162.65 54.2362 163.657 57.0709 165.301 59.5381C164.434 58.565 163.602 57.5664 162.811 56.5407ZM159.268 53.7592L159.254 53.746L159.256 53.7408L159.268 53.7592ZM161.916 48.7512C162.051 49.9149 162.295 51.0656 162.609 52.2045C161.347 48.2738 160.576 44.115 159.581 40.2229C159.638 40.0943 159.703 39.9695 159.76 39.84C160.029 39.4304 160.341 39.0531 160.723 38.7322L160.797 38.6397C160.954 38.7124 161.11 38.7812 161.275 38.8764C161.343 39.6888 161.395 40.5027 161.431 41.3171C161.565 43.8028 161.628 46.277 161.916 48.7512ZM175.589 59.8499C175.761 57.7373 177.083 57.5495 179.556 59.2865C178.747 59.7613 178.271 60.1359 177.525 60.7001C176.226 61.682 175.167 62.9241 174.312 64.3003C174.364 63.2848 175.481 60.2014 175.589 59.8499ZM170.515 56.7103C170.827 56.5678 170.576 56.1183 170.267 56.2466C169.131 56.7191 168.383 57.8595 167.892 59.0797C167.77 58.6768 167.635 58.2771 167.49 57.8803C168.069 55.9502 168.876 54.3505 170.173 52.7541C170.353 52.5321 170.001 52.2697 169.801 52.4446C168.772 53.3478 167.928 54.5223 167.368 55.8066C167.447 54.8863 167.564 53.9678 167.686 53.0536C167.822 51.8841 168.028 50.7276 168.304 49.584C168.612 47.3869 169.96 46.2335 172.35 46.1247C172.252 48.4549 173.215 50.8522 173.73 53.0876C174.299 55.5564 174.023 58.0618 173.613 60.5237C173.376 61.9459 173.144 64.5977 171.975 65.7208C171.837 65.741 171.663 65.7891 171.426 65.8824C171.312 65.9272 171.21 65.9897 171.11 66.0545C170.48 65.8934 169.803 65.2564 169.34 64.6595C169.31 64.2126 169.248 63.7693 169.157 63.3312C169.198 63.1963 169.241 63.062 169.287 62.9268C169.48 62.3646 170.084 61.0301 170.874 61.2028C171.216 61.2778 171.381 60.7658 171.034 60.6746C170.045 60.4149 169.309 61.1832 168.848 62.1701C168.7 61.7145 168.526 61.2667 168.329 60.8304C168.287 60.6088 168.236 60.3893 168.184 60.1695C168.615 58.7817 169.245 57.2882 170.515 56.7103ZM127.561 34.0615C126.762 36.4732 126.179 39.2132 126.061 41.9156C125.531 39.4593 125.418 37.0025 126.201 34.6418C127.018 32.1797 127.948 29.8863 128.46 27.326C128.632 26.4674 128.696 25.5808 128.781 24.7115C128.868 23.8137 129.045 23.5006 129.257 23.5226C129.397 23.6547 129.54 23.7819 129.684 23.9056C130.057 24.4678 130.429 25.4984 130.571 25.9891C132.013 30.9632 128.106 36.2031 127.461 41.0192C127.325 42.0445 127.281 43.0673 127.301 44.0826C127.154 43.705 127.018 43.3236 126.911 42.9304C126.978 40.0018 127.591 37.1833 127.962 34.1265C127.99 33.8898 127.632 33.8503 127.561 34.0615ZM128.266 31.1402C128.125 31.4355 128.542 31.7173 128.705 31.4183C129.084 30.7268 129.331 30.0057 129.497 29.2349C129.65 28.5244 129.58 27.8011 129.693 27.0897C129.732 26.85 129.366 26.8182 129.29 27.0244C129.116 27.5031 129.143 28.011 129.089 28.5141C128.988 29.4421 128.665 30.3042 128.266 31.1402ZM177.815 63.2551C178.966 62.3394 180.281 61.7756 181.643 62.0814C183.598 62.5201 185.577 64.5929 184.254 67.0453C183.737 68.0037 182.72 68.7716 181.906 69.4718C181.14 70.1306 180.494 70.7982 180.004 71.5689C178.841 69.2982 174.834 69.1434 172.952 71.2214C173.154 70.4573 173.412 69.7152 173.723 68.9817C175.473 67.9821 177.36 67.9211 179.169 68.9887C179.422 69.1384 179.656 68.7674 179.412 68.6035C177.805 67.5227 175.837 67.3426 174.127 68.0908C174.272 67.7955 174.424 67.5005 174.59 67.2057C174.817 66.7995 175.094 66.3538 175.411 65.8991C176.818 65.5415 178.253 65.7049 179.584 66.5384C179.826 66.6904 180.052 66.3272 179.819 66.1657C178.702 65.3894 177.302 65.0207 175.958 65.1605C176.246 64.7955 176.556 64.4375 176.887 64.0988C178.295 63.6062 180.505 63.6907 181.223 65.1688C181.349 65.4298 181.726 65.219 181.615 64.9598C181.041 63.6201 179.316 63.0992 177.815 63.2551ZM145.58 56.8585C144.887 55.0105 144.307 53.1344 144.127 51.1461C143.935 49.0285 144.768 47.08 145.065 45.0326C146.485 40.9819 147.55 36.9412 146.059 32.7563C150.681 34.7756 152.744 39.5561 154.625 44.2149C154.59 44.257 154.562 44.3087 154.548 44.3784C154.492 44.6731 154.467 44.9587 154.45 45.2424C153.474 44.1457 152.441 43.0928 151.902 41.6761C151.813 41.4432 151.425 41.5939 151.495 41.8299C152.014 43.5794 153.299 44.9269 154.461 46.3296C154.521 46.9857 154.66 47.6377 154.845 48.3203C154.897 48.5111 154.943 48.6947 154.993 48.883C154.321 48.1485 153.678 47.3954 153.356 46.442C153.264 46.1709 152.829 46.2676 152.918 46.5462C153.376 47.9815 154.402 49.0463 155.314 50.1943C155.534 51.1626 155.681 52.1333 155.711 53.1501C155.616 53.0349 155.522 52.9177 155.422 52.8053C154.69 51.9818 153.255 51.2924 152.885 50.2287C152.792 49.9607 152.364 50.0508 152.447 50.3334C152.711 51.2269 153.41 51.7189 154.079 52.3175C154.738 52.9064 155.26 53.5569 155.706 54.2774C155.633 55.5262 155.457 56.7727 155.229 58.0179C155.025 57.6197 154.793 57.235 154.531 56.8702C153.788 55.8368 152.477 54.77 152.136 53.526C152.058 53.2379 151.635 53.341 151.688 53.633C151.879 54.6895 152.682 55.4886 153.313 56.3158C154.034 57.2589 154.634 58.2064 154.976 59.3155C154.816 60.0856 154.644 60.8549 154.468 61.6234C153.491 59.3498 151.954 57.3556 150.407 55.41C150.255 55.2191 149.919 55.4557 150.058 55.659C151.661 58.0099 153.214 60.1539 154.206 62.7737C154.032 63.5373 153.864 64.3004 153.71 65.0621C152.551 61.8984 150.535 58.9969 148.445 56.4183C148.294 56.2327 147.969 56.4612 148.103 56.6622C150.205 59.8333 152.217 62.8219 153.46 66.4136L153.435 66.5538C153.395 66.6208 153.381 66.6999 153.395 66.7756L153.373 66.901C151.564 64.5302 149.74 62.1721 147.902 59.8235C147.128 58.8353 146.354 57.8467 145.58 56.8585ZM96.9939 42.2162C93.6767 38.8075 92.3249 35.536 94.7434 31.0738C96.628 27.5959 98.5786 24.1521 100.496 20.6916C101.216 19.3936 101.923 18.0887 102.635 16.7864C102.899 15.9346 103.401 15.2766 104.14 14.8118C105.371 15.7549 106.194 16.9604 106.61 18.4291C107.823 21.7281 107.223 25.7442 107.162 29.188C107.084 33.5844 107.893 38.0277 111.017 41.2455C110.881 41.5623 110.751 41.8814 110.629 42.2029C110.088 41.7842 109.241 41.6102 108.758 41.1703C108.535 40.9671 108.206 41.2596 108.41 41.4912C108.7 41.8197 109.05 42.0145 109.442 42.2002C109.795 42.3672 110.197 42.5756 110.369 42.9278C110.172 43.5072 110.002 44.0946 109.865 44.6932C109.817 44.6527 109.77 44.61 109.72 44.5725C109.199 44.1805 108.488 44.2321 107.975 43.8218C107.759 43.6489 107.518 43.985 107.679 44.1784C107.943 44.4966 108.297 44.6455 108.679 44.7795C109.18 44.9542 109.448 45.1889 109.693 45.5509C109.636 45.8842 109.585 46.2193 109.551 46.5597C109.517 46.9014 109.508 47.2347 109.512 47.5645L109.45 47.5085C108.865 47.0378 107.912 47.1148 107.462 46.4763C107.293 46.2377 106.895 46.4276 107.049 46.6963C107.307 47.1472 107.699 47.3619 108.162 47.57C108.88 47.8931 109.292 48.2431 109.628 48.9014C109.698 49.3167 109.796 49.7231 109.921 50.1194C109.031 49.6217 107.964 49.3793 107.162 48.7107C106.924 48.5109 106.56 48.8256 106.798 49.048C107.9 50.0744 109.498 50.2811 110.459 51.4669C110.575 51.7046 110.697 51.9398 110.831 52.1707C110.761 52.1477 110.704 52.1186 110.628 52.0973C109.352 51.7515 108.135 51.3947 107.094 50.5422C106.885 50.371 106.605 50.7171 106.794 50.9029C107.412 51.5117 108.104 51.9238 108.896 52.2686C109.387 52.4825 109.907 52.6313 110.417 52.7873C110.992 52.9625 111.361 53.3101 111.751 53.6879C108.418 52.951 105.25 52.0041 102.793 49.4266C100.669 47.1989 99.1715 44.4544 96.9939 42.2162ZM80.8961 35.2822C79.6708 33.153 78.4929 31.0059 77.7496 28.66C77.9366 27.1325 78.1235 25.6045 78.3127 24.0775C78.6886 21.0467 78.4085 15.6355 81.5111 13.8745C83.5407 12.7225 86.142 12.2336 88.4083 11.7931C91.1873 11.2534 87.7716 15.9399 87.67 16.2525C85.5714 22.6867 87.7082 29.8024 91.5245 35.1819C92.0045 36.366 92.1934 37.4955 91.8383 38.8277C91.392 37.086 90.3433 35.4827 89.169 34.1498C88.9575 33.91 88.6311 34.2345 88.8128 34.4788C90.1168 36.2303 91.018 38.0388 91.2454 40.1331C90.976 40.5181 90.6486 40.847 90.2704 41.1149C90.2199 38.8808 88.785 36.4048 87.4782 34.9148C87.3181 34.7322 86.9856 34.959 87.1266 35.1654C88.347 36.9494 89.5877 39.3009 89.489 41.5585L89.4259 41.5867C88.7493 41.5462 88.0742 41.5295 87.4077 41.5548C87.5197 39.3568 86.7531 37.2194 85.2995 35.5476C85.0906 35.3076 84.7492 35.6354 84.9413 35.8791C86.2396 37.5203 86.8337 39.4641 86.764 41.5091L86.7512 41.5002C86.4489 41.3734 86.169 41.2252 85.8946 41.0718C85.3678 38.9707 84.358 36.9637 83.2048 35.1552C83.0549 34.9201 82.6757 35.1143 82.8183 35.3617C83.7655 37.0073 84.4233 38.7201 85.0015 40.4931C83.8827 39.6657 83.0024 38.6077 82.2216 37.4418C81.9441 36.6778 81.7677 35.8632 81.5618 35.0897C81.1647 33.5936 80.821 32.0828 80.4578 30.5775C80.3987 30.3344 80.041 30.4239 80.0828 30.6672C80.3794 32.4021 80.7784 34.1129 81.2101 35.818C81.1052 35.6396 80.9998 35.4619 80.8961 35.2822ZM80.5258 20.5339C80.5184 20.8864 81.0526 20.8998 81.0718 20.5484C81.1566 19.0214 81.233 17.4928 81.988 16.1233C82.1276 15.8708 81.768 15.639 81.6084 15.883C80.6927 17.2831 80.5603 18.9006 80.5258 20.5339ZM83.1802 21.7981C83.2163 22.087 83.7182 22.0357 83.6899 21.7448C83.6247 21.0676 83.6058 20.3969 83.6302 19.7172C83.6516 19.1197 83.6194 17.6693 84.1031 17.2678C84.2814 17.1198 84.0601 16.8028 83.8662 16.9353C83.3611 17.2814 83.3053 18.136 83.2223 18.6937C83.067 19.7359 83.0501 20.7528 83.1802 21.7981ZM85.6868 23.4266C85.7552 23.735 86.2328 23.6217 86.1642 23.3128C85.87 21.9809 85.4273 20.2881 85.8417 18.9538C85.9289 18.6733 85.4965 18.5425 85.4058 18.8219C84.9477 20.2335 85.3764 22.0191 85.6868 23.4266ZM113.933 54.2204C109.654 50.4076 110.356 45.1535 112.564 40.4869C112.856 39.8704 113.181 39.2576 113.519 38.6462C114.321 40.2685 114.655 41.9713 114.413 43.8002C114.382 44.0335 114.772 44.096 114.821 43.8667C115.252 41.8454 114.979 39.7365 113.909 37.9528C114.482 36.9516 115.087 35.9522 115.681 34.9468C116.39 36.1269 116.911 37.3276 117.182 38.6954C117.23 38.9351 117.634 38.8999 117.614 38.6504C117.498 37.1534 117.028 35.6376 116.158 34.4005C116.128 34.3593 116.094 34.3277 116.057 34.3031C116.673 33.2399 117.257 32.1662 117.758 31.0733C118.492 31.8195 119.107 32.6783 119.479 33.6665C119.574 33.9173 119.981 33.8365 119.897 33.5668C119.524 32.3752 118.924 31.307 118.041 30.4272C118.499 29.3372 118.859 28.2263 119.065 27.085C119.945 27.4024 120.62 27.9603 121.001 28.866C121.101 29.1033 121.507 28.9501 121.423 28.7058C121.067 27.6605 120.24 26.7538 119.162 26.4434C119.325 25.1629 119.294 23.8446 118.968 22.4713C123.813 23.6138 123.034 30.3284 123.19 34.1266C123.333 37.6255 123.815 41.088 124.524 44.5147C125.36 48.5656 125.437 52.1956 125.18 56.2833C125.094 57.6597 125.127 58.9812 125.292 60.2832C122.661 60.332 120.36 59.3464 118.247 57.9546C116.796 56.7236 115.352 55.4845 113.933 54.2204ZM143.76 53.1271L143.741 53.0662L143.752 53.003C143.762 53.0488 143.773 53.0942 143.783 53.1399L143.76 53.1271ZM128.285 43.3346C128.256 39.7566 129.901 36.2704 130.946 32.9144C131.681 30.5548 132.142 27.5663 131.356 25.1497C132.04 25.5968 132.752 26.0109 133.485 26.4336C136.981 28.4465 138.686 31.5159 139.75 35.3044C140.943 39.5503 140.33 44.3078 142.693 48.1151C142.038 49.7216 141.546 51.3953 141.934 52.7839C142.376 54.3604 143.314 55.7185 144.346 57.0077C141.299 53.7328 140.138 49.5445 139.057 45.18C138.994 44.9258 138.608 45.0183 138.662 45.2744C139.352 48.6007 140.178 52.2132 142.012 55.1418C140.983 54.3033 139.913 53.558 138.794 52.9709C138.827 52.9316 138.852 52.8846 138.858 52.8208C139.078 50.2418 137.21 47.9501 136.956 45.4327C136.927 45.1462 136.48 45.1205 136.498 45.4205C136.647 47.9532 138.324 50.1829 138.322 52.7365C137.665 52.4222 136.994 52.1631 136.304 51.9717C136.218 51.0648 136.033 50.16 135.793 49.2845C135.669 48.8318 135.486 48.3958 135.293 47.9691C135.022 47.3713 134.495 46.8742 134.322 46.2387C134.246 45.9576 133.846 46.0603 133.888 46.3426C134.027 47.3 134.804 48.1713 135.107 49.1041C135.395 49.9884 135.498 50.9041 135.652 51.8133C134.785 51.6303 133.892 51.5598 132.971 51.6187C132.908 51.1099 132.776 50.603 132.62 50.1269C132.51 49.7889 132.364 49.4629 132.212 49.1424C132.058 48.818 131.708 48.4621 131.686 48.0933C131.67 47.8141 131.288 47.8049 131.255 48.0821C131.178 48.7248 131.752 49.4371 131.957 50.0313C132.145 50.5761 132.224 51.1281 132.293 51.6863C132.178 51.7014 132.065 51.712 131.95 51.7315C131.48 51.8104 131.017 51.9802 130.58 52.2134C129.124 49.3679 128.312 46.6219 128.285 43.3346ZM159.162 76.4359C159.121 76.8993 158.984 77.3905 158.722 77.9248C156.421 80.3582 153.13 81.7795 150.115 83.3499C148.719 84.0774 147.433 84.9346 146.188 85.8914C145.378 86.5144 144.346 88.1995 143.319 89.0419C143.766 86.1514 143.327 83.3087 142.931 80.392C142.521 77.3797 142.462 74.4755 144.068 71.7817C145.894 68.7191 150.033 68.1243 153.133 69.0539C153.214 69.0785 153.284 69.0753 153.349 69.0612C153.502 69.1395 153.662 69.222 153.827 69.3083C153.902 69.3532 153.972 69.4042 154.045 69.4516C152.995 70.4332 151.85 71.1144 150.241 70.9898C149.933 70.9659 149.928 71.4317 150.229 71.4655C151.989 71.6641 153.371 70.9409 154.568 69.8263C155.464 70.5243 156.227 71.3915 157.005 72.2383C155.904 74.0806 153.888 74.6366 151.915 75.1086C151.613 75.181 151.723 75.6348 152.026 75.5746C154.051 75.1736 156.318 74.624 157.497 72.7791C158.313 73.6977 158.933 74.5676 159.121 75.5351L159.08 75.5642C157.307 77.4412 154.796 77.9991 152.477 78.9243C152.242 79.018 152.397 79.4272 152.634 79.3387C154.867 78.5083 157.363 78.0789 159.162 76.4359ZM111.829 75.6566L111.784 75.6927L111.768 75.7025L111.829 75.6566ZM125.848 70.0815C125.908 70.0406 125.965 69.9987 126.022 69.9567L125.928 70.0517L125.848 70.0815ZM124.921 70.658L124.975 70.6279L124.983 70.6378L124.921 70.658ZM69.6192 29.453C68.6341 28.8181 67.5239 28.2173 66.3597 28.0004C66.8253 26.1339 67.3059 24.2483 69.0132 23.236C69.7102 23.6067 70.4856 24.5934 70.7243 24.8084C72.8891 26.7606 74.9157 28.8269 76.7843 31.0638C79.6294 34.47 81.0113 39.0076 84.2867 42.0009C83.6185 42.1756 82.9734 42.4116 82.3522 42.7081C82.3583 42.1885 82.1681 41.6608 81.9058 41.2246C81.7503 40.9658 81.5414 40.7279 81.3043 40.5419C81.1873 40.4496 80.3385 40.0748 80.3267 39.9712C80.2942 39.6678 79.8688 39.7656 79.8343 40.0222C79.7619 40.5599 80.5888 40.7303 80.906 41.0202C81.5276 41.5886 81.619 42.3047 81.5938 43.0943L81.596 43.1069C81.1298 43.3816 80.6848 43.7039 80.2594 44.0683C80.0851 43.0469 79.0409 42.1338 78.0895 41.8687C77.8409 41.7995 77.6434 42.1765 77.8927 42.2975C78.3292 42.5096 78.7044 42.7594 79.0327 43.1211C79.3665 43.4881 79.4863 43.9272 79.6859 44.3647C79.7125 44.4235 79.7497 44.4602 79.7895 44.4883C79.5389 44.7336 79.2925 44.9872 79.0599 45.2703C78.9748 45.3745 78.9004 45.4838 78.8183 45.5893C78.2589 44.9441 77.3385 44.521 76.5529 44.3641C76.2437 44.3026 76.0918 44.7551 76.4076 44.8422C76.8497 44.9637 77.2491 45.1459 77.6315 45.3992C77.9444 45.6062 78.1533 45.8871 78.3874 46.1578C78.0082 46.6884 77.665 47.2361 77.3446 47.7952C76.8259 46.8005 75.6701 46.2125 74.6669 45.8205C74.4178 45.7231 74.2463 46.1113 74.4729 46.2439C75.5109 46.8516 76.3656 47.3278 76.8732 48.4701L76.9255 48.5433C76.696 48.9795 76.4804 49.4231 76.2721 49.8706C75.9788 49.4549 75.613 49.1087 75.1837 48.8097C74.9059 48.6163 74.5816 48.4856 74.2664 48.37C73.8413 48.2143 73.3771 48.2649 72.9711 48.0344C72.7035 47.883 72.4975 48.2412 72.7225 48.4271C73.2059 48.8267 73.8742 48.8536 74.4293 49.1293C75.0868 49.4565 75.5518 50.024 75.8878 50.6602L75.9039 50.6797C75.7026 51.1364 75.5075 51.5963 75.3163 52.0594C74.962 51.8462 74.5982 51.6616 74.1969 51.5292C73.6078 51.3341 72.9899 51.3442 72.4116 51.1028C72.1395 50.9893 71.9569 51.4181 72.1988 51.5656C72.6214 51.8238 73.0933 51.9245 73.5673 52.0515C74.1017 52.195 74.5817 52.4542 75.0201 52.7808C74.9617 52.9238 74.9027 53.0665 74.8443 53.2095L74.7271 53.2605C73.2609 54.2467 71.2432 52.9592 69.8951 52.3972C68.2932 51.7292 66.7069 51.024 65.1182 50.3258C62.3955 49.1289 59.8763 48.0621 57.769 46.0537C57.7124 45.9701 57.6523 45.891 57.5988 45.805C55.9887 43.2163 58.3114 40.4472 60.4492 38.1942L60.5632 38.2663C61.8976 38.7215 62.9374 39.396 63.8099 40.5179C63.9595 40.7106 64.285 40.4771 64.1567 40.2712C63.413 39.0821 62.2183 38.1308 60.8469 37.777C61.5352 37.0596 62.1782 36.4011 62.6257 35.8299C63.0918 35.2351 63.4703 34.5687 63.8015 33.8693C63.9579 33.6272 64.1182 33.3878 64.2648 33.1403C65.2367 33.6663 66.2117 34.0728 66.9648 34.9398C67.1474 35.1507 67.4436 34.8639 67.2777 34.6508C66.5805 33.7564 65.5659 33.1148 64.517 32.6816C64.9415 31.9221 65.3315 31.1409 65.6668 30.3198C65.8965 29.7571 66.0674 29.147 66.2268 28.5252C67.3297 28.8858 68.3835 29.2108 69.3897 29.8156C69.6268 29.9586 69.8523 29.6027 69.6192 29.453ZM138.012 79.4165L138.013 79.3675C138.147 79.2886 138.283 79.2133 138.416 79.1312C138.282 79.2273 138.148 79.3225 138.012 79.4165ZM27.2762 49.0429L27.2619 49.0403L27.2878 49.041L27.2762 49.0429ZM154.992 66.2063C155.329 65.5023 155.538 64.6556 155.7 63.8578C159.062 66.6509 161.171 70.3029 162.309 74.5172C162.212 74.545 162.116 74.5729 162.017 74.5987C161.974 74.3226 161.692 74.1544 161.41 74.1694C160.544 72.9638 159.631 71.8256 158.621 70.7287C157.507 69.5175 155.062 68.135 154.992 66.2063ZM171.964 70.4225L171.943 70.5585L171.944 70.4475L171.964 70.4225ZM142.306 87.2956C142.305 87.4119 142.302 87.5281 142.298 87.6431C140.023 91.1137 137.148 93.9314 134.1 96.7301C132.721 97.9964 131.339 99.2603 129.956 100.523C128.312 102.024 126.758 104.79 125.417 101.814C124.627 100.06 123.832 98.3085 123.037 96.5568C122.587 95.5636 122.533 94.5906 122.722 93.6537C124.045 91.9738 125.33 90.264 126.649 88.581C128.216 86.5834 130.408 85.3263 132.497 83.9539C135.424 82.0327 139.08 80.2718 141.391 77.535C141.394 77.7332 141.4 77.9321 141.41 78.1318C139.713 80.842 137.65 83.2054 135.064 85.1382C134.868 85.2844 135.11 85.6249 135.312 85.4872C137.756 83.8234 139.862 81.7863 141.497 79.3571C141.6 80.4488 141.76 81.5545 141.912 82.6567C141.851 82.6599 141.787 82.6846 141.73 82.749C139.682 85.0768 137.435 87.0732 134.762 88.665C134.541 88.7964 134.723 89.1441 134.95 89.0182C137.604 87.5422 140.032 85.6678 142.006 83.3508C142.135 84.3348 142.245 85.3125 142.288 86.271C140.748 88.3772 138.735 89.8388 136.583 91.2799C136.365 91.4261 136.549 91.7887 136.778 91.6456C138.762 90.4052 140.809 89.1153 142.306 87.2956ZM99.5029 85.1216C99.2661 85.2505 99.4561 85.5787 99.6955 85.4823C100.926 84.9856 102.085 84.2645 103.081 83.368C102.83 83.7824 102.356 84.5851 101.832 85.3669C100.885 86.2602 99.8357 87.074 98.5443 87.8182C93.7477 90.5817 87.9434 91.2769 82.7539 93.0262C81.9961 93.2815 76.3155 95.6614 76.4762 93.8263C76.8047 90.0769 75.4468 87.1057 78.5743 83.9921C81.5569 81.0221 85.9346 80.1535 87.8869 76.4887C87.5892 79.6901 87.1524 82.8215 85.7643 86.0531C85.5676 86.5108 86.0782 86.8567 86.4712 86.8049C88.3193 86.5602 90.1326 86.2141 91.9197 85.7803C91.5462 86.13 91.1473 86.4357 90.6926 86.5973C90.4534 86.6821 90.5325 87.065 90.7861 86.989C91.5993 86.7473 92.3192 86.1331 92.9665 85.5119C94.8954 85.0003 96.7912 84.3775 98.6579 83.6457C97.7721 84.4078 96.7731 85.0267 95.6373 85.4581C95.413 85.5439 95.5583 85.9245 95.7862 85.8509C97.547 85.2858 99.1269 84.3193 100.344 82.9532C100.773 82.7678 101.204 82.5842 101.63 82.3873C102.428 82.0195 103.192 81.616 103.938 81.1894C102.767 82.8113 101.349 84.1169 99.5029 85.1216ZM78.1562 87.6231C78.2725 86.9929 78.9223 86.5206 79.3905 86.1267C79.8448 85.7443 80.342 85.4223 80.8599 85.1344C81.1595 84.968 80.9089 84.4973 80.6097 84.6657C79.5774 85.2469 77.8913 86.2601 77.7536 87.5577C77.7293 87.787 78.1144 87.8516 78.1562 87.6231ZM83.0673 90.6821C83.4264 90.6128 83.29 90.0861 82.9377 90.1369C82.0825 90.2597 81.2437 90.7253 80.7393 91.4334C80.5996 91.6298 80.8803 91.8366 81.0509 91.6927C81.659 91.1791 82.2805 90.8342 83.0673 90.6821ZM82.1096 88.686C82.3899 88.6448 82.3418 88.17 82.0579 88.1907C80.8374 88.281 79.711 88.8864 78.8818 89.7731C78.7125 89.9545 78.964 90.2339 79.1459 90.0582C79.9774 89.2544 80.9784 88.8522 82.1096 88.686ZM172.428 69.1467L172.452 69.1737L172.442 69.1993L172.428 69.1467ZM165.751 75.7581L165.76 75.7455C165.738 78.7114 165.41 81.5445 164.64 84.4417C164.065 86.6033 163.706 88.7632 164.997 90.7322C165.344 91.2627 165.692 91.6918 165.921 92.3028C166.716 94.4193 162.545 94.0425 161.807 93.882C159.863 93.4583 158.282 91.9514 157.23 90.3427C155.676 87.9669 155.458 85.0032 156.136 82.3059C156.249 82.0276 156.381 81.7673 156.544 81.5434C156.651 81.3958 156.635 81.2487 156.561 81.1332C156.637 81.0833 156.714 81.0338 156.789 80.9831C156.529 81.7078 156.471 82.5109 156.579 83.2728C156.712 84.2123 156.884 85.5625 157.759 86.1173C157.938 86.2311 158.167 85.9736 158.002 85.8259C157.395 85.2821 157.306 84.2735 157.187 83.5076C157 82.2973 157.286 81.228 157.923 80.2066L157.951 80.136C158.42 79.7667 158.868 79.3771 159.288 78.9589C159.033 79.8422 158.952 80.771 158.979 81.7362C159.013 82.9767 159.135 84.9312 159.961 85.9017C160.143 86.115 160.453 85.8221 160.278 85.608C159.58 84.7517 159.561 82.7783 159.498 81.7497C159.405 80.1917 159.836 78.7665 160.643 77.4479C160.674 77.3957 160.684 77.3454 160.685 77.2963C160.774 77.169 160.863 77.0399 160.947 76.908C160.353 79.1895 160.662 81.9401 161.537 83.9064C161.65 84.1598 162.007 83.9551 161.911 83.7068C161.015 81.393 160.936 78.1727 162.022 75.8491C162.23 75.8001 162.435 75.7456 162.639 75.6901C162.054 77.5486 161.713 79.7852 162.581 81.262C162.727 81.5097 163.11 81.3076 162.975 81.0515C162.166 79.5169 162.737 77.2707 163.398 75.4613C164.166 75.2081 164.908 74.8918 165.616 74.4899C165.372 75.2302 164.788 75.9967 164.539 76.6322C164.159 77.598 164.042 78.6751 163.967 79.7015C163.946 79.9845 164.354 79.9773 164.396 79.7124C164.622 78.3031 165.009 76.9873 165.751 75.7581ZM174.202 76.0142C174.615 76.1636 175.03 76.29 175.413 76.4039C177.616 77.0573 179.869 76.9408 181.693 75.6745C181.414 78.3972 180.96 81.0905 180.281 83.7487C178.9 89.1514 173.658 86.0468 171.401 83.0123C171.53 82.9086 171.656 82.8033 171.78 82.6955C172.575 83.982 174.161 84.7003 175.637 84.7613C175.942 84.7742 175.945 84.3267 175.65 84.2947C174.138 84.1306 173.176 83.3087 172.314 82.2044L172.376 82.1439C172.608 81.9717 172.825 81.7829 173.026 81.5808C173.671 82.624 175.293 82.7412 176.412 82.8536C176.651 82.8775 176.718 82.4798 176.48 82.4336C175.493 82.2416 173.923 82.1076 173.478 81.0585C173.726 80.7309 173.914 80.3761 174.057 80.0078C174.765 80.697 176.159 80.7801 177.025 80.8407C177.314 80.8611 177.321 80.4222 177.037 80.3942C176.191 80.3097 174.686 80.2018 174.23 79.3375C174.32 79.0752 174.395 78.8059 174.447 78.5256C174.599 78.168 174.69 77.7972 174.689 77.4306C175.529 78.1001 176.857 78.2828 177.859 78.2757C178.158 78.2736 178.162 77.8513 177.871 77.8171C176.881 77.7009 175.475 77.5417 174.81 76.6979C174.726 76.5919 174.618 76.5766 174.521 76.6082C174.433 76.3917 174.33 76.1914 174.202 76.0142ZM126.73 87.5868C126.767 87.5464 126.808 87.5085 126.846 87.4679C126.683 87.6455 126.522 87.8242 126.364 88.0069L126.356 87.987C126.483 87.8504 126.609 87.7165 126.73 87.5868ZM125.016 86.316C126.168 85.5094 127.252 84.5585 128.272 83.5767C124.934 87.0829 121.027 89.8463 116.537 91.7773C112.51 93.508 108.151 93.8749 104.677 96.6215C101.958 87.5537 108.218 78.5438 116.065 74.3214C117.993 73.2836 120.454 72.606 122.707 71.6987C123.279 71.6604 123.849 71.6135 124.413 71.5391C124.543 71.522 124.671 71.5008 124.797 71.4765C124.196 72.0503 123.515 72.6461 122.853 73.283C121.808 73.6849 120.697 73.8117 119.531 73.6698C119.235 73.6334 119.169 74.1031 119.449 74.1807C120.228 74.3985 121.029 74.4492 121.813 74.3603C121.256 74.9914 120.768 75.6655 120.43 76.3981C120.374 76.404 120.317 76.4223 120.259 76.4618C119.36 77.0655 118.422 77.4111 117.337 77.4533C116.996 77.4671 116.978 77.9602 117.322 77.9851C118.253 78.0511 119.207 77.8764 120.059 77.4892C119.983 77.8363 119.939 78.1943 119.942 78.5672C119.948 79.1286 120.018 79.6328 120.136 80.0987C119.349 80.9269 118.405 81.4964 117.266 81.7513C116.945 81.823 117.069 82.2751 117.381 82.2372C118.494 82.1004 119.558 81.63 120.414 80.9097C120.853 81.8624 121.601 82.5717 122.687 83.0589C122.267 83.8892 121.286 84.2417 120.45 84.5522C119.652 84.8492 118.832 85.0493 117.991 85.1799C117.736 85.2194 117.779 85.6556 118.038 85.6319C119.795 85.4699 122.622 85.1718 123.51 83.3657L123.566 83.386C124.632 83.7085 125.818 83.691 127.03 83.4945C126.232 84.2516 125.415 84.9898 124.562 85.6784C123.282 86.713 121.736 87.2479 120.415 88.2049C120.232 88.3373 120.45 88.6345 120.641 88.5238C122.076 87.6868 123.629 87.2881 125.016 86.316ZM169.969 76.0369C170.109 76.2992 170.501 76.087 170.374 75.821C169.678 74.3662 169.002 72.5095 168.819 70.7051C169.235 71.8163 170.076 72.8004 171.093 73.6908L171.107 73.8037C171.458 74.7526 171.9 75.3626 172.729 75.9503C172.8 76 172.854 76.0575 172.913 76.1121C173.192 76.6129 173.403 77.1125 173.459 77.6579C173.296 79.1098 171.823 80.8263 170.266 81.478C169.459 81.6749 168.589 81.6285 167.72 81.3249L167.6 81.3033C167.539 81.0783 167.486 80.8505 167.443 80.6195C167.044 78.989 167.073 77.2395 166.998 75.5686C166.981 75.1924 166.956 74.8119 166.933 74.4306C167.278 75.9315 167.941 77.3706 168.81 78.6052C168.964 78.8236 169.327 78.6499 169.186 78.405C168.022 76.362 167.538 74.3029 167.396 72.0095C167.433 70.8945 167.714 69.8653 168.021 68.8377L168.072 68.7862C167.736 71.1849 168.943 74.1202 169.969 76.0369Z" fill="white"/>
</svg>
