<svg width="140" height="43" viewBox="0 0 140 43" fill="none" xmlns="http://www.w3.org/2000/svg">
<path d="M0 26V0H4.87895V21.4139H12.2691V0H17.1481V21.4139H24.5383V0H29.4172V26H0Z" fill="#242528"/>
<path d="M55.5684 26H50.6177V8.66667L39.389 26H34.4383V0H39.389V17.3333L50.6177 0H55.5684V26Z" fill="#242528"/>
<path d="M60.5735 26V0H65.4525V21.4139H72.8426V0H77.7216V21.4139H85.1118V0H89.9907V26H60.5735Z" fill="#242528"/>
<path d="M95.0118 26V0H99.8907V11.9889L109.72 0H115.676L104.877 12.8194L116.357 26H110.187L99.8907 14.1556V26H95.0118Z" fill="#242528"/>
<path d="M140 26H135.049V8.66667L123.821 26H118.87V0H123.821V17.3333L135.049 0H140V26Z" fill="#242528"/>
<path d="M3.24133 39.9736C2.48296 39.9736 1.83196 39.81 1.28831 39.4827C0.744661 39.1509 0.315224 38.6891 0 38.0973L0.644154 37.7139C0.913694 38.2026 1.2609 38.577 1.68577 38.837C2.1152 39.0926 2.61088 39.2204 3.1728 39.2204C3.75757 39.2204 4.22812 39.0859 4.58446 38.8169C4.94537 38.5434 5.12582 38.169 5.12582 37.6937C5.12582 37.3889 5.05958 37.1378 4.92709 36.9405C4.79461 36.7432 4.58446 36.5975 4.29665 36.5034C4.00883 36.4092 3.63422 36.3621 3.1728 36.3621H2.18601V35.6694H3.16595C3.7096 35.6694 4.14132 35.5641 4.46111 35.3533C4.78547 35.1426 4.94765 34.831 4.94765 34.4185C4.94765 33.9612 4.77634 33.6205 4.4337 33.3963C4.09106 33.1721 3.67762 33.06 3.19336 33.06C2.72738 33.06 2.29109 33.1542 1.88449 33.3425C1.48247 33.5308 1.15125 33.7751 0.890852 34.0755L0.342635 33.551C0.694407 33.1385 1.11699 32.8291 1.61039 32.6229C2.10378 32.4121 2.65428 32.3068 3.26189 32.3068C3.73701 32.3068 4.16188 32.3897 4.53649 32.5556C4.91567 32.7215 5.21262 32.9591 5.42734 33.2685C5.64663 33.5779 5.75627 33.9477 5.75627 34.3782C5.75627 34.8131 5.64663 35.1807 5.42734 35.4811C5.20806 35.7815 4.90654 36.0191 4.52278 36.194L4.4474 35.8712C4.79461 35.9115 5.07785 36.0304 5.29714 36.2276C5.521 36.4249 5.68318 36.6625 5.78368 36.9405C5.88419 37.214 5.93444 37.492 5.93444 37.7744C5.93444 38.2183 5.81795 38.6061 5.58495 38.9379C5.35196 39.2652 5.03217 39.5208 4.62558 39.7046C4.21898 39.8839 3.75757 39.9736 3.24133 39.9736Z" fill="#242528"/>
<path d="M9.58629 39.9736C9.01523 39.9736 8.54011 39.875 8.16093 39.6777C7.78631 39.4804 7.50535 39.2204 7.31805 38.8976C7.13074 38.5703 7.03709 38.2161 7.03709 37.835C7.03709 37.4225 7.12389 37.0773 7.29749 36.7993C7.47566 36.5213 7.71093 36.2971 8.00332 36.1267C8.30027 35.9564 8.62691 35.8286 8.98325 35.7434C9.38985 35.6537 9.82842 35.5775 10.299 35.5147C10.7695 35.4475 11.2172 35.3892 11.6421 35.3399C12.0715 35.2906 12.421 35.248 12.6906 35.2121L12.4028 35.3802C12.421 34.5956 12.2703 34.0128 11.9505 33.6317C11.6352 33.2461 11.0779 33.0533 10.2784 33.0533C9.71649 33.0533 9.25279 33.1788 8.88732 33.4299C8.52641 33.6765 8.27286 34.0598 8.12667 34.5799L7.31805 34.358C7.48708 33.6989 7.82743 33.1923 8.3391 32.8381C8.85077 32.4839 9.50634 32.3068 10.3058 32.3068C10.9865 32.3068 11.5576 32.4368 12.019 32.6968C12.485 32.9569 12.8093 33.3223 12.9921 33.7931C13.0697 33.9859 13.1223 34.2123 13.1497 34.4723C13.1771 34.7279 13.1908 34.9857 13.1908 35.2457V39.7719H12.4713V37.8619L12.7385 37.9291C12.5147 38.5837 12.1241 39.0881 11.5667 39.4423C11.0094 39.7965 10.3492 39.9736 9.58629 39.9736ZM9.62741 39.2607C10.1299 39.2607 10.5708 39.1733 10.95 38.9984C11.3292 38.8191 11.6352 38.5703 11.8682 38.2519C12.1058 37.9291 12.2566 37.5503 12.3205 37.1154C12.3662 36.8733 12.3913 36.611 12.3959 36.3285C12.4005 36.046 12.4028 35.8376 12.4028 35.7031L12.7454 35.9183C12.4484 35.9541 12.0921 35.9922 11.6764 36.0326C11.2652 36.0729 10.8449 36.1223 10.4155 36.1805C9.98603 36.2388 9.59771 36.3128 9.25051 36.4025C9.03579 36.4608 8.81879 36.546 8.5995 36.658C8.38478 36.7656 8.20433 36.9158 8.05814 37.1086C7.91652 37.3014 7.8457 37.5458 7.8457 37.8417C7.8457 38.0614 7.90053 38.2811 8.01017 38.5008C8.12438 38.7205 8.31169 38.9021 8.57209 39.0455C8.83249 39.189 9.18427 39.2607 9.62741 39.2607Z" fill="#242528"/>
<path d="M14.9702 39.7719V32.5085H19.9726V33.2618H15.7582V39.7719H14.9702Z" fill="#242528"/>
<path d="M24.176 39.9736C23.4405 39.9736 22.8169 39.81 22.3052 39.4827C21.7936 39.1554 21.403 38.7025 21.1334 38.1242C20.8639 37.5458 20.7291 36.88 20.7291 36.1267C20.7291 35.369 20.8662 34.7032 21.1403 34.1293C21.4144 33.551 21.8073 33.1026 22.3189 32.7843C22.8352 32.4659 23.4542 32.3068 24.176 32.3068C24.9115 32.3068 25.5351 32.4704 26.0468 32.7977C26.563 33.1205 26.9536 33.5689 27.2186 34.1428C27.4882 34.7167 27.6229 35.378 27.6229 36.1267C27.6229 36.8934 27.4882 37.566 27.2186 38.1443C26.9491 38.7182 26.5562 39.1666 26.04 39.4894C25.5237 39.8122 24.9024 39.9736 24.176 39.9736ZM24.176 39.2204C25.0486 39.2204 25.6996 38.9334 26.129 38.3595C26.563 37.7857 26.78 37.0414 26.78 36.1267C26.78 35.1942 26.563 34.4499 26.129 33.8939C25.695 33.338 25.044 33.06 24.176 33.06C23.5867 33.06 23.1001 33.1923 22.7164 33.4568C22.3326 33.7168 22.0448 34.0778 21.853 34.5396C21.6656 34.9969 21.572 35.526 21.572 36.1267C21.572 37.0593 21.7913 37.8081 22.2299 38.373C22.673 38.9379 23.3217 39.2204 24.176 39.2204Z" fill="#242528"/>
<path d="M32.372 39.9736C31.705 39.9736 31.1408 39.8032 30.6793 39.4625C30.2179 39.1217 29.8662 38.6622 29.624 38.0838C29.3819 37.5054 29.2608 36.8531 29.2608 36.1267C29.2608 35.3959 29.3819 34.7436 29.624 34.1697C29.8662 33.5913 30.2248 33.1362 30.6999 32.8044C31.175 32.4727 31.7575 32.3068 32.4473 32.3068C33.1189 32.3068 33.6922 32.4749 34.1674 32.8112C34.6425 33.1474 35.0034 33.6048 35.2501 34.1831C35.5014 34.7615 35.627 35.4094 35.627 36.1267C35.627 36.8531 35.4991 37.5077 35.2432 38.0905C34.992 38.6689 34.6242 39.1285 34.14 39.4692C33.6603 39.8055 33.0709 39.9736 32.372 39.9736ZM29.1306 43V32.5085H29.8502V38.104H29.9187V43H29.1306ZM32.324 39.2338C32.8676 39.2338 33.3199 39.0971 33.6808 38.8236C34.0463 38.5501 34.3204 38.1802 34.5032 37.7139C34.6905 37.2431 34.7841 36.7141 34.7841 36.1267C34.7841 35.5439 34.6927 35.0216 34.51 34.5598C34.3318 34.0935 34.06 33.7258 33.6945 33.4568C33.3336 33.1833 32.8722 33.0466 32.3103 33.0466C31.7666 33.0466 31.3121 33.1788 30.9466 33.4434C30.5811 33.7034 30.307 34.0666 30.1243 34.5329C29.9415 34.9991 29.8502 35.5304 29.8502 36.1267C29.8502 36.7186 29.9393 37.2499 30.1174 37.7206C30.3002 38.1869 30.5743 38.5568 30.9397 38.8303C31.3098 39.0993 31.7712 39.2338 32.324 39.2338Z" fill="#242528"/>
<path d="M40.1701 39.9736C39.4346 39.9736 38.811 39.81 38.2993 39.4827C37.7877 39.1554 37.3971 38.7025 37.1275 38.1242C36.858 37.5458 36.7232 36.88 36.7232 36.1267C36.7232 35.369 36.8603 34.7032 37.1344 34.1293C37.4085 33.551 37.8014 33.1026 38.313 32.7843C38.8293 32.4659 39.4483 32.3068 40.1701 32.3068C40.9056 32.3068 41.5292 32.4704 42.0409 32.7977C42.5571 33.1205 42.9478 33.5689 43.2127 34.1428C43.4823 34.7167 43.617 35.378 43.617 36.1267C43.617 36.8934 43.4823 37.566 43.2127 38.1443C42.9432 38.7182 42.5503 39.1666 42.0341 39.4894C41.5178 39.8122 40.8965 39.9736 40.1701 39.9736ZM40.1701 39.2204C41.0427 39.2204 41.6937 38.9334 42.1231 38.3595C42.5572 37.7857 42.7742 37.0414 42.7742 36.1267C42.7742 35.1942 42.5572 34.4499 42.1231 33.8939C41.6891 33.338 41.0381 33.06 40.1701 33.06C39.5808 33.06 39.0942 33.1923 38.7105 33.4568C38.3267 33.7168 38.0389 34.0778 37.8471 34.5396C37.6598 34.9969 37.5661 35.526 37.5661 36.1267C37.5661 37.0593 37.7854 37.8081 38.224 38.373C38.6671 38.9379 39.3158 39.2204 40.1701 39.2204Z" fill="#242528"/>
<path d="M44.5765 41.3859V39.0657C45.0014 39.0657 45.3075 38.9334 45.4948 38.6689C45.6867 38.4044 45.842 37.9897 45.9608 37.4247C46.0384 37.0481 46.1024 36.6401 46.1526 36.2007C46.2075 35.7613 46.2532 35.2457 46.2897 34.6539C46.3308 34.0621 46.3719 33.347 46.413 32.5085H51.1003V39.0657H51.7924V41.3859H51.0249V39.7719H45.3509V41.3859H44.5765ZM46.1184 39.0657H50.3054V33.2147H47.1737C47.1554 33.5823 47.1326 33.9747 47.1052 34.3916C47.0778 34.8041 47.0458 35.2166 47.0092 35.6291C46.9727 36.0416 46.9293 36.4294 46.879 36.7926C46.8288 37.1557 46.7694 37.4696 46.7009 37.7341C46.6278 38.0345 46.5501 38.2968 46.4679 38.521C46.3856 38.7451 46.2691 38.9267 46.1184 39.0657Z" fill="#242528"/>
<path d="M53.1686 39.7719V32.5085H53.9567V35.7636H58.4178V32.5085H59.2059V39.7719H58.4178V36.5168H53.9567V39.7719H53.1686Z" fill="#242528"/>
<path d="M61.1257 39.7719L61.1188 32.5085H61.9206V35.3466H63.3528C63.5721 35.3466 63.7754 35.3511 63.9627 35.3601C64.1546 35.369 64.3305 35.3892 64.4904 35.4206C64.8376 35.4834 65.1505 35.5954 65.4292 35.7569C65.7124 35.9183 65.9363 36.1447 66.1008 36.4361C66.2698 36.7275 66.3543 37.1019 66.3543 37.5592C66.3543 38.1735 66.1921 38.6555 65.8678 39.0052C65.5434 39.3549 65.1505 39.5791 64.6891 39.6777C64.4972 39.7181 64.2985 39.745 64.0929 39.7584C63.8919 39.7674 63.684 39.7719 63.4693 39.7719H61.1257ZM61.9206 39.0657H63.3665C63.5356 39.0657 63.7274 39.0612 63.9422 39.0523C64.1569 39.0433 64.3442 39.0186 64.5041 38.9783C64.7599 38.9021 64.9929 38.7608 65.2031 38.5546C65.4178 38.3483 65.5251 38.0166 65.5251 37.5592C65.5251 37.1109 65.4223 36.7791 65.2168 36.5639C65.0157 36.3442 64.7416 36.2007 64.3944 36.1335C64.2391 36.0976 64.0701 36.0752 63.8873 36.0662C63.7092 36.0573 63.5356 36.0528 63.3665 36.0528H61.9206V39.0657ZM67.2794 39.7719V32.5085H68.0675V39.7719H67.2794Z" fill="#242528"/>
<path d="M72.9461 31.6342C72.64 31.6342 72.359 31.5603 72.1032 31.4123C71.8519 31.2644 71.6509 31.0671 71.5002 30.8205C71.354 30.5739 71.2809 30.3004 71.2809 30H71.9661C71.9661 30.26 72.0621 30.4865 72.254 30.6793C72.4504 30.8676 72.6811 30.9617 72.9461 30.9617C73.2202 30.9617 73.4509 30.8676 73.6382 30.6793C73.8301 30.4865 73.926 30.26 73.926 30H74.6113C74.6113 30.3004 74.5359 30.5739 74.3851 30.8205C74.239 31.0671 74.0379 31.2644 73.7821 31.4123C73.5308 31.5603 73.2522 31.6342 72.9461 31.6342ZM75.694 32.5085V39.7719H74.9197V33.8065L70.6847 39.7719H69.9926V32.5085H70.7669V38.447L75.0019 32.5085H75.694Z" fill="#242528"/>
<path d="M80.3519 39.7719V32.5085H81.1468V36.0057L84.6486 32.5085H85.7519L82.0857 36.1402L86.2727 39.7719H85.046L81.1468 36.2747V39.7719H80.3519Z" fill="#242528"/>
<path d="M89.8656 39.9736C89.1301 39.9736 88.5065 39.81 87.9948 39.4827C87.4832 39.1554 87.0926 38.7025 86.823 38.1242C86.5535 37.5458 86.4187 36.88 86.4187 36.1267C86.4187 35.369 86.5558 34.7032 86.8299 34.1293C87.104 33.551 87.4969 33.1026 88.0085 32.7843C88.5248 32.4659 89.1438 32.3068 89.8656 32.3068C90.6011 32.3068 91.2247 32.4704 91.7364 32.7977C92.2526 33.1205 92.6432 33.5689 92.9082 34.1428C93.1778 34.7167 93.3125 35.378 93.3125 36.1267C93.3125 36.8934 93.1778 37.566 92.9082 38.1443C92.6387 38.7182 92.2458 39.1666 91.7295 39.4894C91.2133 39.8122 90.592 39.9736 89.8656 39.9736ZM89.8656 39.2204C90.7382 39.2204 91.3892 38.9334 91.8186 38.3595C92.2526 37.7857 92.4696 37.0414 92.4696 36.1267C92.4696 35.1942 92.2526 34.4499 91.8186 33.8939C91.3846 33.338 90.7336 33.06 89.8656 33.06C89.2763 33.06 88.7897 33.1923 88.406 33.4568C88.0222 33.7168 87.7344 34.0778 87.5425 34.5396C87.3552 34.9969 87.2616 35.526 87.2616 36.1267C87.2616 37.0593 87.4809 37.8081 87.9194 38.373C88.3626 38.9379 89.0113 39.2204 89.8656 39.2204Z" fill="#242528"/>
<path d="M94.8202 39.7719V32.5085H95.5603L98.5275 38.7631L101.488 32.5085H102.235V39.7719H101.454V34.2369L98.8428 39.7719H98.2055L95.5946 34.2369V39.7719H94.8202Z" fill="#242528"/>
<path d="M104.149 39.7719V32.5085H109.85V39.7719H109.062V33.2618H104.937V39.7719H104.149Z" fill="#242528"/>
<path d="M111.079 39.7719V39.0724C111.358 39.1217 111.568 39.1083 111.71 39.0321C111.851 38.9514 111.954 38.8213 112.018 38.642C112.087 38.4582 112.142 38.2362 112.183 37.9762C112.26 37.5279 112.329 37.0391 112.388 36.5101C112.448 35.9765 112.502 35.3825 112.553 34.7279C112.603 34.0688 112.653 33.329 112.703 32.5085H117.603V39.7719H116.808V33.2618H113.471C113.434 33.7998 113.393 34.3221 113.348 34.8288C113.306 35.3354 113.261 35.8174 113.211 36.2747C113.165 36.7275 113.115 37.1423 113.06 37.5189C113.01 37.891 112.955 38.2138 112.895 38.4873C112.827 38.846 112.733 39.1352 112.614 39.3549C112.5 39.5701 112.324 39.7136 112.087 39.7853C111.849 39.857 111.513 39.8526 111.079 39.7719Z" fill="#242528"/>
<path d="M122.577 39.9736C121.869 39.9736 121.257 39.8189 120.74 39.5096C120.224 39.1957 119.824 38.7541 119.541 38.1847C119.258 37.6108 119.116 36.9338 119.116 36.1536C119.116 35.3601 119.256 34.6763 119.534 34.1024C119.818 33.5241 120.215 33.0802 120.727 32.7708C121.243 32.4615 121.855 32.3068 122.563 32.3068C123.28 32.3068 123.893 32.4682 124.4 32.791C124.911 33.1093 125.3 33.5711 125.565 34.1764C125.834 34.7817 125.962 35.5103 125.948 36.3621H125.126V36.0931C125.103 35.0978 124.875 34.3401 124.441 33.82C124.007 33.2999 123.386 33.0398 122.577 33.0398C121.741 33.0398 121.094 33.3111 120.638 33.8536C120.185 34.3916 119.959 35.1538 119.959 36.1402C119.959 37.1176 120.185 37.8753 120.638 38.4133C121.094 38.9514 121.736 39.2204 122.563 39.2204C123.134 39.2204 123.632 39.0904 124.057 38.8303C124.487 38.5658 124.827 38.1892 125.078 37.7005L125.791 38.0098C125.494 38.6375 125.064 39.1217 124.502 39.4625C123.941 39.8032 123.299 39.9736 122.577 39.9736ZM119.658 36.3621V35.6627H125.503V36.3621H119.658Z" fill="#242528"/>
<path d="M127.464 39.7719V32.5085H128.259V36.0057L131.761 32.5085H132.864L129.198 36.1402L133.385 39.7719H132.158L128.259 36.2747V39.7719H127.464Z" fill="#242528"/>
<path d="M136.964 39.9736C136.224 39.9736 135.601 39.8122 135.093 39.4894C134.586 39.1621 134.2 38.7115 133.935 38.1376C133.675 37.5592 133.54 36.8934 133.531 36.1402C133.54 35.3735 133.677 34.7032 133.942 34.1293C134.212 33.551 134.6 33.1026 135.107 32.7843C135.614 32.4659 136.236 32.3068 136.971 32.3068C137.688 32.3068 138.319 32.4772 138.862 32.8179C139.411 33.1542 139.79 33.6182 140 34.21L139.232 34.4858C139.045 34.0329 138.751 33.6832 138.348 33.4366C137.946 33.1855 137.485 33.06 136.964 33.06C136.379 33.06 135.898 33.1923 135.518 33.4568C135.139 33.7168 134.856 34.0778 134.669 34.5396C134.481 35.0014 134.383 35.5349 134.374 36.1402C134.388 37.0683 134.609 37.8148 135.039 38.3797C135.473 38.9402 136.115 39.2204 136.964 39.2204C137.49 39.2204 137.944 39.1016 138.328 38.8639C138.716 38.6263 139.013 38.2811 139.219 37.8282L140 38.0905C139.712 38.7048 139.31 39.1733 138.794 39.4961C138.278 39.8145 137.668 39.9736 136.964 39.9736Z" fill="#242528"/>
</svg>
