<svg width="117" height="36" viewBox="0 0 117 36" fill="none" xmlns="http://www.w3.org/2000/svg">
<path d="M0 21.7286V0H4.07741V17.8959H10.2535V0H14.3309V17.8959H20.507V0H24.5844V21.7286H0Z" fill="white"/>
<path d="M46.4393 21.7286H42.302V7.24286L32.9179 21.7286H28.7806V0H32.9179V14.4857L42.302 0H46.4393V21.7286Z" fill="white"/>
<path d="M50.6221 21.7286V0H54.6996V17.8959H60.8756V0H64.953V17.8959H71.1291V0H75.2065V21.7286H50.6221Z" fill="white"/>
<path d="M79.4027 21.7286V0H83.4801V10.0193L91.6949 0H96.6717L87.6475 10.7134L97.2414 21.7286H92.0846L83.4801 11.83V21.7286H79.4027Z" fill="white"/>
<path d="M117 21.7286H112.863V7.24286L103.479 21.7286H99.3412V0H103.479V14.4857L112.863 0H117V21.7286Z" fill="white"/>
<path d="M2.70883 33.4074C2.07505 33.4074 1.53099 33.2706 1.07666 32.9971C0.622324 32.7198 0.263438 32.3339 0 31.8393L0.538329 31.5189C0.763587 31.9273 1.05375 32.2402 1.40882 32.4575C1.7677 32.6711 2.18195 32.7779 2.65156 32.7779C3.14025 32.7779 3.5335 32.6655 3.8313 32.4406C4.13292 32.2121 4.28372 31.8992 4.28372 31.502C4.28372 31.2472 4.22836 31.0374 4.11764 30.8725C4.00692 30.7077 3.8313 30.5859 3.59077 30.5072C3.35024 30.4285 3.03717 30.3892 2.65156 30.3892H1.82688V29.8103H2.64583C3.10016 29.8103 3.46096 29.7222 3.72821 29.5461C3.99929 29.37 4.13482 29.1096 4.13482 28.7649C4.13482 28.3827 3.99165 28.0979 3.70531 27.9106C3.41896 27.7232 3.07344 27.6296 2.66874 27.6296C2.27931 27.6296 1.91469 27.7082 1.5749 27.8656C1.23892 28.023 0.96212 28.2272 0.744497 28.4782L0.286345 28.0399C0.580326 27.6951 0.933485 27.4366 1.34582 27.2642C1.75816 27.0881 2.21822 27.0001 2.72601 27.0001C3.12307 27.0001 3.47814 27.0694 3.79121 27.208C4.1081 27.3467 4.35626 27.5453 4.53571 27.8038C4.71897 28.0623 4.8106 28.3715 4.8106 28.7312C4.8106 29.0946 4.71897 29.4019 4.53571 29.6529C4.35245 29.904 4.10046 30.1025 3.77976 30.2487L3.71676 29.9789C4.00692 30.0126 4.24364 30.1119 4.4269 30.2768C4.61398 30.4416 4.74951 30.6402 4.83351 30.8725C4.9175 31.1011 4.9595 31.3334 4.9595 31.5695C4.9595 31.9404 4.86214 32.2645 4.66743 32.5418C4.47271 32.8153 4.20546 33.0289 3.86566 33.1825C3.52586 33.3324 3.14025 33.4074 2.70883 33.4074Z" fill="white"/>
<path d="M8.0114 33.4074C7.53416 33.4074 7.13709 33.3249 6.82021 33.1601C6.50713 32.9952 6.27233 32.7779 6.1158 32.5081C5.95926 32.2346 5.88099 31.9386 5.88099 31.6201C5.88099 31.2753 5.95353 30.9868 6.09862 30.7545C6.24751 30.5222 6.44414 30.3349 6.68849 30.1925C6.93665 30.0501 7.20963 29.9433 7.50743 29.8721C7.84723 29.7972 8.21375 29.7335 8.607 29.681C9.00025 29.6248 9.3744 29.5761 9.72947 29.5349C10.0884 29.4937 10.3804 29.4581 10.6057 29.4281L10.3652 29.5686C10.3804 28.9129 10.2544 28.4258 9.98718 28.1073C9.72374 27.7851 9.25796 27.6239 8.58982 27.6239C8.12021 27.6239 7.73269 27.7289 7.42726 27.9387C7.12564 28.1448 6.91374 28.4651 6.79157 28.8998L6.1158 28.7143C6.25706 28.1635 6.5415 27.7401 6.9691 27.4441C7.39671 27.1481 7.94459 27.0001 8.61273 27.0001C9.1816 27.0001 9.65884 27.1087 10.0445 27.3261C10.4339 27.5434 10.705 27.8488 10.8577 28.2422C10.9226 28.4033 10.9665 28.5925 10.9894 28.8098C11.0123 29.0234 11.0238 29.2389 11.0238 29.4562V33.2387H10.4224V31.6425L10.6458 31.6987C10.4587 32.2458 10.1323 32.6673 9.66648 32.9633C9.20069 33.2594 8.649 33.4074 8.0114 33.4074ZM8.04576 32.8116C8.46574 32.8116 8.83417 32.7385 9.15105 32.5924C9.46794 32.4425 9.72374 32.2346 9.91846 31.9685C10.117 31.6987 10.243 31.3821 10.2964 31.0187C10.3346 30.8163 10.3556 30.5971 10.3594 30.3611C10.3632 30.125 10.3652 29.9508 10.3652 29.8384L10.6515 30.0182C10.4033 30.0482 10.1055 30.0801 9.75811 30.1138C9.41449 30.1475 9.06324 30.1887 8.70436 30.2374C8.34547 30.2861 8.02095 30.348 7.73078 30.4229C7.55134 30.4716 7.36999 30.5428 7.18673 30.6365C7.00728 30.7264 6.85648 30.8519 6.7343 31.0131C6.61595 31.1742 6.55677 31.3784 6.55677 31.6257C6.55677 31.8093 6.60258 31.9929 6.69421 32.1765C6.78966 32.3601 6.9462 32.5118 7.16382 32.6317C7.38144 32.7516 7.67542 32.8116 8.04576 32.8116Z" fill="white"/>
<path d="M12.5108 33.2387V27.1687H16.6914V27.7982H13.1694V33.2387H12.5108Z" fill="white"/>
<path d="M20.2042 33.4074C19.5896 33.4074 19.0684 33.2706 18.6408 32.9971C18.2132 32.7235 17.8868 32.3451 17.6615 31.8617C17.4362 31.3784 17.3236 30.822 17.3236 30.1925C17.3236 29.5592 17.4382 29.0028 17.6672 28.5232C17.8963 28.0399 18.2246 27.6652 18.6523 27.3991C19.0837 27.1331 19.601 27.0001 20.2042 27.0001C20.8189 27.0001 21.3401 27.1368 21.7677 27.4104C22.1991 27.6801 22.5256 28.0548 22.747 28.5344C22.9722 29.0141 23.0849 29.5667 23.0849 30.1925C23.0849 30.8332 22.9722 31.3952 22.747 31.8786C22.5217 32.3582 22.1934 32.7329 21.762 33.0027C21.3305 33.2725 20.8113 33.4074 20.2042 33.4074ZM20.2042 32.7779C20.9335 32.7779 21.4775 32.5381 21.8364 32.0585C22.1991 31.5788 22.3805 30.9569 22.3805 30.1925C22.3805 29.4131 22.1991 28.7911 21.8364 28.3265C21.4737 27.8619 20.9297 27.6296 20.2042 27.6296C19.7117 27.6296 19.3051 27.7401 18.9844 27.9612C18.6637 28.1785 18.4232 28.4801 18.2628 28.8661C18.1063 29.2482 18.028 29.6904 18.028 30.1925C18.028 30.9718 18.2113 31.5976 18.5778 32.0697C18.9481 32.5418 19.4903 32.7779 20.2042 32.7779Z" fill="white"/>
<path d="M27.0537 33.4074C26.4963 33.4074 26.0248 33.265 25.6392 32.9802C25.2536 32.6954 24.9596 32.3114 24.7572 31.828C24.5549 31.3447 24.4537 30.7995 24.4537 30.1925C24.4537 29.5817 24.5549 29.0365 24.7572 28.5569C24.9596 28.0736 25.2593 27.6933 25.6563 27.416C26.0534 27.1387 26.5402 27.0001 27.1167 27.0001C27.6779 27.0001 28.1571 27.1406 28.5542 27.4216C28.9512 27.7026 29.2528 28.0848 29.459 28.5682C29.669 29.0515 29.774 29.593 29.774 30.1925C29.774 30.7995 29.6671 31.3465 29.4533 31.8336C29.2433 32.317 28.936 32.7011 28.5313 32.9858C28.1304 33.2668 27.6379 33.4074 27.0537 33.4074ZM24.3449 35.9366V27.1687H24.9462V31.8449H25.0035V35.9366H24.3449ZM27.0136 32.7891C27.468 32.7891 27.8459 32.6748 28.1475 32.4463C28.453 32.2177 28.6821 31.9086 28.8348 31.5189C28.9913 31.1255 29.0696 30.6833 29.0696 30.1925C29.0696 29.7054 28.9932 29.2689 28.8405 28.8829C28.6916 28.4932 28.4644 28.186 28.159 27.9612C27.8574 27.7326 27.4718 27.6183 27.0022 27.6183C26.5478 27.6183 26.168 27.7289 25.8625 27.9499C25.5571 28.1672 25.328 28.4708 25.1753 28.8604C25.0226 29.2501 24.9462 29.6941 24.9462 30.1925C24.9462 30.6871 25.0207 31.1311 25.1696 31.5245C25.3223 31.9142 25.5514 32.2233 25.8568 32.4519C26.166 32.6767 26.5517 32.7891 27.0136 32.7891Z" fill="white"/>
<path d="M33.5707 33.4074C32.9561 33.4074 32.4349 33.2706 32.0073 32.9971C31.5797 32.7235 31.2533 32.3451 31.028 31.8617C30.8027 31.3784 30.6901 30.822 30.6901 30.1925C30.6901 29.5592 30.8047 29.0028 31.0337 28.5232C31.2628 28.0399 31.5911 27.6652 32.0188 27.3991C32.4502 27.1331 32.9675 27.0001 33.5707 27.0001C34.1854 27.0001 34.7066 27.1368 35.1342 27.4104C35.5656 27.6801 35.8921 28.0548 36.1135 28.5344C36.3388 29.0141 36.4514 29.5667 36.4514 30.1925C36.4514 30.8332 36.3388 31.3952 36.1135 31.8786C35.8882 32.3582 35.5599 32.7329 35.1285 33.0027C34.697 33.2725 34.1778 33.4074 33.5707 33.4074ZM33.5707 32.7779C34.3 32.7779 34.844 32.5381 35.2029 32.0585C35.5656 31.5788 35.747 30.9569 35.747 30.1925C35.747 29.4131 35.5656 28.7911 35.2029 28.3265C34.8402 27.8619 34.2962 27.6296 33.5707 27.6296C33.0782 27.6296 32.6716 27.7401 32.3509 27.9612C32.0302 28.1785 31.7897 28.4801 31.6293 28.8661C31.4728 29.2482 31.3945 29.6904 31.3945 30.1925C31.3945 30.9718 31.5778 31.5976 31.9443 32.0697C32.3146 32.5418 32.8568 32.7779 33.5707 32.7779Z" fill="white"/>
<path d="M37.2532 34.5876V32.6486C37.6083 32.6486 37.8641 32.5381 38.0206 32.317C38.181 32.0959 38.3108 31.7493 38.4101 31.2772C38.475 30.9625 38.5284 30.6215 38.5704 30.2543C38.6162 29.8871 38.6544 29.4562 38.685 28.9616C38.7193 28.467 38.7537 27.8694 38.788 27.1687H42.7052V32.6486H43.2837V34.5876H42.6423V33.2387H37.9004V34.5876H37.2532ZM38.5418 32.6486H42.0409V27.7588H39.4237C39.4085 28.0661 39.3894 28.3939 39.3665 28.7424C39.3436 29.0871 39.3168 29.4318 39.2863 29.7766C39.2557 30.1213 39.2195 30.4454 39.1775 30.7489C39.1355 31.0524 39.0858 31.3147 39.0286 31.5358C38.9675 31.7868 38.9026 32.006 38.8339 32.1933C38.7651 32.3807 38.6678 32.5324 38.5418 32.6486Z" fill="white"/>
<path d="M44.4338 33.2387V27.1687H45.0924V29.889H48.8206V27.1687H49.4792V33.2387H48.8206V30.5185H45.0924V33.2387H44.4338Z" fill="white"/>
<path d="M51.0836 33.2387L51.0779 27.1687H51.7479V29.5405H52.9449C53.1281 29.5405 53.298 29.5443 53.4546 29.5517C53.6149 29.5592 53.7619 29.5761 53.8955 29.6023C54.1857 29.6548 54.4472 29.7485 54.6801 29.8834C54.9168 30.0182 55.1039 30.2075 55.2414 30.451C55.3826 30.6946 55.4532 31.0074 55.4532 31.3896C55.4532 31.903 55.3177 32.3058 55.0466 32.598C54.7756 32.8903 54.4472 33.0776 54.0616 33.1601C53.9013 33.1938 53.7352 33.2163 53.5634 33.2275C53.3954 33.235 53.2217 33.2387 53.0422 33.2387H51.0836ZM51.7479 32.6486H52.9563C53.0976 32.6486 53.2579 32.6449 53.4374 32.6374C53.6168 32.6299 53.7734 32.6093 53.907 32.5755C54.1208 32.5118 54.3155 32.3938 54.4911 32.2214C54.6706 32.0491 54.7603 31.7718 54.7603 31.3896C54.7603 31.0149 54.6744 30.7377 54.5026 30.5578C54.3346 30.3742 54.1055 30.2543 53.8154 30.1981C53.6855 30.1681 53.5443 30.1494 53.3916 30.1419C53.2427 30.1344 53.0976 30.1307 52.9563 30.1307H51.7479V32.6486ZM56.2264 33.2387V27.1687H56.885V33.2387H56.2264Z" fill="white"/>
<path d="M60.9621 26.438C60.7063 26.438 60.4715 26.3762 60.2577 26.2526C60.0477 26.1289 59.8797 25.964 59.7537 25.758C59.6315 25.5519 59.5704 25.3233 59.5704 25.0723H60.1431C60.1431 25.2896 60.2233 25.4788 60.3837 25.6399C60.5478 25.7973 60.7406 25.876 60.9621 25.876C61.1912 25.876 61.384 25.7973 61.5405 25.6399C61.7009 25.4788 61.781 25.2896 61.781 25.0723H62.3537C62.3537 25.3233 62.2907 25.5519 62.1647 25.758C62.0426 25.964 61.8746 26.1289 61.6608 26.2526C61.4508 26.3762 61.2179 26.438 60.9621 26.438ZM63.2586 27.1687V33.2387H62.6114V28.2534L59.0722 33.2387H58.4938V27.1687H59.1409V32.1315L62.6801 27.1687H63.2586Z" fill="white"/>
<path d="M67.1513 33.2387V27.1687H67.8156V30.0913L70.742 27.1687H71.6641L68.6002 30.2037L72.0993 33.2387H71.0742L67.8156 30.3161V33.2387H67.1513Z" fill="white"/>
<path d="M75.102 33.4074C74.4873 33.4074 73.9661 33.2706 73.5385 32.9971C73.1109 32.7235 72.7845 32.3451 72.5592 31.8617C72.334 31.3784 72.2214 30.822 72.2214 30.1925C72.2214 29.5592 72.3359 29.0028 72.565 28.5232C72.794 28.0399 73.1224 27.6652 73.55 27.3991C73.9814 27.1331 74.4987 27.0001 75.102 27.0001C75.7167 27.0001 76.2378 27.1368 76.6654 27.4104C77.0969 27.6801 77.4233 28.0548 77.6447 28.5344C77.87 29.0141 77.9826 29.5667 77.9826 30.1925C77.9826 30.8332 77.87 31.3952 77.6447 31.8786C77.4195 32.3582 77.0911 32.7329 76.6597 33.0027C76.2283 33.2725 75.709 33.4074 75.102 33.4074ZM75.102 32.7779C75.8312 32.7779 76.3753 32.5381 76.7342 32.0585C77.0969 31.5788 77.2782 30.9569 77.2782 30.1925C77.2782 29.4131 77.0969 28.7911 76.7342 28.3265C76.3714 27.8619 75.8274 27.6296 75.102 27.6296C74.6095 27.6296 74.2029 27.7401 73.8821 27.9612C73.5614 28.1785 73.3209 28.4801 73.1606 28.8661C73.004 29.2482 72.9258 29.6904 72.9258 30.1925C72.9258 30.9718 73.109 31.5976 73.4755 32.0697C73.8459 32.5418 74.388 32.7779 75.102 32.7779Z" fill="white"/>
<path d="M79.2426 33.2387V27.1687H79.8611L82.3409 32.3957L84.8149 27.1687H85.4391V33.2387H84.7863V28.6131L82.6043 33.2387H82.0717L79.8898 28.6131V33.2387H79.2426Z" fill="white"/>
<path d="M87.0388 33.2387V27.1687H91.8036V33.2387H91.145V27.7982H87.6974V33.2387H87.0388Z" fill="white"/>
<path d="M92.8306 33.2387V32.6542C93.0635 32.6954 93.2391 32.6842 93.3575 32.6205C93.4758 32.5531 93.5617 32.4444 93.6152 32.2945C93.6725 32.1409 93.7183 31.9554 93.7526 31.7381C93.8175 31.3634 93.8748 30.955 93.9244 30.5128C93.9741 30.067 94.0199 29.5705 94.0619 29.0234C94.1039 28.4726 94.1459 27.8544 94.1879 27.1687H98.2826V33.2387H97.6183V27.7982H94.8293C94.7987 28.2478 94.7644 28.6843 94.7262 29.1077C94.6918 29.5311 94.6537 29.9339 94.6117 30.3161C94.5735 30.6946 94.5315 31.0412 94.4857 31.3559C94.4437 31.6669 94.3979 31.9367 94.3482 32.1652C94.291 32.465 94.2127 32.7067 94.1134 32.8903C94.018 33.0701 93.871 33.19 93.6724 33.25C93.4739 33.3099 93.1933 33.3062 92.8306 33.2387Z" fill="white"/>
<path d="M102.439 33.4074C101.847 33.4074 101.336 33.2781 100.904 33.0195C100.473 32.7573 100.139 32.3882 99.9023 31.9123C99.6655 31.4327 99.5472 30.8669 99.5472 30.215C99.5472 29.5517 99.6636 28.9803 99.8965 28.5007C100.133 28.0174 100.465 27.6464 100.893 27.3879C101.324 27.1293 101.836 27.0001 102.428 27.0001C103.027 27.0001 103.539 27.135 103.963 27.4047C104.39 27.6708 104.715 28.0567 104.936 28.5626C105.161 29.0684 105.268 29.6773 105.257 30.3892H104.57V30.1644C104.551 29.3325 104.36 28.6993 103.997 28.2647C103.634 27.83 103.115 27.6127 102.439 27.6127C101.741 27.6127 101.2 27.8394 100.819 28.2928C100.441 28.7424 100.252 29.3794 100.252 30.2037C100.252 31.0206 100.441 31.6538 100.819 32.1034C101.2 32.5531 101.737 32.7779 102.428 32.7779C102.905 32.7779 103.321 32.6692 103.676 32.4519C104.035 32.2308 104.32 31.9161 104.53 31.5077L105.125 31.7662C104.877 32.2908 104.518 32.6954 104.049 32.9802C103.579 33.265 103.043 33.4074 102.439 33.4074ZM99.9996 30.3892V29.8047H104.885V30.3892H99.9996Z" fill="white"/>
<path d="M106.524 33.2387V27.1687H107.188V30.0913L110.114 27.1687H111.037L107.973 30.2037L111.472 33.2387H110.447L107.188 30.3161V33.2387H106.524Z" fill="white"/>
<path d="M114.463 33.4074C113.844 33.4074 113.323 33.2725 112.9 33.0027C112.476 32.7292 112.153 32.3526 111.932 31.873C111.714 31.3896 111.601 30.8332 111.594 30.2037C111.601 29.563 111.716 29.0028 111.937 28.5232C112.163 28.0399 112.487 27.6652 112.911 27.3991C113.335 27.1331 113.854 27.0001 114.469 27.0001C115.068 27.0001 115.595 27.1425 116.049 27.4272C116.507 27.7082 116.824 28.0961 117 28.5907L116.359 28.8211C116.202 28.4426 115.956 28.1504 115.62 27.9443C115.284 27.7345 114.898 27.6296 114.463 27.6296C113.974 27.6296 113.572 27.7401 113.255 27.9612C112.938 28.1785 112.701 28.4801 112.544 28.8661C112.388 29.252 112.306 29.6979 112.298 30.2037C112.31 30.9793 112.495 31.6032 112.854 32.0753C113.216 32.5437 113.753 32.7779 114.463 32.7779C114.902 32.7779 115.282 32.6786 115.603 32.48C115.927 32.2814 116.175 31.9929 116.347 31.6144L117 31.8336C116.759 32.347 116.423 32.7385 115.992 33.0083C115.561 33.2743 115.051 33.4074 114.463 33.4074Z" fill="white"/>
</svg>
