<svg width="61" height="407" viewBox="0 0 61 407" fill="none" xmlns="http://www.w3.org/2000/svg">
<path d="M0.227808 380.319L5.03894 380.992C4.9264 382.339 5.15148 383.433 5.71419 384.275C6.24876 385.116 7.03655 385.705 8.07755 386.042C9.09042 386.351 10.2721 386.407 11.6226 386.21L11.6226 380.319L23.1018 380.319L23.1018 391.766L11.6226 391.766C7.57112 391.766 4.50437 390.826 2.42236 388.946C0.312215 387.066 -0.419303 384.19 0.227808 380.319ZM0.227809 395.553L5.03894 396.226C4.9264 397.573 5.15148 398.667 5.71419 399.509C6.24876 400.351 7.03655 400.94 8.07755 401.277C9.09042 401.585 10.2721 401.641 11.6226 401.445L11.6226 395.553L23.1018 395.553L23.1018 407L11.6226 407C7.57112 407 4.50437 406.06 2.42236 404.18C0.312216 402.301 -0.419302 399.425 0.227809 395.553Z" fill="white"/>
<path d="M61 367.73L0.227808 367.73L0.227807 356.283L50.2805 356.283L50.2805 338.945L0.227807 338.945L0.227806 327.498L50.2805 327.498L50.2805 310.159L0.227805 310.159L0.227805 298.712L61 298.712L61 367.73Z" fill="white"/>
<path d="M61 237.357L61 248.972L20.4852 248.972L61 275.317L61 286.932L0.227804 286.932L0.227804 275.317L40.7426 275.317L0.227803 248.972L0.227802 237.357L61 237.357Z" fill="white"/>
<path d="M61 225.614L0.227802 225.614L0.227801 214.167L50.2805 214.167L50.2805 196.829L0.2278 196.829L0.2278 185.382L50.2805 185.382L50.2805 168.043L0.227799 168.043L0.227799 156.596L61 156.596L61 225.614Z" fill="white"/>
<path d="M61 144.816L0.227798 144.816L0.227798 133.369L28.2505 133.369L0.227797 110.307L0.227796 96.3351L30.1919 121.67L61 94.7359L61 109.213L33.3149 133.369L61 133.369L61 144.816Z" fill="white"/>
<path d="M61 39.2657L61 50.881L20.4852 50.881L61 77.2256L61 88.8408L0.227796 88.8409L0.227795 77.2256L40.7426 77.2256L0.227794 50.881L0.227794 39.2657L61 39.2657Z" fill="white"/>
<path d="M23.1018 26.6813L18.2906 26.0079C18.4032 24.6612 18.1922 23.5671 17.6576 22.7254C17.0949 21.8838 16.3071 21.3086 15.2942 20.9999C14.2532 20.6633 13.0575 20.5931 11.707 20.7895L11.707 26.6813L0.227793 26.6813L0.227792 15.2344L11.707 15.2344C15.7585 15.2344 18.8252 16.1743 20.9072 18.054C22.9892 19.9338 23.7208 22.8096 23.1018 26.6813ZM23.1018 11.4469L18.2906 10.7735C18.4032 9.42679 18.1922 8.33258 17.6576 7.4909C17.0949 6.64923 16.3071 6.07413 15.2942 5.7655C14.2532 5.42883 13.0575 5.3587 11.707 5.55508L11.707 11.4469L0.227792 11.4469L0.227792 -9.95789e-09L11.707 -5.11729e-07C15.7585 -6.88825e-07 18.8252 0.93988 20.9072 2.81964C22.9892 4.6994 23.7208 7.57513 23.1018 11.4469Z" fill="white"/>
</svg>
